<svg xmlns="http://www.w3.org/2000/svg" viewBox="0 0 132.16 132.16"><defs><style>.cls-1{fill:#cbcbcb;}.cls-2{font-size:14px;font-family:Helvetica;}.cls-2,.cls-8{fill:#fff;}.cls-3{letter-spacing:-0.01em;}.cls-4{letter-spacing:0em;}.cls-5{letter-spacing:0.01em;}.cls-6{letter-spacing:0em;}.cls-7{letter-spacing:0em;}</style></defs><g id="圖層_2" data-name="圖層 2"><g id="圖層_1-2" data-name="圖層 1"><rect class="cls-1" width="132.16" height="132.16"/><text class="cls-2" transform="translate(36.58 101.01)">J<tspan class="cls-3" x="5.18" y="0">a</tspan><tspan class="cls-4" x="11.82" y="0">v</tspan><tspan x="18.49" y="0">a</tspan><tspan class="cls-5" x="25.24" y="0">S</tspan><tspan x="32.23" y="0">c</tspan><tspan class="cls-6" x="38.5" y="0">r</tspan><tspan class="cls-7" x="43.13" y="0">ipt</tspan></text><path class="cls-8" d="M40,30.3H91.71V82H40ZM86.58,68.65c-.37-2.36-1.91-4.34-6.47-6.19-1.59-.74-3.35-1.26-3.88-2.46a2.66,2.66,0,0,1-.1-1.52c.33-1.39,2-1.81,3.27-1.42A3.51,3.51,0,0,1,81.51,59c2.22-1.46,2.22-1.46,3.78-2.43A9.24,9.24,0,0,0,84,54.89c-1.36-1.52-3.17-2.29-6.11-2.23l-1.52.19A7,7,0,0,0,72.71,55a6.77,6.77,0,0,0,1.22,9.64c2.95,2.2,7.25,2.68,7.8,4.76.52,2.52-1.87,3.33-4.24,3a5.68,5.68,0,0,1-3.78-2.89l-3.95,2.27a8.64,8.64,0,0,0,1.75,2.39c3.75,3.79,13.13,3.59,14.81-2.16a7.18,7.18,0,0,0,.16-3.56ZM66.38,54H61.53c0,4.18,0,8.33,0,12.52,0,2.66.13,5.09-.3,5.85-.71,1.48-2.54,1.29-3.37,1a4.09,4.09,0,0,1-1.79-1.84c-.14-.23-.24-.43-.28-.43l-3.93,2.43a7.52,7.52,0,0,0,2.85,3.27,9.46,9.46,0,0,0,6.92.87,6,6,0,0,0,3.9-3c1.1-2,.87-4.46.86-7.21,0-4.43,0-8.86,0-13.33Z"/></g></g></svg>