<svg xmlns="http://www.w3.org/2000/svg" viewBox="0 0 132.16 132.16"><defs><style>.cls-1{fill:#cbcbcb;}.cls-2{font-size:14px;font-family:Helvetica;}.cls-2,.cls-4{fill:#fff;}.cls-3{letter-spacing:-0.01em;}</style></defs><g id="圖層_2" data-name="圖層 2"><g id="圖層_1-2" data-name="圖層 1"><rect class="cls-1" width="132.16" height="132.16"/><text class="cls-2" transform="translate(44.34 101.01)">Nod<tspan class="cls-3" x="24.79" y="0">e</tspan><tspan x="31.64" y="0">.js</tspan></text><path class="cls-4" d="M67.08,81.58a3.94,3.94,0,0,1-2-.52l-6.25-3.7c-.94-.52-.48-.71-.17-.82a12.59,12.59,0,0,0,2.82-1.28.49.49,0,0,1,.47,0l4.8,2.85a.6.6,0,0,0,.58,0l18.72-10.8a.6.6,0,0,0,.28-.51V45.23a.61.61,0,0,0-.29-.52L67.37,33.92a.6.6,0,0,0-.58,0l-18.7,10.8a.61.61,0,0,0-.3.51v21.6a.56.56,0,0,0,.3.5l5.12,3c2.79,1.39,4.49-.25,4.49-1.9V47.07a.54.54,0,0,1,.54-.54h2.38a.54.54,0,0,1,.54.54V68.4c0,3.72-2,5.84-5.54,5.84a8,8,0,0,1-4.31-1.17l-4.92-2.82a4,4,0,0,1-2-3.42V45.23a4,4,0,0,1,2-3.41L65.11,31a4.11,4.11,0,0,1,3.94,0L87.76,41.82a3.94,3.94,0,0,1,2,3.41v21.6a4,4,0,0,1-2,3.42L69.05,81.06A4,4,0,0,1,67.08,81.58Zm15.11-21.3c0-4-2.73-5.12-8.48-5.88s-6.41-1.17-6.41-2.53c0-1.12.5-2.62,4.81-2.62,3.84,0,5.26.83,5.84,3.42a.54.54,0,0,0,.53.42h2.43a.52.52,0,0,0,.39-.17.53.53,0,0,0,.15-.42C81.07,48,78.1,46,72.11,46c-5.34,0-8.52,2.25-8.52,6,0,4.09,3.16,5.23,8.29,5.73,6.13.6,6.6,1.5,6.6,2.7,0,2.1-1.68,3-5.62,3-5,0-6-1.24-6.41-3.71a.55.55,0,0,0-.54-.46H63.49a.54.54,0,0,0-.54.54c0,3.16,1.71,6.91,9.91,6.91C78.79,66.7,82.19,64.36,82.19,60.28Z"/></g></g></svg>