<?xml version="1.0" encoding="utf-8"?>
<!-- Generator: Adobe Illustrator 24.1.3, SVG Export Plug-In . SVG Version: 6.00 Build 0)  -->
<svg version="1.1" id="圖層_1" xmlns="http://www.w3.org/2000/svg" xmlns:xlink="http://www.w3.org/1999/xlink" x="0px" y="0px"
	 viewBox="0 0 113.8 42" style="enable-background:new 0 0 113.8 42;" xml:space="preserve">
<g>
	<g>
		<g>
			<path d="M18.1,34.2c-0.1,0-0.3,0-0.4-0.1L0.5,26C0.2,25.9,0,25.6,0,25.2V8c0-0.3,0.2-0.6,0.4-0.7C0.7,7.1,1,7.1,1.3,7.2l17.3,8.1
				c0.3,0.1,0.5,0.5,0.5,0.8v17.3c0,0.3-0.2,0.6-0.4,0.7C18.5,34.1,18.3,34.2,18.1,34.2z M1.8,24.7l15.5,7.2V16.6L1.8,9.4V24.7z"/>
		</g>
		<g>
			<path d="M18.1,34.1c-0.2,0-0.3,0-0.5-0.1c-0.3-0.2-0.4-0.4-0.4-0.7V16c0-0.3,0.2-0.7,0.5-0.8L35,7.1C35.3,7,35.6,7,35.8,7.2
				c0.3,0.2,0.4,0.4,0.4,0.7v17.3c0,0.3-0.2,0.7-0.5,0.8l-17.3,8.1C18.4,34.1,18.2,34.1,18.1,34.1z M19,16.6v15.3l15.5-7.2V9.3
				L19,16.6z"/>
		</g>
	</g>
	<g>
		<g>
			<path d="M45.2,35.8h1.3v5h3v1.1h-4.3V35.8z"/>
			<path d="M54,37.5c0.3,0.1,0.6,0.4,0.8,0.7c0.2,0.3,0.3,0.6,0.4,0.9c0,0.2,0,0.5,0,0.9h-3.3c0,0.4,0.2,0.8,0.5,0.9
				c0.2,0.1,0.4,0.2,0.6,0.2c0.3,0,0.5-0.1,0.6-0.2c0.1-0.1,0.2-0.2,0.2-0.3h1.2c0,0.3-0.2,0.5-0.4,0.8c-0.4,0.4-1,0.7-1.7,0.7
				c-0.6,0-1.1-0.2-1.6-0.5c-0.5-0.4-0.7-1-0.7-1.8c0-0.8,0.2-1.4,0.6-1.8c0.4-0.4,0.9-0.6,1.6-0.6C53.4,37.3,53.7,37.4,54,37.5z
				 M52.3,38.5c-0.2,0.2-0.3,0.4-0.3,0.7h2c0-0.3-0.1-0.5-0.3-0.7c-0.2-0.2-0.4-0.2-0.7-0.2C52.7,38.2,52.4,38.3,52.3,38.5z"/>
			<path d="M58.4,39.2c0.2,0,0.4-0.1,0.5-0.1c0.2-0.1,0.3-0.2,0.3-0.3c0-0.2-0.1-0.3-0.2-0.4c-0.1-0.1-0.3-0.1-0.6-0.1
				c-0.3,0-0.5,0.1-0.6,0.2c-0.1,0.1-0.1,0.2-0.2,0.4h-1.1c0-0.4,0.1-0.7,0.3-1c0.3-0.4,0.8-0.6,1.6-0.6c0.5,0,0.9,0.1,1.3,0.3
				c0.4,0.2,0.6,0.6,0.6,1.1v2.1c0,0.1,0,0.3,0,0.5c0,0.2,0,0.3,0.1,0.3c0,0.1,0.1,0.1,0.2,0.1v0.2h-1.3c0-0.1-0.1-0.2-0.1-0.3
				s0-0.2,0-0.3c-0.2,0.2-0.3,0.3-0.6,0.4C58.3,41.9,58,42,57.7,42c-0.4,0-0.7-0.1-1-0.3c-0.3-0.2-0.4-0.6-0.4-1
				c0-0.5,0.2-0.9,0.6-1.2c0.2-0.1,0.6-0.2,1-0.3L58.4,39.2z M59.1,39.7c-0.1,0-0.2,0.1-0.2,0.1c-0.1,0-0.2,0.1-0.3,0.1l-0.3,0
				c-0.2,0-0.4,0.1-0.5,0.2c-0.2,0.1-0.3,0.3-0.3,0.5c0,0.2,0.1,0.3,0.2,0.4c0.1,0.1,0.2,0.1,0.4,0.1c0.3,0,0.5-0.1,0.7-0.2
				s0.3-0.4,0.3-0.8V39.7z"/>
			<path d="M64.6,37.3c0,0,0,0,0.1,0v1.2c-0.1,0-0.1,0-0.2,0c-0.1,0-0.1,0-0.1,0c-0.5,0-0.8,0.2-0.9,0.5c-0.1,0.2-0.1,0.4-0.1,0.8
				v2.1h-1.2v-4.5h1.1v0.8c0.2-0.3,0.3-0.5,0.5-0.6C63.9,37.4,64.2,37.3,64.6,37.3C64.6,37.3,64.6,37.3,64.6,37.3z"/>
			<path d="M69.8,37.7c0.3,0.2,0.4,0.6,0.4,1.2v3h-1.2v-2.7c0-0.2,0-0.4-0.1-0.5c-0.1-0.2-0.3-0.3-0.7-0.3c-0.4,0-0.7,0.2-0.8,0.5
				c-0.1,0.2-0.1,0.4-0.1,0.7v2.4h-1.2v-4.5h1.1v0.7c0.1-0.2,0.3-0.4,0.4-0.5c0.2-0.2,0.5-0.3,0.9-0.3
				C69.2,37.3,69.6,37.4,69.8,37.7z"/>
			<path d="M76.1,36.5c0.5-0.5,1.1-0.7,1.9-0.7c1,0,1.7,0.3,2.2,1c0.3,0.4,0.4,0.8,0.4,1.1h-1.3c-0.1-0.3-0.2-0.5-0.3-0.7
				c-0.2-0.3-0.6-0.4-1-0.4c-0.5,0-0.8,0.2-1.1,0.6c-0.3,0.4-0.4,0.9-0.4,1.6s0.1,1.2,0.4,1.5c0.3,0.3,0.6,0.5,1,0.5
				c0.4,0,0.8-0.1,1-0.4c0.1-0.2,0.2-0.4,0.3-0.7h1.3c-0.1,0.7-0.4,1.2-0.8,1.6S78.7,42,78,42c-0.9,0-1.5-0.3-2-0.8
				c-0.5-0.6-0.7-1.3-0.7-2.3C75.2,37.8,75.5,37,76.1,36.5z"/>
			<path d="M86,41.3c-0.4,0.5-1,0.7-1.7,0.7c-0.8,0-1.3-0.2-1.7-0.7c-0.4-0.5-0.6-1-0.6-1.7c0-0.6,0.2-1.2,0.6-1.7
				c0.4-0.5,1-0.7,1.7-0.7c0.8,0,1.3,0.2,1.7,0.7c0.4,0.5,0.6,1,0.6,1.7C86.6,40.3,86.4,40.9,86,41.3z M85.1,40.7
				c0.2-0.2,0.3-0.6,0.3-1s-0.1-0.8-0.3-1c-0.2-0.2-0.4-0.4-0.8-0.4c-0.3,0-0.6,0.1-0.8,0.4c-0.2,0.2-0.3,0.6-0.3,1s0.1,0.8,0.3,1
				c0.2,0.2,0.4,0.4,0.8,0.4C84.7,41,84.9,40.9,85.1,40.7z"/>
			<path d="M91.9,37.7c0.3,0.2,0.4,0.6,0.4,1.2v3h-1.2v-2.7c0-0.2,0-0.4-0.1-0.5c-0.1-0.2-0.3-0.3-0.7-0.3c-0.4,0-0.7,0.2-0.8,0.5
				c-0.1,0.2-0.1,0.4-0.1,0.7v2.4h-1.2v-4.5h1.1v0.7c0.2-0.2,0.3-0.4,0.4-0.5c0.2-0.2,0.5-0.3,0.9-0.3
				C91.2,37.3,91.6,37.4,91.9,37.7z"/>
			<path d="M97.9,37.7c0.3,0.2,0.4,0.6,0.4,1.2v3h-1.2v-2.7c0-0.2,0-0.4-0.1-0.5c-0.1-0.2-0.3-0.3-0.7-0.3c-0.4,0-0.7,0.2-0.8,0.5
				c-0.1,0.2-0.1,0.4-0.1,0.7v2.4h-1.2v-4.5h1.1v0.7c0.1-0.2,0.3-0.4,0.4-0.5c0.2-0.2,0.5-0.3,0.9-0.3
				C97.2,37.3,97.6,37.4,97.9,37.7z"/>
			<path d="M103.1,37.5c0.3,0.1,0.6,0.4,0.8,0.7c0.2,0.3,0.3,0.6,0.4,0.9c0,0.2,0,0.5,0,0.9h-3.3c0,0.4,0.2,0.8,0.5,0.9
				c0.2,0.1,0.4,0.2,0.6,0.2c0.3,0,0.5-0.1,0.6-0.2c0.1-0.1,0.2-0.2,0.2-0.3h1.2c0,0.3-0.2,0.5-0.4,0.8c-0.4,0.4-1,0.7-1.7,0.7
				c-0.6,0-1.1-0.2-1.6-0.5c-0.5-0.4-0.7-1-0.7-1.8c0-0.8,0.2-1.4,0.6-1.8c0.4-0.4,0.9-0.6,1.6-0.6
				C102.5,37.3,102.8,37.4,103.1,37.5z M101.4,38.5c-0.2,0.2-0.3,0.4-0.3,0.7h2c0-0.3-0.1-0.5-0.3-0.7s-0.4-0.2-0.7-0.2
				C101.8,38.2,101.6,38.3,101.4,38.5z"/>
			<path d="M108.4,39c0-0.2-0.1-0.3-0.2-0.5c-0.1-0.2-0.3-0.3-0.6-0.3c-0.4,0-0.7,0.2-0.8,0.6c-0.1,0.2-0.1,0.5-0.1,0.8
				c0,0.3,0,0.6,0.1,0.8c0.1,0.4,0.4,0.6,0.8,0.6c0.3,0,0.5-0.1,0.6-0.2s0.2-0.3,0.2-0.6h1.2c0,0.4-0.2,0.7-0.4,1
				c-0.4,0.5-0.9,0.8-1.6,0.8c-0.7,0-1.3-0.2-1.6-0.6c-0.3-0.4-0.5-1-0.5-1.7c0-0.8,0.2-1.4,0.6-1.8c0.4-0.4,0.9-0.6,1.6-0.6
				c0.6,0,1,0.1,1.4,0.4c0.4,0.3,0.6,0.7,0.6,1.3H108.4z"/>
			<path d="M110.8,38.3v-0.8h0.6v-1.2h1.2v1.2h0.7v0.8h-0.7v2.4c0,0.2,0,0.3,0.1,0.3c0,0,0.2,0.1,0.4,0.1c0,0,0.1,0,0.1,0
				c0,0,0.1,0,0.1,0v0.9l-0.6,0c-0.6,0-0.9-0.1-1.1-0.3c-0.1-0.1-0.2-0.3-0.2-0.6v-2.8H110.8z"/>
		</g>
		<g>
			<path d="M65.8,23.3h11.9v3.9h-13v1.7c0,1.6-0.2,2.7-0.7,3.3c-0.5,0.6-1.6,0.8-3.3,0.8h-6L54,28.9l4.5,0.2c0.8,0,1.2-0.4,1.2-1.1
				v-0.8H44.6v-3.9h15.1v-0.9c1.7-0.4,3.5-0.8,5.3-1.4H47.5v-3.7h26v3C70.9,21.5,68.3,22.5,65.8,23.3z M44.9,6.1V2.4h13.2
				c-0.3-0.5-0.7-1.2-1.3-2L62.1,0c0.6,1,1,1.8,1.3,2.4h13.8v3.7H44.9z M48.7,15.9V7.5h24.8v8.4H48.7z M68.8,10.7H53.5v2h15.3V10.7z
				"/>
			<path d="M92.3,7.8H80.6V4h4c-0.4-1.2-0.9-2.4-1.5-3.4l4.6-0.4c0.7,1.3,1.2,2.5,1.5,3.8h3.1V1.2h8.2V0h4.5v1.2h8.8v3H105v1.1h7.4
				v2.5H93.3V5.3h7.2V4.2h-8.2V7.8z M81.6,9.4h9.8v3.7h-9.8V9.4z M81.6,14.7h9.8v3.6h-9.8V14.7z M91.5,33h-3.8v-1.5h-2.1v1.9h-3.8
				V20.2h9.8V33z M87.6,23.8h-2.1V28h2.1V23.8z M113.8,30.2l-1.6,3.2c-2.8-1.1-5.7-2-8.8-2.7l1.2-1.7h-4.8l1.7,1.7
				c-2.7,1.3-5.3,2.2-8,2.7l-2-3.2c1.6-0.1,3.4-0.5,5.6-1.2h-3.8V16.3H112V29h-3.3C111.1,29.4,112.8,29.8,113.8,30.2z M92.6,8.7
				h20.4v6.7H92.6V8.7z M96.3,11.2V13h2.1v-1.8H96.3z M107.8,19.1H97.6V20h10.2V19.1z M97.6,23h10.2v-1H97.6V23z M97.6,26.2h10.2
				v-1.1H97.6V26.2z M101.6,11.2V13h2.2v-1.8H101.6z M109.3,13v-1.8H107V13H109.3z"/>
		</g>
	</g>
</g>
</svg>
