<?xml version="1.0" encoding="utf-8"?>
<!-- Generator: Adobe Illustrator 24.1.3, SVG Export Plug-In . SVG Version: 6.00 Build 0)  -->
<svg version="1.1" id="圖層_1" xmlns="http://www.w3.org/2000/svg" xmlns:xlink="http://www.w3.org/1999/xlink" x="0px" y="0px"
	 viewBox="0 0 505.1 433.1" style="enable-background:new 0 0 505.1 433.1;" xml:space="preserve">
<style type="text/css">
	.st0{clip-path:url(#SVGID_2_);fill:#93D1E7;}
	.st1{clip-path:url(#SVGID_2_);fill:#92CFE7;}
	.st2{clip-path:url(#SVGID_2_);fill:#91CEE7;}
	.st3{clip-path:url(#SVGID_2_);fill:#90CCE6;}
	.st4{clip-path:url(#SVGID_2_);fill:#90CBE6;}
	.st5{clip-path:url(#SVGID_2_);fill:#8FC9E6;}
	.st6{clip-path:url(#SVGID_2_);fill:#8EC7E6;}
	.st7{clip-path:url(#SVGID_2_);fill:#8DC6E6;}
	.st8{clip-path:url(#SVGID_2_);fill:#8CC4E6;}
	.st9{clip-path:url(#SVGID_2_);fill:#8CC3E5;}
	.st10{clip-path:url(#SVGID_2_);fill:#8BC1E5;}
	.st11{clip-path:url(#SVGID_2_);fill:#8AC0E5;}
	.st12{clip-path:url(#SVGID_2_);fill:#89BFE5;}
	.st13{clip-path:url(#SVGID_2_);fill:#88BDE5;}
	.st14{clip-path:url(#SVGID_2_);fill:#88BCE5;}
	.st15{clip-path:url(#SVGID_2_);fill:#87BAE5;}
	.st16{clip-path:url(#SVGID_2_);fill:#86B9E4;}
	.st17{clip-path:url(#SVGID_2_);fill:#85B8E4;}
	.st18{clip-path:url(#SVGID_2_);fill:#85B6E4;}
	.st19{clip-path:url(#SVGID_2_);fill:#84B5E4;}
	.st20{clip-path:url(#SVGID_2_);fill:#83B4E4;}
	.st21{clip-path:url(#SVGID_2_);fill:#83B2E4;}
	.st22{clip-path:url(#SVGID_2_);fill:#82B1E4;}
	.st23{clip-path:url(#SVGID_2_);fill:#81B0E3;}
	.st24{clip-path:url(#SVGID_2_);fill:#81AFE3;}
	.st25{clip-path:url(#SVGID_2_);fill:#80ADE3;}
	.st26{clip-path:url(#SVGID_2_);fill:#7FACE3;}
	.st27{clip-path:url(#SVGID_2_);fill:#7FABE3;}
	.st28{clip-path:url(#SVGID_2_);fill:#7EAAE3;}
	.st29{clip-path:url(#SVGID_2_);fill:#7EA9E3;}
	.st30{clip-path:url(#SVGID_2_);fill:#7DA8E2;}
	.st31{clip-path:url(#SVGID_2_);fill:#7CA6E2;}
	.st32{clip-path:url(#SVGID_2_);fill:#7CA5E2;}
	.st33{clip-path:url(#SVGID_2_);fill:#7BA4E2;}
	.st34{clip-path:url(#SVGID_2_);fill:#7BA3E2;}
	.st35{clip-path:url(#SVGID_2_);fill:#7AA2E2;}
	.st36{clip-path:url(#SVGID_2_);fill:#7AA1E2;}
	.st37{clip-path:url(#SVGID_2_);fill:#79A0E2;}
	.st38{clip-path:url(#SVGID_2_);fill:#799FE2;}
	.st39{clip-path:url(#SVGID_2_);fill:#789EE1;}
	.st40{clip-path:url(#SVGID_2_);fill:#779DE1;}
	.st41{clip-path:url(#SVGID_2_);fill:#779CE1;}
	.st42{clip-path:url(#SVGID_2_);fill:#769BE1;}
	.st43{clip-path:url(#SVGID_2_);fill:#769AE1;}
	.st44{clip-path:url(#SVGID_2_);fill:#7699E1;}
	.st45{clip-path:url(#SVGID_2_);fill:#7599E1;}
	.st46{clip-path:url(#SVGID_2_);fill:#7598E1;}
	.st47{clip-path:url(#SVGID_2_);fill:#7497E1;}
	.st48{clip-path:url(#SVGID_2_);fill:#7496E1;}
	.st49{clip-path:url(#SVGID_2_);fill:#7395E0;}
	.st50{clip-path:url(#SVGID_2_);fill:#7394E0;}
	.st51{clip-path:url(#SVGID_2_);fill:#7294E0;}
	.st52{clip-path:url(#SVGID_2_);fill:#7293E0;}
	.st53{clip-path:url(#SVGID_2_);fill:#7292E0;}
	.st54{clip-path:url(#SVGID_2_);fill:#7192E0;}
	.st55{clip-path:url(#SVGID_2_);fill:#7191E0;}
	.st56{fill:#FFFFFF;}
	.st57{clip-path:url(#SVGID_4_);fill:#93D1E7;}
	.st58{clip-path:url(#SVGID_4_);fill:#92CFE7;}
	.st59{clip-path:url(#SVGID_4_);fill:#91CEE7;}
	.st60{clip-path:url(#SVGID_4_);fill:#90CCE6;}
	.st61{clip-path:url(#SVGID_4_);fill:#90CBE6;}
	.st62{clip-path:url(#SVGID_4_);fill:#8FC9E6;}
	.st63{clip-path:url(#SVGID_4_);fill:#8EC7E6;}
	.st64{clip-path:url(#SVGID_4_);fill:#8DC6E6;}
	.st65{clip-path:url(#SVGID_4_);fill:#8CC4E6;}
	.st66{clip-path:url(#SVGID_4_);fill:#8CC3E5;}
	.st67{clip-path:url(#SVGID_4_);fill:#8BC1E5;}
	.st68{clip-path:url(#SVGID_4_);fill:#8AC0E5;}
	.st69{clip-path:url(#SVGID_4_);fill:#89BFE5;}
	.st70{clip-path:url(#SVGID_4_);fill:#88BDE5;}
	.st71{clip-path:url(#SVGID_4_);fill:#88BCE5;}
	.st72{clip-path:url(#SVGID_4_);fill:#87BAE5;}
	.st73{clip-path:url(#SVGID_4_);fill:#86B9E4;}
	.st74{clip-path:url(#SVGID_4_);fill:#85B8E4;}
	.st75{clip-path:url(#SVGID_4_);fill:#85B6E4;}
	.st76{clip-path:url(#SVGID_4_);fill:#84B5E4;}
	.st77{clip-path:url(#SVGID_4_);fill:#83B4E4;}
	.st78{clip-path:url(#SVGID_4_);fill:#83B2E4;}
	.st79{clip-path:url(#SVGID_4_);fill:#82B1E4;}
	.st80{clip-path:url(#SVGID_4_);fill:#81B0E3;}
	.st81{clip-path:url(#SVGID_4_);fill:#81AFE3;}
	.st82{clip-path:url(#SVGID_4_);fill:#80ADE3;}
	.st83{clip-path:url(#SVGID_4_);fill:#7FACE3;}
	.st84{clip-path:url(#SVGID_4_);fill:#7FABE3;}
	.st85{clip-path:url(#SVGID_4_);fill:#7EAAE3;}
	.st86{clip-path:url(#SVGID_4_);fill:#7EA9E3;}
	.st87{clip-path:url(#SVGID_4_);fill:#7DA8E2;}
	.st88{clip-path:url(#SVGID_4_);fill:#7CA6E2;}
	.st89{clip-path:url(#SVGID_4_);fill:#7CA5E2;}
	.st90{clip-path:url(#SVGID_4_);fill:#7BA4E2;}
	.st91{clip-path:url(#SVGID_4_);fill:#7BA3E2;}
	.st92{clip-path:url(#SVGID_4_);fill:#7AA2E2;}
	.st93{clip-path:url(#SVGID_4_);fill:#7AA1E2;}
	.st94{clip-path:url(#SVGID_4_);fill:#79A0E2;}
	.st95{clip-path:url(#SVGID_4_);fill:#799FE2;}
	.st96{clip-path:url(#SVGID_4_);fill:#789EE1;}
	.st97{clip-path:url(#SVGID_4_);fill:#779DE1;}
	.st98{clip-path:url(#SVGID_4_);fill:#779CE1;}
	.st99{clip-path:url(#SVGID_4_);fill:#769BE1;}
	.st100{clip-path:url(#SVGID_4_);fill:#769AE1;}
	.st101{clip-path:url(#SVGID_4_);fill:#7699E1;}
	.st102{clip-path:url(#SVGID_4_);fill:#7599E1;}
	.st103{clip-path:url(#SVGID_4_);fill:#7598E1;}
	.st104{clip-path:url(#SVGID_4_);fill:#7497E1;}
	.st105{clip-path:url(#SVGID_4_);fill:#7496E1;}
	.st106{clip-path:url(#SVGID_4_);fill:#7395E0;}
	.st107{clip-path:url(#SVGID_4_);fill:#7394E0;}
	.st108{clip-path:url(#SVGID_4_);fill:#7294E0;}
	.st109{clip-path:url(#SVGID_4_);fill:#7293E0;}
	.st110{clip-path:url(#SVGID_4_);fill:#7292E0;}
	.st111{clip-path:url(#SVGID_4_);fill:#7192E0;}
	.st112{clip-path:url(#SVGID_4_);fill:#7191E0;}
	.st113{fill:#3A7F8D;}
	.st114{enable-background:new    ;}
	.st115{clip-path:url(#SVGID_6_);}
	.st116{fill:#F9F9F9;}
</style>
<g>
	<g>
		<g>
			<g>
				<defs>
					<polygon id="SVGID_1_" points="505.1,287.3 251.1,433.1 0,163.3 118.9,90 505.1,220.3 					"/>
				</defs>
				<clipPath id="SVGID_2_">
					<use xlink:href="#SVGID_1_"  style="overflow:visible;"/>
				</clipPath>
				<polygon class="st0" points="395.3,433.1 505.1,273.3 505.1,433.1 				"/>
				<polygon class="st0" points="386.3,433.1 505.1,260.2 505.1,273.3 395.3,433.1 				"/>
				<polygon class="st1" points="377.3,433.1 505.1,247.1 505.1,260.2 386.3,433.1 				"/>
				<polygon class="st2" points="368.3,433.1 505.1,234 505.1,247.1 377.3,433.1 				"/>
				<polygon class="st3" points="359.3,433.1 505.1,220.9 505.1,234 368.3,433.1 				"/>
				<polygon class="st4" points="350.3,433.1 500.4,214.7 505.1,217.9 505.1,220.9 359.3,433.1 				"/>
				<polygon class="st5" points="341.3,433.1 494.3,210.5 500.4,214.7 350.3,433.1 				"/>
				<polygon class="st6" points="332.3,433.1 488.2,206.3 494.3,210.5 341.3,433.1 				"/>
				<polygon class="st7" points="323.3,433.1 482.1,202.1 488.2,206.3 332.3,433.1 				"/>
				<polygon class="st8" points="314.3,433.1 476,197.9 482.1,202.1 323.3,433.1 				"/>
				<polygon class="st9" points="305.3,433.1 469.9,193.7 476,197.9 314.3,433.1 				"/>
				<polygon class="st10" points="296.3,433.1 463.8,189.5 469.9,193.7 305.3,433.1 				"/>
				<polygon class="st11" points="287.4,433.1 457.6,185.3 463.8,189.5 296.3,433.1 				"/>
				<polygon class="st12" points="278.4,433.1 451.5,181.1 457.6,185.3 287.4,433.1 				"/>
				<polygon class="st13" points="269.4,433.1 445.4,176.9 451.5,181.1 278.4,433.1 				"/>
				<polygon class="st14" points="260.4,433.1 439.3,172.7 445.4,176.9 269.4,433.1 				"/>
				<polygon class="st15" points="251.4,433.1 433.2,168.5 439.3,172.7 260.4,433.1 				"/>
				<polygon class="st16" points="247.6,433.1 244,430.7 427.1,164.3 433.2,168.5 251.4,433.1 				"/>
				
					<rect x="170.9" y="291.7" transform="matrix(0.5664 -0.8242 0.8242 0.5664 -99.2445 402.1329)" class="st17" width="323.2" height="7.4"/>
				
					<rect x="164.8" y="287.5" transform="matrix(0.5664 -0.8242 0.8242 0.5664 -98.4336 395.2774)" class="st18" width="323.2" height="7.4"/>
				
					<rect x="158.7" y="283.3" transform="matrix(0.5664 -0.8242 0.8242 0.5664 -97.6228 388.4219)" class="st19" width="323.2" height="7.4"/>
				
					<rect x="152.6" y="279.1" transform="matrix(0.5664 -0.8242 0.8242 0.5664 -96.8119 381.5664)" class="st20" width="323.2" height="7.4"/>
				
					<rect x="146.5" y="274.9" transform="matrix(0.5664 -0.8242 0.8242 0.5664 -96.0011 374.711)" class="st21" width="323.2" height="7.4"/>
				
					<rect x="140.4" y="270.7" transform="matrix(0.5664 -0.8242 0.8242 0.5664 -95.1902 367.8555)" class="st22" width="323.2" height="7.4"/>
				
					<rect x="134.3" y="266.5" transform="matrix(0.5664 -0.8242 0.8242 0.5664 -94.3794 361)" class="st23" width="323.2" height="7.4"/>
				
					<rect x="128.1" y="262.3" transform="matrix(0.5664 -0.8242 0.8242 0.5664 -93.5685 354.1445)" class="st24" width="323.2" height="7.4"/>
				
					<rect x="122" y="258.1" transform="matrix(0.5664 -0.8242 0.8242 0.5664 -92.7577 347.289)" class="st25" width="323.2" height="7.4"/>
				
					<rect x="115.9" y="253.9" transform="matrix(0.5664 -0.8242 0.8242 0.5664 -91.9468 340.4335)" class="st26" width="323.2" height="7.4"/>
				
					<rect x="109.8" y="249.7" transform="matrix(0.5664 -0.8242 0.8242 0.5664 -91.136 333.578)" class="st27" width="323.2" height="7.4"/>
				
					<rect x="103.7" y="245.5" transform="matrix(0.5664 -0.8242 0.8242 0.5664 -90.3251 326.7225)" class="st28" width="323.2" height="7.4"/>
				
					<rect x="97.6" y="241.3" transform="matrix(0.5664 -0.8242 0.8242 0.5664 -89.5142 319.867)" class="st29" width="323.2" height="7.4"/>
				
					<rect x="91.5" y="237.1" transform="matrix(0.5664 -0.8242 0.8242 0.5664 -88.7034 313.0115)" class="st30" width="323.2" height="7.4"/>
				
					<rect x="85.4" y="232.9" transform="matrix(0.5664 -0.8242 0.8242 0.5664 -87.8925 306.156)" class="st31" width="323.2" height="7.4"/>
				
					<rect x="79.3" y="228.7" transform="matrix(0.5664 -0.8242 0.8242 0.5664 -87.0817 299.3005)" class="st32" width="323.2" height="7.4"/>
				
					<rect x="73.2" y="224.5" transform="matrix(0.5664 -0.8242 0.8242 0.5664 -86.2708 292.445)" class="st33" width="323.2" height="7.4"/>
				<polygon class="st34" points="140.2,359.3 134.1,355.1 316.2,90 319,90 323.2,92.9 				"/>
				<polygon class="st35" points="134.1,355.1 128,350.9 307.2,90 316.2,90 				"/>
				<polygon class="st36" points="128,350.9 121.9,346.7 298.2,90 307.2,90 				"/>
				<polygon class="st37" points="121.9,346.7 115.7,342.5 289.2,90 298.2,90 				"/>
				<polygon class="st38" points="115.7,342.5 109.6,338.3 280.3,90 289.2,90 				"/>
				<polygon class="st39" points="109.6,338.3 103.5,334.1 271.3,90 280.3,90 				"/>
				<polygon class="st39" points="103.5,334.1 97.4,329.9 262.3,90 271.3,90 				"/>
				<polygon class="st40" points="97.4,329.9 91.3,325.7 253.3,90 262.3,90 				"/>
				<polygon class="st41" points="91.3,325.7 85.2,321.5 244.3,90 253.3,90 				"/>
				<polygon class="st42" points="85.2,321.5 79.1,317.3 235.3,90 244.3,90 				"/>
				<polygon class="st43" points="79.1,317.3 73,313.1 226.3,90 235.3,90 				"/>
				<polygon class="st44" points="73,313.1 66.9,308.9 217.3,90 226.3,90 				"/>
				<polygon class="st45" points="66.9,308.9 60.8,304.7 208.3,90 217.3,90 				"/>
				<polygon class="st46" points="60.8,304.7 54.7,300.5 199.3,90 208.3,90 				"/>
				<polygon class="st47" points="54.7,300.5 48.5,296.3 190.3,90 199.3,90 				"/>
				<polygon class="st47" points="48.5,296.3 42.4,292.1 181.3,90 190.3,90 				"/>
				<polygon class="st48" points="42.4,292.1 36.3,287.9 172.3,90 181.3,90 				"/>
				<polygon class="st49" points="36.3,287.9 30.2,283.7 163.3,90 172.3,90 				"/>
				<polygon class="st49" points="30.2,283.7 24.1,279.5 154.3,90 163.3,90 				"/>
				<polygon class="st50" points="24.1,279.5 18,275.3 145.3,90 154.3,90 				"/>
				<polygon class="st51" points="18,275.3 11.9,271.1 136.3,90 145.3,90 				"/>
				<polygon class="st52" points="11.9,271.1 5.8,266.9 127.4,90 136.3,90 				"/>
				<polygon class="st52" points="5.8,266.9 0,263 0,262.3 118.4,90 127.4,90 				"/>
				<polygon class="st53" points="0,249.2 109.4,90 118.4,90 0,262.3 				"/>
				<polygon class="st53" points="0,236.1 100.4,90 109.4,90 0,249.2 				"/>
				<polygon class="st54" points="0,223 91.4,90 100.4,90 0,236.1 				"/>
				<polygon class="st55" points="0,209.9 82.4,90 91.4,90 0,223 				"/>
				<polygon class="st55" points="0,196.8 73.4,90 82.4,90 0,209.9 				"/>
				<polygon class="st55" points="0,183.7 64.4,90 73.4,90 0,196.8 				"/>
				<polygon class="st55" points="0,170.6 55.4,90 64.4,90 0,183.7 				"/>
				<polygon class="st55" points="55.4,90 0,170.6 0,90 				"/>
			</g>
		</g>
		<g>
			<polygon class="st56" points="8.3,102.9 6.9,164.1 254.1,426.2 500.1,280.3 500.1,222.3 			"/>
		</g>
		<g>
			<g>
				<defs>
					<polygon id="SVGID_3_" points="505.1,220.3 258,0 2.5,96.9 259.1,369.3 300.9,340.9 					"/>
				</defs>
				<clipPath id="SVGID_4_">
					<use xlink:href="#SVGID_3_"  style="overflow:visible;"/>
				</clipPath>
				<polygon class="st57" points="350.3,369.3 486.9,126.3 505.1,136.5 505.1,369.3 				"/>
				<polygon class="st57" points="343.8,369.3 481.9,123.5 486.9,126.3 350.3,369.3 				"/>
				<polygon class="st58" points="337.3,369.3 477,120.7 481.9,123.5 343.8,369.3 				"/>
				<polygon class="st59" points="330.9,369.3 472.1,118 477,120.7 337.3,369.3 				"/>
				<polygon class="st60" points="324.4,369.3 467.1,115.2 472.1,118 330.9,369.3 				"/>
				<polygon class="st61" points="317.9,369.3 462.2,112.4 467.1,115.2 324.4,369.3 				"/>
				<polygon class="st62" points="311.4,369.3 457.3,109.6 462.2,112.4 317.9,369.3 				"/>
				<polygon class="st63" points="304.9,369.3 452.3,106.9 457.3,109.6 311.4,369.3 				"/>
				<polygon class="st64" points="298.4,369.3 447.4,104.1 452.3,106.9 304.9,369.3 				"/>
				<polygon class="st65" points="291.9,369.3 442.4,101.3 447.4,104.1 298.4,369.3 				"/>
				<polygon class="st66" points="285.4,369.3 437.5,98.6 442.4,101.3 291.9,369.3 				"/>
				<polygon class="st67" points="278.9,369.3 432.6,95.8 437.5,98.6 285.4,369.3 				"/>
				<polygon class="st68" points="272.4,369.3 427.6,93 432.6,95.8 278.9,369.3 				"/>
				<polygon class="st69" points="265.9,369.3 422.7,90.2 427.6,93 272.4,369.3 				"/>
				<polygon class="st70" points="259.4,369.3 417.8,87.5 422.7,90.2 265.9,369.3 				"/>
				<polygon class="st71" points="255,369.3 253.4,368.4 412.8,84.7 417.8,87.5 259.4,369.3 				"/>
				
					<rect x="167.9" y="222.3" transform="matrix(0.4898 -0.8719 0.8719 0.4898 -27.5974 403.1955)" class="st72" width="325.4" height="5.7"/>
				
					<rect x="163" y="219.6" transform="matrix(0.4898 -0.8719 0.8719 0.4898 -27.6986 397.4778)" class="st73" width="325.4" height="5.7"/>
				
					<rect x="158.1" y="216.8" transform="matrix(0.4898 -0.8719 0.8719 0.4898 -27.7998 391.7602)" class="st74" width="325.4" height="5.7"/>
				
					<rect x="153.1" y="214" transform="matrix(0.4898 -0.8719 0.8719 0.4898 -27.9009 386.0425)" class="st75" width="325.4" height="5.7"/>
				
					<rect x="148.2" y="211.3" transform="matrix(0.4898 -0.8719 0.8719 0.4898 -28.0021 380.3248)" class="st76" width="325.4" height="5.7"/>
				
					<rect x="143.3" y="208.5" transform="matrix(0.4898 -0.8719 0.8719 0.4898 -28.1033 374.6072)" class="st77" width="325.4" height="5.7"/>
				
					<rect x="138.3" y="205.7" transform="matrix(0.4898 -0.8719 0.8719 0.4898 -28.2045 368.8895)" class="st78" width="325.4" height="5.7"/>
				
					<rect x="133.4" y="202.9" transform="matrix(0.4898 -0.8719 0.8719 0.4898 -28.3056 363.1718)" class="st79" width="325.4" height="5.7"/>
				
					<rect x="128.5" y="200.2" transform="matrix(0.4898 -0.8719 0.8719 0.4898 -28.4068 357.4542)" class="st80" width="325.4" height="5.7"/>
				
					<rect x="123.5" y="197.4" transform="matrix(0.4898 -0.8719 0.8719 0.4898 -28.508 351.7365)" class="st81" width="325.4" height="5.7"/>
				
					<rect x="118.6" y="194.6" transform="matrix(0.4898 -0.8719 0.8719 0.4898 -28.6091 346.0189)" class="st82" width="325.4" height="5.7"/>
				
					<rect x="113.7" y="191.8" transform="matrix(0.4898 -0.8719 0.8719 0.4898 -28.7103 340.3012)" class="st83" width="325.4" height="5.7"/>
				
					<rect x="108.7" y="189.1" transform="matrix(0.4898 -0.8719 0.8719 0.4898 -28.8115 334.5835)" class="st84" width="325.4" height="5.7"/>
				
					<rect x="103.8" y="186.3" transform="matrix(0.4898 -0.8719 0.8719 0.4898 -28.9127 328.8659)" class="st85" width="325.4" height="5.7"/>
				
					<rect x="98.9" y="183.5" transform="matrix(0.4898 -0.8719 0.8719 0.4898 -29.0139 323.1482)" class="st86" width="325.4" height="5.7"/>
				
					<rect x="93.9" y="180.8" transform="matrix(0.4898 -0.8719 0.8719 0.4898 -29.115 317.4305)" class="st87" width="325.4" height="5.7"/>
				
					<rect x="89" y="178" transform="matrix(0.4898 -0.8719 0.8719 0.4898 -29.2162 311.7129)" class="st88" width="325.4" height="5.7"/>
				
					<rect x="84" y="175.2" transform="matrix(0.4898 -0.8719 0.8719 0.4898 -29.3174 305.9952)" class="st89" width="325.4" height="5.7"/>
				
					<rect x="79.1" y="172.4" transform="matrix(0.4898 -0.8719 0.8719 0.4898 -29.4186 300.2776)" class="st90" width="325.4" height="5.7"/>
				
					<rect x="74.2" y="169.7" transform="matrix(0.4898 -0.8719 0.8719 0.4898 -29.5197 294.5599)" class="st91" width="325.4" height="5.7"/>
				
					<rect x="69.2" y="166.9" transform="matrix(0.4898 -0.8719 0.8719 0.4898 -29.6209 288.8423)" class="st92" width="325.4" height="5.7"/>
				
					<rect x="64.3" y="164.1" transform="matrix(0.4898 -0.8719 0.8719 0.4898 -29.7221 283.1246)" class="st93" width="325.4" height="5.7"/>
				
					<rect x="59.4" y="161.4" transform="matrix(0.4898 -0.8719 0.8719 0.4898 -29.8233 277.4069)" class="st94" width="325.4" height="5.7"/>
				
					<rect x="54.4" y="158.6" transform="matrix(0.4898 -0.8719 0.8719 0.4898 -29.9244 271.6893)" class="st95" width="325.4" height="5.7"/>
				
					<rect x="49.5" y="155.8" transform="matrix(0.4898 -0.8719 0.8719 0.4898 -30.0256 265.9716)" class="st96" width="325.4" height="5.7"/>
				
					<rect x="44.6" y="153" transform="matrix(0.4898 -0.8719 0.8719 0.4898 -30.1268 260.2539)" class="st96" width="325.4" height="5.7"/>
				
					<rect x="39.6" y="150.3" transform="matrix(0.4898 -0.8719 0.8719 0.4898 -30.228 254.5363)" class="st97" width="325.4" height="5.7"/>
				
					<rect x="34.7" y="147.5" transform="matrix(0.4898 -0.8719 0.8719 0.4898 -30.3292 248.8186)" class="st98" width="325.4" height="5.7"/>
				
					<rect x="29.8" y="144.7" transform="matrix(0.4898 -0.8719 0.8719 0.4898 -30.4303 243.101)" class="st99" width="325.4" height="5.7"/>
				
					<rect x="24.8" y="141.9" transform="matrix(0.4898 -0.8719 0.8719 0.4898 -30.5315 237.3833)" class="st100" width="325.4" height="5.7"/>
				<polygon class="st101" points="105.4,285.3 100.4,282.5 259.1,0 262.1,0 264.8,1.5 				"/>
				<polygon class="st102" points="100.4,282.5 95.5,279.7 252.6,0 259.1,0 				"/>
				<polygon class="st103" points="95.5,279.7 90.6,276.9 246.1,0 252.6,0 				"/>
				<polygon class="st104" points="90.6,276.9 85.6,274.2 239.6,0 246.1,0 				"/>
				<polygon class="st104" points="85.6,274.2 80.7,271.4 233.2,0 239.6,0 				"/>
				<polygon class="st105" points="80.7,271.4 75.8,268.6 226.7,0 233.2,0 				"/>
				<polygon class="st106" points="75.8,268.6 70.8,265.9 220.2,0 226.7,0 				"/>
				<polygon class="st106" points="70.8,265.9 65.9,263.1 213.7,0 220.2,0 				"/>
				<polygon class="st107" points="65.9,263.1 61,260.3 207.2,0 213.7,0 				"/>
				<polygon class="st108" points="61,260.3 56,257.5 200.7,0 207.2,0 				"/>
				<polygon class="st109" points="56,257.5 51.1,254.8 194.2,0 200.7,0 				"/>
				<polygon class="st109" points="51.1,254.8 46.2,252 187.7,0 194.2,0 				"/>
				<polygon class="st110" points="46.2,252 41.2,249.2 181.2,0 187.7,0 				"/>
				<polygon class="st110" points="41.2,249.2 36.3,246.4 174.7,0 181.2,0 				"/>
				<polygon class="st111" points="36.3,246.4 31.3,243.7 168.2,0 174.7,0 				"/>
				<polygon class="st112" points="31.3,243.7 26.4,240.9 161.7,0 168.2,0 				"/>
				<polygon class="st112" points="26.4,240.9 21.5,238.1 155.2,0 161.7,0 				"/>
				<polygon class="st112" points="21.5,238.1 16.5,235.4 148.8,0 155.2,0 				"/>
				<polygon class="st112" points="16.5,235.4 11.6,232.6 142.3,0 148.8,0 				"/>
				<polygon class="st112" points="11.6,232.6 2.5,227.5 2.5,0 142.3,0 				"/>
			</g>
		</g>
		<g>
			
				<rect x="38.7" y="106.5" transform="matrix(0.7071 -0.7071 0.7071 0.7071 -94.5951 71.457)" class="st113" width="0.6" height="86.8"/>
		</g>
		<g>
			
				<rect x="68.2" y="155.7" transform="matrix(0.7071 -0.7071 0.7071 0.7071 -120.7656 106.7265)" class="st113" width="0.6" height="86.8"/>
		</g>
	</g>
	<g>
		<g class="st114">
			<defs>
				<polygon id="SVGID_5_" class="st114" points="165.1,206.8 135.5,184.4 343.7,105 373.2,127.4 				"/>
			</defs>
			<clipPath id="SVGID_6_">
				<use xlink:href="#SVGID_5_"  style="overflow:visible;"/>
			</clipPath>
			<g class="st115">
				<g>
					<path class="st116" d="M164.7,202.6l-9.8-7.5l6-2.3c1.8-0.7,3.3-1.1,4.4-1.1c1.2-0.1,2.4,0.1,3.6,0.5c1.2,0.4,2.4,1,3.5,1.8
						c1.2,0.9,1.9,1.7,2.1,2.5c0.3,0.8,0.1,1.5-0.6,2.1c-0.4,0.4-1.4,0.9-2.8,1.5L164.7,202.6 M151.5,192.6l-8.6-6.6l5.2-2
						c1.9-0.7,3.3-1.1,4.3-1.2c1-0.1,2,0.1,3.2,0.4c1.1,0.3,2.2,0.9,3.2,1.7c1.1,0.8,1.7,1.6,1.9,2.3c0.2,0.7-0.1,1.3-0.7,1.8
						c-0.4,0.4-1.4,0.8-2.9,1.4L151.5,192.6 M145.8,181l-9.8,3.7l28.6,21.7l9.9-3.8c2.3-0.9,3.8-1.8,4.5-2.7
						c0.7-0.9,0.8-2.1,0.3-3.4c-0.5-1.3-1.7-2.6-3.4-3.9c-1.7-1.3-3.6-2.3-5.7-2.8c-2.1-0.6-4.1-0.8-6.1-0.6c0.5-0.9,0.6-1.9,0.2-3
						c-0.4-1-1.3-2.1-2.6-3.1c-1.4-1.1-3.1-1.9-5-2.5c-1.9-0.6-3.7-0.9-5.4-0.9C149.7,179.9,147.8,180.3,145.8,181"/>
				</g>
				<g>
					<path class="st116" d="M197.8,190.7c-2.5,0.9-5.6,1-9.2,0.2c-3.7-0.8-7.3-2.6-10.8-5.2c-4.1-3.1-6.3-5.7-6.5-7.8
						c-0.3-2.1,0.9-3.7,3.5-4.7c1.6-0.6,3.6-0.9,5.8-0.7c2.3,0.1,4.5,0.7,6.6,1.5c2.8,1.1,5.5,2.6,7.9,4.5c3.8,2.9,5.8,5.4,6.1,7.6
						C201.5,188.1,200.3,189.7,197.8,190.7 M171.5,170.6c-3.6,1.4-5.2,3.5-5,6.4c0.2,2.9,2.8,6.2,7.7,9.9c3.9,2.9,8.2,5,13.1,6.3
						c5.4,1.4,10,1.4,13.8-0.1c3.8-1.5,5.4-3.7,4.9-6.9c-0.5-2.8-2.9-5.9-7.1-9.1c-3.1-2.3-6.3-4.1-9.6-5.4c-3.3-1.3-6.5-2-9.6-2.2
						C176.5,169.4,173.8,169.8,171.5,170.6"/>
				</g>
				<g>
					<path class="st116" d="M226.2,179.8c-2.5,0.9-5.5,1-9.2,0.2c-3.7-0.8-7.3-2.6-10.8-5.2c-4.1-3.1-6.3-5.7-6.5-7.8
						c-0.3-2.1,0.9-3.7,3.5-4.7c1.6-0.6,3.6-0.9,5.8-0.7c2.3,0.1,4.5,0.7,6.6,1.5c2.8,1.1,5.5,2.6,7.9,4.5c3.8,2.9,5.9,5.4,6.1,7.6
						C229.9,177.3,228.7,178.9,226.2,179.8 M199.9,159.8c-3.6,1.4-5.2,3.5-5,6.4c0.2,2.9,2.8,6.2,7.7,9.9c3.9,2.9,8.2,5,13.1,6.3
						c5.4,1.4,10,1.4,13.8-0.1c3.8-1.5,5.4-3.7,4.9-6.9c-0.5-2.8-2.9-5.9-7.1-9.1c-3.1-2.3-6.3-4.1-9.6-5.4c-3.3-1.3-6.5-2-9.6-2.2
						C204.9,158.6,202.2,158.9,199.9,159.8"/>
				</g>
				<g>
					<polyline class="st116" points="238.2,145.8 233.5,147.6 234.7,163.3 220.5,152.5 217.1,153.8 245.7,175.5 249.1,174.2 
						239.2,166.7 239,161.6 262.7,169 267.3,167.3 238.8,158.8 238.2,145.8 					"/>
				</g>
				<g>
					<path class="st116" d="M262.4,136c-2.3,0.9-3.8,2.1-4.6,3.7c-0.8,1.6-0.6,3.4,0.5,5.4c1.1,2.1,3.2,4.3,6.4,6.7
						c3.2,2.4,6.5,4.3,9.9,5.7c3.4,1.4,6.5,2.1,9.3,2.3c2.8,0.2,5.4-0.2,7.8-1.2c2.8-1,4.3-2.5,4.6-4.5c0.3-1.9-0.7-4.3-3.2-7
						l-4.4,0.6c2,2,2.9,3.8,2.7,5.2c-0.2,1.4-1.2,2.5-3.1,3.2c-2.5,1-5.6,1-9.1,0.1c-3.5-0.9-7.2-2.8-11.1-5.8
						c-2.6-2-4.4-3.7-5.3-5.3c-0.9-1.6-1.2-2.9-0.7-4c0.5-1.1,1.6-2,3.3-2.6c3.5-1.3,7.8-0.7,12.9,1.9l2.5-2
						c-3.4-1.8-6.8-2.9-10-3.3C267.8,134.7,264.9,135,262.4,136"/>
				</g>
				<g>
					<polyline class="st116" points="281.2,129.4 277.8,130.7 306.4,152.4 322.7,146.2 319.3,143.6 306.4,148.5 281.2,129.4 					
						"/>
				</g>
				<g>
					<path class="st116" d="M318.8,115l-3.4,1.3l16.5,12.5c3.6,2.7,5.5,4.8,5.6,6.2c0.1,1.4-1,2.5-3.5,3.5c-1.5,0.6-3,0.8-4.6,0.7
						c-1.6-0.1-3.2-0.5-4.8-1.2c-1.6-0.7-3.7-2-6.3-4l-16.5-12.5l-3.5,1.3l16.5,12.5c4.7,3.6,8.8,5.7,12.4,6.4
						c3.6,0.7,7.1,0.5,10.5-0.8c2.4-0.9,3.9-2.1,4.5-3.5c0.6-1.4,0.2-2.9-0.9-4.4c-1.2-1.6-3.1-3.4-5.9-5.5L318.8,115"/>
				</g>
				<g>
					<path class="st116" d="M353.1,130.7l-9.8-7.5l6-2.3c1.8-0.7,3.3-1,4.4-1.1c1.2-0.1,2.4,0.1,3.6,0.5c1.2,0.4,2.4,1,3.5,1.8
						c1.2,0.9,1.9,1.7,2.1,2.5c0.3,0.8,0.1,1.5-0.6,2.1c-0.4,0.4-1.4,0.9-2.8,1.5L353.1,130.7 M339.9,120.7l-8.6-6.6l5.2-2
						c1.9-0.7,3.3-1.1,4.3-1.2c1-0.1,2,0.1,3.2,0.4c1.1,0.3,2.2,0.9,3.2,1.7c1.1,0.8,1.7,1.6,1.9,2.3c0.2,0.7-0.1,1.3-0.7,1.8
						c-0.4,0.4-1.4,0.8-2.9,1.4L339.9,120.7 M334.2,109.1l-9.8,3.7l28.6,21.7l9.9-3.8c2.3-0.9,3.8-1.8,4.5-2.7
						c0.7-0.9,0.8-2.1,0.3-3.4c-0.5-1.3-1.6-2.6-3.4-3.9c-1.7-1.3-3.6-2.3-5.7-2.8c-2.1-0.6-4.1-0.8-6.1-0.6c0.5-0.9,0.6-1.9,0.2-3
						c-0.4-1-1.3-2.1-2.6-3.1c-1.4-1.1-3.1-1.9-5-2.5c-1.9-0.6-3.7-0.9-5.4-0.9C338.1,108,336.2,108.4,334.2,109.1"/>
				</g>
			</g>
		</g>
	</g>
</g>
</svg>
