<?xml version="1.0" encoding="utf-8"?>
<!-- Generator: Adobe Illustrator 24.1.3, SVG Export Plug-In . SVG Version: 6.00 Build 0)  -->
<svg version="1.1" id="圖層_1" xmlns="http://www.w3.org/2000/svg" xmlns:xlink="http://www.w3.org/1999/xlink" x="0px" y="0px"
	 viewBox="0 0 690 690" style="enable-background:new 0 0 690 690;" xml:space="preserve">
<g>
	<path d="M446.1,509.8c1.4-0.7,2.7-1.4,4.1-2.1c65.1-33.6,123.1-72.2,164.6-109.4l68.1-43.4c0-0.3-0.1-0.6-0.1-0.9
		c0-0.3-0.1-0.6-0.1-0.9l-61,38.8c0.4-0.4,0.9-0.8,1.3-1.3c29.9-28.2,47.3-53,51.2-72.4c1.6-7.9,0.9-15-2.1-20.9L532.3,26.5
		C524.5,11.3,501.9,4.6,466.9,7C433,9.2,389.4,19.8,340.8,37.5c-4.2,1.5-7.8,4.4-10.3,8c-0.9,1.3-1.7,2.7-2.2,4.2
		c-1.6,4-1.9,8.4-0.9,12.5c-0.5,0.9-0.9,1.7-1.3,2.7c-2.2,5.7-1.9,12.1,0.9,17.5l8.7,16.9c-1.3-0.3-2.6-0.4-4-0.4
		c-9.5-0.1-25,10.5-30.9,14.5c-5.9,4-4.4,6.1-2.4,8.2c1,1,2.7,4.1,4.3,7.1l-0.6,0.2c-0.2,0.1-0.4,0.2-0.5,0.4
		c-0.1,0.2-0.1,0.4-0.1,0.6l2.6,7.5c-0.3,0.1-0.7,0.3-1,0.5c-2.5,1.7,0.1,7.5,1.4,9.9c1.6,3.1,4.9,3.7,5,3.8c0,0,0,0,0,0
		c0.1,0.1,0.4,0.5,0.8,1.4l-4.3,22.7c-6.7,1.7-11.7,3.6-16,5.5c-8.4,3.7-14.8,7.5-26.5,14.4c-16.1,9.5-27.3,17.6-35.6,23.6
		c-11.7,8.5-17.6,12.7-23.3,10.9c-2.4-0.8-4.6-2.6-6.4-5.4c-5-7.8-7.7-23.3-8-46.1c3.6-6.3,2.2-20.2-1.5-26.6
		c-3.9-6.7-17.4-25.7-17.5-25.9c-0.1-0.2-0.3-0.3-0.5-0.3c-0.2,0-0.4,0-0.6,0.2c-6.4,5,0.8,17.9,2.7,21c-3.8,2.6-6,5.5-6.5,8.7
		c-0.5,3.3,0.9,5.9,1.6,6.9c-1.7,3.8-2.1,7.1-0.9,9.7c1.1,2.5,3.4,3.9,5.4,4.7c-8.8,12.1-18.9,31.1-18.9,54.6c0,2.3,0.1,4.6,0.3,6.8
		c0.1,0.8,0.2,1.7,0.2,2.7l-30.5-59.1c-2.9-5.7-8.2-9.7-14.5-11.1c-6.2-1.3-12.7,0.2-17.7,4.1c-30.5,24.3-54.2,48.1-68.3,68.6
		c-10.8,15.8-16,29.7-15.4,40.9c-3.2,10.2-3,19.1,0.7,26.3l9.7,18.8c-0.7,1.3-1.4,2.6-2,3.9c-0.2,0.4,0,0.9,0.4,1.1
		c0.1,0.1,0.2,0.1,0.4,0.1c0.3,0,0.6-0.2,0.7-0.5c0.5-0.9,0.9-1.9,1.4-2.9l36.5,70.7c-0.1-0.1-0.3-0.2-0.4-0.2
		c-3.3-0.5-6.5-1.1-9.5-1.8c-0.4-0.1-0.9,0.2-1,0.6c-0.1,0.4,0.2,0.9,0.6,1c3,0.7,6.3,1.3,9.7,1.8c0,0,0.1,0,0.1,0
		c0.4,0,0.7-0.3,0.8-0.7c0-0.1,0-0.1,0-0.2L148,581.8c0.1,0.3,0.4,0.4,0.7,0.4c0.1,0,0.3,0,0.4-0.1c0.4-0.2,0.6-0.7,0.4-1.1
		c-2.8-5.5-3.5-12.1-2-19.7l2.7,5.3c6.4,12.4,22.3,19.1,47.3,19.9c0.2,0.2,0.3,0.5,0.5,0.7l-7.1,11.3l8.7,8.6l11.2-7.2
		c2.3,1.6,4.8,3,7.4,4.2l-0.5,13.3l11.8,3.1l6.1-11.8c2.8,0.2,5.6,0.2,8.5-0.1l6.3,11.8l11.8-3.2l-0.6-13.3c2.6-1.2,5.1-2.7,7.4-4.3
		l11.3,7.1l8.6-8.7l-7.2-11.2c1.6-2.3,3-4.8,4.2-7.4l13.3,0.5l2.9-11.1c13.2-3.9,26.9-8.5,40.9-13.6c1.7-0.6,3.4-1.5,4.9-2.5
		c8.2,12.4,16.9,24.6,23.1,33c1.2,1.6,2.9,2.5,4.8,2.5c0.4,0,0.9,0,1.3-0.1c2.3-0.5,4.1-2.2,4.6-4.6c1.3-6.2,1.7-13.3,1.7-20.4
		c9.7,18.4,20.5,38,32.3,58.8c0.7,1.3,7.7-2.6,16.1-8l3.3,5.2l-0.6-0.2c-0.3-0.1-0.7,0-0.9,0.2c-6.6,7.1-9.1,19.9-9.2,20.4
		c0,0.2,0,0.5,0.2,0.6c10.1,13.3,22.2,22.9,34.3,29.7c12,6.8,24.1,11,34.1,13.5c0.9,0.2,1.7,0.3,2.6,0.3c3.1,0,6-1.4,7.9-3.9
		c2.5-3.2,2.9-7.4,1.1-11c-2.2-4.3-4.9-8.7-7.8-13c-14-21-33.4-40.6-33.6-40.8c-0.1-0.1-0.2-0.2-0.4-0.2c-0.9-0.2-1.7-0.4-2.5-0.5
		c-3.2-4.7-6.4-9.3-9.2-13.4c6.3-4.5,10.9-7.8,10.9-7.8s-13-15.3-35.8-74.9c2.8-0.2,5.6-0.8,8.2-2.2c3.3-1.6,6.6-3.3,9.9-5
		c-0.8,3.9-0.2,8.1,2.1,11.7l76.3,119.7c0.2-0.1,0.5-0.3,0.7-0.4c0.2-0.1,0.5-0.3,0.7-0.4l-76.3-119.8
		C445.3,517.9,444.9,513.6,446.1,509.8z M449.4,506.2c-0.8,0.4-1.6,0.8-2.4,1.2c1.1-2.2,2.8-4.1,5-5.5L605.7,404
		C565,439,510.4,474.8,449.4,506.2z M461.9,616.1c1.9,1.9,19.9,20.4,33.1,40.2c2.9,4.4,5.6,8.8,7.9,13.1c1.6,3,1.2,6.5-0.9,9.2
		c-2.1,2.7-5.5,3.8-8.8,3c-9.5-2.4-20.9-6.3-32.3-12.6c-12.4-6.8-24.8-16.3-35-29.8c0.4-2.1,3-12.7,8.4-18.9l2.1,0.8l1.3,0.5
		l1.3,0.5l7.3,2.7c0.2,0.1,0.5,0.1,0.7,0c0.2-0.1,0.4-0.3,0.4-0.5c0,0,1.1-4.8,5.1-7.2c1.9-1.2,4.2-1.6,6.8-1.4
		c0.4,0,0.7,0.1,1.1,0.1c0.4,0.1,0.7,0.1,1.1,0.2C461.5,616,461.7,616,461.9,616.1z M451.5,615.6c-3.5,2.1-5,5.7-5.6,7.3l-8.5-3.1
		l-4.5-7c5.5-3.6,11.5-7.7,16.5-11.2c2.5,3.7,5.4,7.9,8.5,12.3C455.5,613.9,453.3,614.5,451.5,615.6z M406.9,506.7
		c-0.1,0.1-0.2,0.1-0.4,0.1c-0.3,0-0.6-0.2-0.7-0.4l-27.3-53c0.1,0.3,0.4,0.4,0.7,0.4c0.1,0,0.3,0,0.4-0.1c0.4-0.2,0.6-0.7,0.3-1.1
		l27.3,53C407.4,506,407.3,506.5,406.9,506.7z M379.9,583c-0.4,1.7-1.6,2.9-3.3,3.3c-1.7,0.4-3.4-0.3-4.5-1.7
		c-6.1-8.4-14.8-20.6-23.1-33c1.2-1,2.4-2.2,3.4-3.5l19.9,28.7c0.2,0.2,0.4,0.3,0.7,0.3c0.2,0,0.3,0,0.5-0.1
		c0.4-0.3,0.5-0.8,0.2-1.1l-20.3-29.2c0.8-1.2,1.5-2.5,2-3.9c2.2-5.7,1.9-12.1-0.9-17.5l-10.2-19.7c2.6-1.3,5.4-2.4,8.2-3
		c0.3,0.6,0.6,1.2,0.9,1.8c0.1,0.2,0.2,0.5,0.4,0.7c0.1,0.2,0.2,0.5,0.4,0.7c2.4,4.9,4.8,9.9,7.4,15c0.7,1.4,1.4,2.9,2.1,4.3
		c0.7,1.4,1.5,2.9,2.2,4.4c4.9,9.6,10.1,19.7,15.6,30.1C381.7,567.7,381.4,576,379.9,583z M145.3,573L19.7,329.6
		c0.7-1.3,1.4-2.6,2.2-3.9c0.2-0.4,0.1-0.9-0.3-1.1c-0.4-0.2-0.9-0.1-1.1,0.3c-0.6,1-1.1,2-1.7,3l-9.2-17.8
		c-3.1-6-3.6-13.1-1.6-21.3c0.1-0.6,0.3-1.3,0.5-1.9c0.2-0.7,0.4-1.4,0.6-2.1c7.9-24.7,36-57.6,80.9-93.3c4.6-3.7,10.5-5.1,16.3-3.8
		c5.8,1.2,10.7,5,13.4,10.2l49.6,96.1c-34.6,10.8-65.8,17.5-91.6,19.5c-19,1.5-34.3,0.3-45.6-3.3c0.2-0.2,0.3-0.4,0.5-0.7
		c0.3-0.4,0.2-0.9-0.2-1.1c-0.4-0.3-0.9-0.2-1.1,0.2c-0.3,0.4-0.5,0.7-0.8,1.1c-9-3.2-15.3-8.1-18.7-14.6c-0.2-0.4-0.7-0.5-1.1-0.4
		c0,0,0,0,0,0c-0.4,0.2-0.6,0.7-0.4,1.1L65.8,403c-0.4,0-0.8-0.1-1.2-0.1c-0.5,0-0.8,0.3-0.9,0.8c0,0.4,0.3,0.8,0.8,0.9
		c0.7,0.1,1.5,0.1,2.2,0.1l79.6,154.4C145.1,564.1,144.7,568.7,145.3,573z M108.6,172.5c5.8,1.2,10.7,5,13.4,10.2l32.5,63
		c1,6.4,3,14.2,8.1,21.1c1.8,2.5,3.9,4.7,6.3,6.8l9.1,17.6c-2.3,0.8-4.7,1.5-7,2.3l-49.7-96.4c-2.9-5.7-8.2-9.7-14.5-11.1
		c-6.2-1.3-12.7,0.2-17.7,4.1c-30.5,24.3-54.2,48.1-68.3,68.6c-5.1,7.5-9,14.5-11.6,21c2.2-25.4,31.6-62.6,83.1-103.5
		C96.8,172.6,102.8,171.2,108.6,172.5z M155.3,238.3c-0.2-1.8-0.3-3.7-0.3-5.6c0.1,0,0.2,0.1,0.3,0.1c0.2,0,0.3,0.1,0.5,0.1
		c0.1,0,0.3,0.1,0.4,0.1c0.2,0,0.3,0.1,0.5,0.1c0.1,0,0.3,0.1,0.5,0.1c0.2,0,0.3,0.1,0.5,0.1c0.2,0,0.3,0.1,0.5,0.1
		c0.2,0,0.4,0.1,0.5,0.1c0.2,0,0.3,0.1,0.5,0.1c0.2,0,0.4,0.1,0.6,0.1c0.2,0,0.3,0.1,0.5,0.1c0.2,0,0.4,0.1,0.6,0.1
		c0.1,0,0.3,0.1,0.4,0.1c0.2,0,0.5,0.1,0.8,0.1c0.1,0,0.2,0,0.4,0.1c0.4,0.1,0.8,0.1,1.1,0.2c0.1,0,0.2,0,0.3,0
		c0.3,0,0.6,0.1,0.9,0.1c0.2,0,0.3,0,0.5,0c0.2,0,0.5,0,0.7,0.1c0.2,0,0.3,0,0.5,0c0.2,0,0.5,0,0.7,0.1c0.2,0,0.4,0,0.6,0
		c0.2,0,0.5,0,0.7,0c0.2,0,0.4,0,0.6,0c0.2,0,0.5,0,0.7,0c0.2,0,0.4,0,0.6,0c0.1,0,0.2,0,0.3,0c0.2,0,0.4,0,0.6,0c0.1,0,0.1,0,0.2,0
		c0.4,0,0.8,0,1.2,0c0.1,0,0.2,0,0.3,0c0.4,0,0.8,0,1.2-0.1c0.1,0,0.2,0,0.2,0c0.4,0,0.8-0.1,1.2-0.1c0,0,0.1,0,0.1,0
		c0.4,0,0.8-0.1,1.2-0.1c0.1,0,0.2,0,0.3,0c0.4-0.1,0.8-0.1,1.2-0.2c0.1,0,0.2,0,0.3,0c0.4-0.1,0.8-0.1,1.2-0.2c0,0,0.1,0,0.1,0
		c0.4-0.1,0.8-0.2,1.2-0.3c0.1,0,0.2,0,0.3-0.1c0.4-0.1,0.8-0.2,1.2-0.3c0.1,0,0.2-0.1,0.3-0.1c0.4-0.1,0.8-0.2,1.3-0.4
		c0,0,0.1,0,0.1,0c0.4-0.1,0.8-0.2,1.2-0.4c0.1,0,0.2-0.1,0.3-0.1c0.4-0.1,0.8-0.3,1.2-0.4c0.1,0,0.2-0.1,0.3-0.1
		c0.4-0.2,0.8-0.3,1.3-0.5c0.1,0,0.1,0,0.2-0.1c0.4-0.2,0.8-0.3,1.2-0.5c0.1,0,0.2-0.1,0.2-0.1c0.4-0.2,0.8-0.4,1.3-0.6
		c0.1,0,0.2-0.1,0.3-0.1c0.4-0.2,0.8-0.4,1.3-0.7c0.1,0,0.1-0.1,0.2-0.1c0.4-0.2,0.8-0.5,1.2-0.7c0.1,0,0.1-0.1,0.2-0.1
		c0.4-0.3,0.8-0.5,1.3-0.8c0.1-0.1,0.2-0.1,0.3-0.2c0.4-0.3,0.8-0.6,1.3-0.9c0,0,0,0,0.1,0c1.9,2.7,4.2,4.5,6.8,5.4
		c6.4,2.1,12.5-2.3,24.7-11.1c8.2-5.9,19.4-14,35.4-23.5c11.7-6.9,18.1-10.7,26.3-14.3c4.1-1.8,8.8-3.6,15-5.3l-0.1,0.5
		c-7.5,2.4-15,5.5-22.5,9.7c-7.2,4-11.6,12.1-11.2,20.5c1.4,29.9,5.6,102.8,13.2,132.2c0.5,2,1.9,3.7,3.8,4.6
		c0.8,0.4,1.6,0.6,2.5,0.7c2.5,10.7,8.8,34.1,23.4,71.4c-7.1-2.2-14.1-5.1-20.6-8.8L247.6,318c1.7-19.5,8-34.6,10.2-39.2
		c0.1-0.3,0.1-0.6-0.1-0.9c-0.2-0.2-0.4-0.3-0.6-0.3c-0.1,0-0.2,0-0.3,0c-9.8,3.3-19.3,5.6-28.4,6.8c-5.7-4.7-13.7-6.2-21-3.5
		c-3.1,1.2-6.3,2.3-9.4,3.4c-11.2-1.8-20.7-5.7-27.8-11.7c-0.6-0.5-1.1-1-1.7-1.5c-0.7-0.6-1.3-1.3-1.9-1.9c-1-1-1.9-2.1-2.7-3.3
		c-3.5-4.8-5.5-10.1-6.7-15c-0.3-1-0.5-2.1-0.7-3.1c-0.2-0.9-0.3-1.8-0.4-2.6C155.7,242.6,155.4,240.2,155.3,238.3z M169,164l2,2
		c0.7,0.7,1.6,1.1,2.5,1.1c0.8,0,1.6-0.3,2.2-0.8c0.3-0.3,0.4-0.8,0.1-1.1c-0.3-0.3-0.8-0.4-1.1-0.1c-0.7,0.6-1.8,0.5-2.5-0.1
		l-2.8-2.9c-0.1-0.2-2-2.6-1.5-6c0.5-2.9,2.6-5.6,6.4-8.1c0.2-0.1,0.3-0.3,0.4-0.5c0-0.2,0-0.4-0.1-0.6c-0.1-0.1-8.8-13.7-4.1-19
		c2.5,3.6,13.5,19.2,16.9,25.1c3.8,6.5,4.6,19.9,1.4,25.1c-0.1,0.1-0.1,0.3-0.1,0.4c0.3,22.6,2.9,38.3,7.9,46.5c0,0,0,0,0,0
		c0,0,0,0,0,0c-0.4,0.3-0.9,0.6-1.3,0.9c0,0-0.1,0.1-0.1,0.1c-0.4,0.3-0.9,0.6-1.3,0.8c-0.1,0-0.1,0.1-0.2,0.1
		c-0.4,0.3-0.8,0.5-1.3,0.7c-0.1,0-0.1,0.1-0.2,0.1c-0.4,0.2-0.8,0.5-1.3,0.7c-0.1,0-0.1,0.1-0.2,0.1c-0.4,0.2-0.9,0.4-1.3,0.6
		c-0.1,0-0.1,0.1-0.2,0.1c-0.4,0.2-0.9,0.4-1.3,0.6c-0.1,0-0.1,0-0.2,0.1c-0.4,0.2-0.9,0.3-1.3,0.5c-0.1,0-0.1,0-0.2,0.1
		c-0.4,0.2-0.9,0.3-1.3,0.5c0,0-0.1,0-0.1,0c-0.4,0.1-0.9,0.3-1.3,0.4c0,0-0.1,0-0.1,0c-0.5,0.1-0.9,0.3-1.4,0.4c0,0,0,0-0.1,0
		c-0.5,0.1-0.9,0.2-1.4,0.3c0,0,0,0,0,0c-1.1,0.2-2.1,0.4-3.2,0.6c-0.4,0-0.7,0.1-1,0.1c0,0,0,0,0,0c-0.4,0.1-0.9,0.1-1.3,0.1
		c0,0,0,0-0.1,0c-0.4,0-0.9,0.1-1.3,0.1c0,0-0.1,0-0.1,0c-0.4,0-0.8,0-1.3,0.1c0,0-0.1,0-0.1,0c-0.4,0-0.8,0-1.2,0c0,0-0.1,0-0.1,0
		c-0.4,0-0.8,0-1.2,0c0,0-0.1,0-0.1,0c-0.4,0-0.8,0-1.2,0c0,0-0.1,0-0.1,0c-0.4,0-0.8,0-1.2-0.1c0,0-0.1,0-0.1,0
		c-0.4,0-0.8-0.1-1.1-0.1c0,0-0.1,0-0.1,0c-0.4,0-0.7-0.1-1.1-0.1c0,0-0.1,0-0.1,0c-0.4,0-0.7-0.1-1.1-0.1c0,0-0.1,0-0.1,0
		c-0.4,0-0.7-0.1-1.1-0.2c0,0,0,0-0.1,0c-0.4-0.1-0.7-0.1-1.1-0.2c0,0,0,0,0,0c-0.7-0.1-1.4-0.3-2.1-0.4c0,0,0,0,0,0
		c-0.3-0.1-0.6-0.1-1-0.2c0,0,0,0-0.1,0c-0.3-0.1-0.6-0.1-0.9-0.2c0,0-0.1,0-0.1,0c-0.3-0.1-0.6-0.1-0.8-0.2c0,0-0.1,0-0.1,0
		c-0.3-0.1-0.5-0.1-0.8-0.2c0,0,0,0-0.1,0c0,0,0,0,0,0c0.1-23.3,10.5-42.1,19.2-53.9c0.2-0.2,0.2-0.5,0.1-0.7
		c-0.1-0.3-0.3-0.4-0.5-0.5c-1.9-0.6-4.4-1.8-5.4-4.2C167.5,169.6,167.7,167,169,164z M307.7,175.3l4.2-22.2c0-0.2,0-0.3,0-0.5
		c-0.9-2-1.5-2.5-1.9-2.6c-0.1,0-0.2-0.1-0.4-0.1c-0.5-0.1-2.7-0.8-3.8-2.9c-2.1-4.2-2.7-7.3-1.9-7.8c0.2-0.1,0.4-0.3,0.7-0.4
		c0.1,0.1,0.2,0.3,0.3,0.3c0.2,0.1,13.8,8.1,31.7,8.1c1.4,0,2.7,0,4.1-0.1c0.7,3.6-0.1,7.2-5.9,10.1c-14.8,6.2-19.7-3.7-19.9-4.2
		c-0.2-0.4-0.7-0.6-1.1-0.4c-0.4,0.2-0.6,0.7-0.4,1.1c0,0.1,3.4,7.1,12.5,7.1c2.4,0,5.3-0.5,8.6-1.8l2.3,12.1l0.2,0.8l0,0l0.1,0.8
		l0,0l0.1,0.8l0.4,2.1c0.1,0.3,0.3,0.6,0.7,0.7l8,1.2l-7,5.4c-5.8,4.4-13.3,6.4-20.5,5.5l-20.8-2.8l7.9-3.3c0.3-0.1,0.4-0.3,0.5-0.6
		l0.5-2.6l0.2-0.9l0.2-0.9l0.1-0.4l0.2-0.9L307.7,175.3z M303.5,130.2l6-1.6l0.8-0.2l0.8-0.2l8.5-2.3l5.6-1.5l5.3-1.4l2.9-0.8
		l0.8-0.2l9.6-2.6c0,0,0,0,0,0c0.7-0.2,1.5-0.2,2.2,0c0.4,0.1,0.8,0.2,1.1,0.4c0.1,0.1,0.3,0.2,0.4,0.2c0.4,0.3,0.8,0.6,1.1,0.9
		c0.5,0.6,0.9,1.3,1.1,2.2l0,0l0.3,2.3l0.3,2.3l1.3,11c0,0,0,0.1,0,0.1c0.3,1.3,0.1,2.7-0.7,3.8c-0.7,1.1-1.9,1.9-3.2,2.2
		c-1.9,0.4-3.8,0.7-5.6,0.8c-0.3,0-0.5,0.1-0.8,0.1c-0.3,0-0.6,0-0.8,0.1c-13.3,0.9-24.7-3.1-30.6-5.7c-2-0.9-3.3-1.6-3.9-1.9
		l-0.1-0.2l-0.3-0.8l-2.3-6.8L303.5,130.2z M327.5,65.5c0.1-0.3,0.3-0.6,0.4-1c0.2-0.4,0.3-0.7,0.5-1c0.2-0.3,0.4-0.7,0.6-1
		c2.3-3.7,5.7-6.7,9.9-8.2c0.1,0,0.2-0.1,0.3-0.1c100-36.5,174.4-41.1,189.5-11.9l3.7,7.1c-4.7,18.6-21.8,42.2-50.2,69.1
		c-12.1,11.4-25.9,23.1-41,34.6c-8.4,6.4-17.2,12.8-26.4,19.2c-7.3-0.5-16.1-1.1-27.2-1.4c-1.1,0-2.2-0.1-3.2-0.1
		c-0.3,0-0.6,0-0.9,0c-0.3,0-0.6,0-0.9,0c-2.8-0.1-5.6-0.1-8.3-0.2l-22.4-43.5l-0.5-4.3c0,0,0-0.1,0-0.1c-0.4-1.7-1.4-3.2-2.9-4.1
		c-0.4-0.3-0.8-0.5-1.3-0.6l-3.5-6.7c0.4-0.6,0.8-1.2,1.2-1.8c2.2-3.3-1.1-7.6-7.1-9.4l-9.4-18.2C325.8,76.7,325.5,70.8,327.5,65.5z
		 M329.7,50.4c0.5-1.3,1.1-2.5,1.9-3.7c2.3-3.5,5.7-6.2,9.7-7.7c100-36.5,174.4-41.1,189.5-11.9l0,0c2.9,5.6,3.5,12.2,2,19.8
		l-2.8-5.4c-3.1-5.9-8.4-10.6-15.9-13.9c3-0.7,5.9-1.5,8.8-2.2c0.4-0.1,0.7-0.5,0.6-1c-0.1-0.4-0.5-0.7-1-0.6
		c-3.1,0.7-6.3,1.5-9.5,2.3c-0.3,0.1-0.6,0.4-0.6,0.7c-11.5-4.6-27.6-6.3-47.8-4.9c-33.9,2.3-77.5,12.9-126.1,30.6
		c-0.3,0.1-0.6,0.2-0.9,0.4c-3.7,1.5-6.8,4.1-9.1,7.2C328.1,57,328.5,53.6,329.7,50.4z M666.5,290.1c-3.1-2.9-7.1-5.3-11.9-7.2
		L534,49.2c1.2-5,1.5-9.6,1-13.9L666.5,290.1z M639,289.6c-0.4-0.2-0.9,0-1.1,0.4c-0.5,1.3-1.1,2.5-1.8,3.8
		c-8.5-1.3-18.3-1.6-29.3-1c3.8-4.7,7.2-9.3,10.2-13.8c0.2-0.3,0.4-0.5,0.5-0.8c0.2-0.3,0.3-0.5,0.5-0.8c3.3-5.1,6-10.1,8-14.8
		c0,0,0-0.1,0-0.1c0.2-0.4,0-0.9-0.4-1.1c-0.4-0.2-0.8,0-1,0.4c0,0,0,0,0,0c-2.1,4.9-5,10.2-8.5,15.6c-0.2,0.3-0.4,0.5-0.5,0.8
		c-0.2,0.3-0.4,0.6-0.6,0.8c-3,4.5-6.5,9.1-10.4,13.9c-13.2,0.9-28,3-44.2,6.4c6-5.5,11.7-10.9,16.8-16.3c0.3-0.3,0.6-0.6,0.9-1
		c0.3-0.3,0.6-0.7,1-1c9.9-10.4,18-20.4,24.2-29.8c3.9-5.9,7-11.6,9.4-17c0.2-0.4,0-0.9-0.4-1.1c-0.4-0.2-0.9,0-1.1,0.4
		c-2.3,5.3-5.5,11-9.4,16.9c-6.4,9.7-15,20.1-25.6,30.9c-0.3,0.3-0.7,0.7-1,1c-0.3,0.3-0.6,0.7-1,1c-5.3,5.4-11,10.9-17.3,16.5
		c-24.8,5.4-52.7,13.8-82.9,25c-0.2-1.5-0.4-3-0.7-4.4c-0.5-2.2-1.6-4.6-3.4-7.7c-0.2-0.3-0.3-0.5-0.5-0.8c-0.2-0.3-0.3-0.5-0.5-0.8
		c-2-3.2-4.7-7.1-8.2-11.9c17.8-12,34.3-24.1,49.2-36.1c0.3-0.3,0.4-0.8,0.1-1.1c-0.3-0.3-0.8-0.4-1.1-0.1
		c-15,12.1-31.4,24.2-49.2,36.1c-1.9-2.6-4-5.5-6.3-8.7c-3.6-5-7.3-9.9-11.1-14.7c7.7-5.1,15.2-10.3,22.5-15.4
		c0.4-0.3,0.5-0.8,0.2-1.1c-0.3-0.4-0.8-0.5-1.1-0.2c-7.3,5.2-14.8,10.4-22.6,15.5c-3.8-4.9-7.8-9.7-11.7-14.5
		c-0.8-1-1.6-1.9-2.4-2.9c-0.8-0.9-1.5-1.8-2.3-2.7c-0.7-0.9-1.5-1.7-2.2-2.6c0.2-0.1,0.4-0.3,0.7-0.4c0.2-0.1,0.5-0.3,0.7-0.4
		c0.2-0.1,0.5-0.3,0.7-0.4c3.3-2.2,6.6-4.4,9.9-6.5c16.3-3.5,37-11.5,56-29c2.6-2.4,5.1-5,7.6-7.6c0,0,0,0,0,0
		c2.2-2.4,4.1-4.8,6-7.2c5.8-7.6,10.3-15.2,13.7-22.5c20.2-19.8,34.6-38.5,41.7-54.8c0.2-0.4,0-0.9-0.4-1.1c-0.4-0.2-0.9,0-1.1,0.4
		c-6.6,15.3-19.9,32.8-38.4,51.3c3.1-7.4,5.2-14.2,6.5-19.9c7.5-3.4,19.3-16.2,22.8-20.1c0.5-0.6,0.8-1.3,0.8-2
		c0-1.1-0.6-2.1-1.6-2.7c-1-0.5-2.1-0.5-3.1,0.1l-2.6,1.6l6.5-11.7c0.5-0.9,0.6-2.1,0.1-3c-0.5-1-1.5-1.7-2.6-1.9
		c-1.1-0.1-2.3,0.3-3,1.2l-7.4,9.1l5.4-13.7c0.7-1.7,0.2-3.5-1.1-4.7c2.3-3.8,4.2-7.6,5.8-11.2c0.2-0.4,0-0.9-0.4-1.1
		c-0.4-0.2-0.9,0-1.1,0.4c-1.5,3.5-3.4,7.2-5.7,11c-0.9-0.3-1.8-0.3-2.7,0c-1.2,0.4-2.1,1.2-2.6,2.4l-4.4,10.4l1.3-7.8
		c0.2-1.1-0.1-2.3-0.9-3.1c-0.7-0.8-1.7-1.3-2.7-1.3c0,0,0,0,0,0c-1,0-2.8,0.5-3.4,3.5c-0.8,4.2-4.5,19-5.8,24
		c-0.2,0.2-0.3,0.3-0.5,0.5c-0.9-0.6-2.2-1.8-3.7-3.9c-1.4-1.9-2.7-2.8-3.9-2.7c-1.1,0.1-1.6,0.9-1.6,1c0,0.1,0,0.1-0.1,0.2
		c-1.3,4.3,0.3,8.8,2.6,12.6c-7.2,7.5-15.2,15.2-24.1,23c-5.5,2.9-11.2,5.3-16.9,7.3c-1.7,0.6-3.4,1.1-5,1.5c-1.2,0.3-2.5,0.7-3.7,1
		c-11.5,2.8-17.3,2.2-31.3,1c-3.6-0.3-7.7-0.7-12.6-1.1c8.7-6.1,17.1-12.2,25.1-18.4c15-11.5,28.7-23.1,40.8-34.5
		C511,93.5,528,70.2,533.4,51.5l118.9,230.5l0,0.1l0.5,0.9l0.5,1.1l10.9,21.2c-6-5.5-14.9-9.2-26.4-11.1c0.6-1.2,1.1-2.3,1.6-3.4
		C639.6,290.3,639.4,289.8,639,289.6z M473,382c-2.7-3.7-5.5-7.5-8.6-11.2c36.8-23.1,68.7-46.7,93.6-69.2
		c16.2-3.5,31.3-5.8,44.8-6.9c0.1,0,0.2,0,0.3,0c-26,31.1-69.7,67-124,101.3C478.2,391.1,476.1,386.3,473,382z M423.5,248.5
		c-0.2,0.1-0.5,0.3-0.7,0.4c-0.3,0.2-0.7,0.4-1,0.6c-1.2-1.4-2.4-2.8-3.7-4.2c0.9-0.1,1.8-0.1,2.7-0.2c0.3,0,0.6-0.1,0.9-0.1
		c0.3,0,0.6-0.1,0.9-0.1c2.5-0.3,5.2-0.7,8-1.2c-2.1,1.4-4.3,2.8-6.5,4.3C424,248.2,423.8,248.4,423.5,248.5z M391.7,411.2
		c0.1,0.3,0.4,0.4,0.7,0.4c0.1,0,0.3,0,0.4-0.1c1.9-1,3.8-2,5.7-3l3.7,4.1c-3.2,1.4-6.5,2.7-9.8,3.8c-2.1-7.1-4.2-14.4-6.4-22
		l11.4,12.8c-1.8,0.9-3.5,1.9-5.3,2.8C391.6,410.4,391.5,410.8,391.7,411.2z M368.3,430.1c0.2,0.4,0.1,0.9-0.3,1.1
		c-0.1,0.1-0.2,0.1-0.4,0.1c-0.3,0-0.6-0.2-0.7-0.4l-3.5-6.7l-0.4-0.8l-0.4-0.8l-37.8-73.3c-0.2-0.4,0-0.9,0.4-1.1
		c0.4-0.2,0.9-0.1,1.1,0.3l38.1,73.9l0.4,0.8l0.4,0.8L368.3,430.1z M294.2,186.2c0,0.4,0.3,0.7,0.7,0.7l23.8,3.2
		c1.3,0.2,2.6,0.3,3.9,0.3c6.4,0,12.8-2.1,17.9-6l8.5-6.5c0.3-0.2,0.4-0.5,0.3-0.8c-0.1-0.3-0.3-0.6-0.7-0.6l-9.3-1.4l-0.3-1.3
		c7.6-0.4,14.6-0.2,20.6,0.2c9.5,0.7,17.3,8.3,18.6,18c0.2,1.4,0.4,2.8,0.6,4.2c-21.7,13.5-45,26.7-69.2,39.2
		c-5.1,2.6-10.2,5.2-15.3,7.8c-5.2,2.5-9,7-10.8,12.4c-1.8,5.5-1.3,11.3,1.3,16.4l28.2,54.7l3.8,7.4c-9.3,3.7-17.1,7.1-22.6,9.6
		c-1,0.5-2.2,0.6-3.2,0.4c-0.5-0.1-1-0.2-1.4-0.4c-1.5-0.7-2.5-2-2.9-3.6c-7.6-29.3-11.8-102-13.2-131.8c-0.4-7.8,3.7-15.3,10.4-19
		c7.1-4,14.2-7,21.3-9.3l-0.2,1.3l-10.3,4.3C294.3,185.5,294.1,185.8,294.2,186.2z M342.4,147.1c1.8-0.2,3.7-0.5,5.6-0.8
		c1.7-0.4,3.2-1.4,4.2-2.9c1-1.5,1.3-3.3,0.9-5l-0.8-6.7l20.1,38.9c-13.4-0.2-24.5,0.1-33.8,0.6l-2.4-12.7
		C342.4,155.2,343.1,151,342.4,147.1z M469.8,172.3c0,0.2,0.1,0.3,0.1,0.5c0.1,0.2,0.1,0.5,0.2,0.7c0.1,0.2,0.1,0.4,0.2,0.6
		c0.1,0.2,0.1,0.4,0.2,0.7c0.1,0.2,0.1,0.4,0.2,0.6c0.1,0.2,0.1,0.4,0.2,0.6c0,0.1,0.1,0.2,0.1,0.3c0,0.1,0,0.1,0.1,0.2
		c-18,14.6-38.6,29.5-61,44.2c-0.2,0.1-0.5,0.3-0.7,0.4c-0.2,0.1-0.5,0.3-0.7,0.4c-2,1.3-4.1,2.6-6.1,3.9c-0.2,0.1-0.5,0.3-0.7,0.4
		c-0.2,0.1-0.5,0.3-0.7,0.4c-4.2,2.7-8.5,5.3-12.8,8c-3.2-12.9-6-25.9-7.8-37.4c1.4-0.9,2.7-1.7,4.1-2.6c0.2-0.1,0.5-0.3,0.7-0.4
		c0.2-0.1,0.5-0.3,0.7-0.4c2.1-1.3,4.1-2.6,6.1-3.9c0.2-0.1,0.5-0.3,0.7-0.4c0.2-0.1,0.5-0.3,0.7-0.4c7.4-4.8,14.7-9.7,21.7-14.6
		c5.8,0.4,10.5,0.9,14.6,1.2c13.8,1.3,20.1,1.8,31.8-1c1.6-0.4,3.3-0.8,5-1.3c1-0.3,2.1-0.6,3.1-1
		C469.7,172.1,469.8,172.2,469.8,172.3z M515.6,143.6c-0.8-0.9-1.7-2.1-2.5-3.4c1.7-1.8,3.4-3.6,5-5.4c0.1,0.1,0.2,0.1,0.2,0.1
		c0.2,0.1,0.5,0.1,0.7,0s0.3-0.3,0.4-0.5c0-0.1,0.2-0.6,0.4-1.4c2.6-3,5.1-5.9,7.4-8.8c0.1,0.1,0.2,0.2,0.3,0.2
		c0.4,0.1,0.8-0.1,1-0.5l1.2-2.9c3.9-5,7.2-9.8,10.1-14.5c0.6,0.7,0.8,1.7,0.5,2.7l-7.4,18.6c-0.1,0.4,0,0.8,0.3,1
		c0.3,0.2,0.8,0.1,1-0.2l10.7-13.2c0.4-0.5,0.9-0.7,1.5-0.6c0.6,0.1,1.1,0.4,1.3,1c0.2,0.5,0.2,1.1,0,1.5l-8.1,14.5
		c-0.2,0.3-0.1,0.7,0.2,1c0.3,0.3,0.7,0.3,1,0.1l5.3-3.4c0.4-0.3,1-0.3,1.4,0c0.5,0.3,0.7,0.7,0.7,1.2c0,0.3-0.1,0.7-0.4,0.9
		c-2.5,2.8-15.3,16.8-22.6,19.8c-0.2,0.1-0.4,0.3-0.5,0.6c-1.5,6.7-4.1,15-8.2,23.8c-6.1,6-12.8,12.1-20,18.3
		c-2.4,2.1-4.9,4.2-7.5,6.4c-0.2-0.2-0.4-0.3-0.7-0.5c-0.1-0.1-0.3-0.2-0.4-0.3c-0.3-0.2-0.5-0.4-0.8-0.6c-0.1-0.1-0.2-0.2-0.3-0.3
		c-0.3-0.2-0.5-0.4-0.8-0.7c-0.1,0-0.1-0.1-0.2-0.1c-0.7-0.6-1.3-1.2-1.9-1.9c-0.6-0.6-1.2-1.3-1.8-2c0,0,0,0-0.1-0.1
		c-0.2-0.3-0.5-0.6-0.7-0.8c-0.1-0.1-0.1-0.2-0.2-0.3c-0.2-0.3-0.4-0.5-0.6-0.8c-0.1-0.1-0.2-0.2-0.3-0.4c-0.2-0.2-0.3-0.5-0.5-0.7
		c-0.1-0.1-0.2-0.3-0.3-0.4c-0.2-0.2-0.3-0.5-0.5-0.7c-0.1-0.2-0.2-0.3-0.3-0.5c-0.1-0.2-0.3-0.5-0.4-0.7c-0.1-0.2-0.2-0.3-0.3-0.5
		c-0.1-0.2-0.3-0.5-0.4-0.7c-0.1-0.2-0.2-0.4-0.3-0.5c-0.1-0.2-0.3-0.4-0.4-0.7c-0.1-0.2-0.2-0.4-0.3-0.6c-0.1-0.2-0.2-0.4-0.3-0.7
		c-0.1-0.2-0.2-0.4-0.3-0.6c-0.1-0.2-0.2-0.4-0.3-0.7c-0.1-0.2-0.2-0.4-0.3-0.6c-0.1-0.2-0.2-0.4-0.3-0.6c-0.1-0.2-0.2-0.4-0.3-0.6
		c-0.1-0.2-0.2-0.4-0.3-0.6c-0.1-0.2-0.2-0.4-0.3-0.6c-0.1-0.2-0.2-0.4-0.3-0.6c-0.1-0.2-0.2-0.4-0.3-0.6c-0.1-0.2-0.2-0.4-0.2-0.6
		c-0.1-0.2-0.2-0.4-0.3-0.7c-0.1-0.2-0.1-0.4-0.2-0.5c0,0,0,0,0-0.1c-0.1-0.2-0.2-0.4-0.2-0.7c0-0.1-0.1-0.2-0.1-0.3
		c5.2-4.2,10.1-8.4,14.8-12.5c9.7-5.1,19-11.7,27.7-19.7C515.8,144.4,515.9,143.9,515.6,143.6z M512.2,138.8
		c-1.9-3.2-3.2-7.2-2.2-10.8c0,0,0.1-0.1,0.3-0.1c0.2,0,1,0.1,2.4,2c1.6,2.1,2.9,3.4,3.9,4.1C515.2,135.6,513.7,137.2,512.2,138.8z
		 M520.6,129.6c1.6-6.4,4.3-17.4,5-21c0.4-2.1,1.4-2.1,1.8-2.1c0.5,0,1.1,0.2,1.5,0.7c0.4,0.5,0.6,1.2,0.5,1.8l-2.1,12.7
		C525.1,124.2,522.9,126.9,520.6,129.6z M532.3,114.8l3.2-7.6c0.3-0.7,0.9-1.2,1.6-1.5c0.4-0.1,0.9-0.2,1.3-0.1
		C536.6,108.6,534.5,111.7,532.3,114.8z M496.3,206.2c-2.1,2.3-4.4,4.5-6.6,6.6c-17.1,15.8-35.8,23.7-51.1,27.6
		c18.5-12.6,35.5-25.3,50.6-37.9c0,0,0,0,0,0c0.2,0.1,0.4,0.3,0.7,0.4c0.2,0.1,0.4,0.3,0.6,0.4c0.2,0.1,0.5,0.3,0.7,0.4
		c0.2,0.1,0.4,0.2,0.6,0.3c0.2,0.1,0.5,0.3,0.8,0.4c0.2,0.1,0.4,0.2,0.6,0.3c0.3,0.1,0.5,0.3,0.8,0.4c0.2,0.1,0.4,0.2,0.6,0.3
		c0.3,0.1,0.6,0.2,0.8,0.4c0.2,0.1,0.4,0.2,0.6,0.3C496.2,206.2,496.3,206.2,496.3,206.2z M437.7,276.1c-0.2,0.1-0.5,0.3-0.7,0.4
		c-2,1.3-4.1,2.6-6.1,4c-0.2,0.1-0.5,0.3-0.7,0.4c-0.2,0.1-0.5,0.3-0.7,0.4c-7.6,4.9-15.5,9.7-23.5,14.5c-2.4-7.6-5.6-17.7-8.9-28.9
		c6.4-3.9,12.7-7.8,18.9-11.7c0.2-0.1,0.5-0.3,0.7-0.4c0.2-0.1,0.5-0.3,0.7-0.4c1.4-0.9,2.7-1.8,4.1-2.6c2.3,2.7,4.6,5.4,6.9,8.2
		c0.8,1,1.6,1.9,2.4,2.9c0.8,1,1.7,2,2.5,3c2.3,2.8,4.6,5.7,6.8,8.6c-0.6,0.4-1.2,0.8-1.8,1.2C438.2,275.8,438,275.9,437.7,276.1z
		 M383.1,384.8C383.1,384.8,383.1,384.8,383.1,384.8c-0.1,0-0.1,0-0.2,0c-0.4,0-0.7-0.2-0.8-0.6l-6.9-25.3c-0.5-1.7-0.6-3.4-0.6-5.1
		c0.1-3,1.1-6,2.9-8.6l4.2-6.2c0.3-0.4,0.8-0.5,1.1-0.2c0.4,0.3,0.5,0.8,0.2,1.1l-4.2,6.2c-2.5,3.6-3.2,8.1-2.1,12.4l6.9,25.3
		C383.8,384.2,383.6,384.7,383.1,384.8z M386.9,235.2c-19.4,11.8-39.9,23.4-61.3,34.4c-0.4,0.2-0.6,0.7-0.3,1.1
		c0.1,0.3,0.4,0.4,0.7,0.4c0.1,0,0.3,0,0.4-0.1c21.2-11,41.7-22.4,61-34.2c2.5,10.1,5.3,20.1,8,29.4c-17.9,10.8-36.8,21.3-56.4,31.4
		c-0.4,0.2-0.6,0.7-0.4,1.1c0.1,0.3,0.4,0.4,0.7,0.4c0.1,0,0.3,0,0.4-0.1c19.5-10.1,38.3-20.5,56.2-31.3c3.3,11.3,6.4,21.3,8.9,28.9
		c-3.3,2-6.6,3.9-10,5.9c-2.4,1.4-4.8,2.8-7.3,4.2c-0.4,0.2-0.5,0.7-0.3,1.1c0.1,0.3,0.4,0.4,0.7,0.4c0.1,0,0.3,0,0.4-0.1
		c2.6-1.5,5.2-3,7.8-4.5c3.1-1.8,6.1-3.6,9.2-5.4c0.4,1.2,0.8,2.4,1.1,3.5c0.7,2.2,0.4,4.6-0.9,6.5c-0.5,0.7-1.1,1.3-1.7,1.8
		c-1.1,0.8-2.5,1.4-3.9,1.5c-10.3,0.8-21.5,2.9-32.7,5.7c-10.5,2.7-21,6-30.7,9.4c-6.3,2.2-12.4,4.5-17.9,6.7l-3.9-7.6l-28.2-54.7
		c-2.4-4.7-2.9-10.1-1.2-15.2c1.7-5,5.2-9.1,9.9-11.5c5.1-2.5,10.3-5.1,15.4-7.8c24-12.4,47.1-25.5,68.7-38.9
		C380.9,209.4,383.7,222.3,386.9,235.2z M421.8,243.5c-0.3,0-0.6,0.1-0.9,0.1c-0.3,0-0.6,0.1-0.9,0.1c-1.3,0.1-2.5,0.2-3.7,0.3
		c-0.3,0-0.6,0.2-0.7,0.5c-0.1,0.3-0.1,0.6,0.1,0.9c1.5,1.7,3.1,3.5,4.6,5.2c-1.2,0.8-2.5,1.6-3.8,2.4c-0.2,0.1-0.5,0.3-0.7,0.4
		c-0.2,0.1-0.5,0.3-0.7,0.4c-6.1,3.9-12.3,7.7-18.6,11.5c-2.7-9.3-5.5-19.3-8-29.4c4.4-2.7,8.8-5.4,13.1-8.2
		c0.2-0.1,0.5-0.3,0.7-0.4c0.2-0.1,0.5-0.3,0.7-0.4c2.1-1.3,4.1-2.6,6.1-3.9c0.2-0.1,0.5-0.3,0.7-0.4c0.2-0.1,0.5-0.3,0.7-0.4
		c22.4-14.6,42.9-29.4,60.9-44c0.1,0.1,0.1,0.3,0.2,0.4c0.1,0.2,0.2,0.5,0.3,0.7c0.1,0.2,0.1,0.4,0.2,0.5c0.1,0.2,0.2,0.5,0.3,0.7
		c0.1,0.2,0.1,0.4,0.2,0.5c0.1,0.3,0.2,0.5,0.3,0.8c0.1,0.2,0.1,0.3,0.2,0.5c0.1,0.3,0.2,0.5,0.3,0.8c0.1,0.2,0.2,0.3,0.2,0.5
		c0.1,0.3,0.2,0.5,0.4,0.8c0.1,0.2,0.2,0.3,0.2,0.5c0.1,0.3,0.3,0.5,0.4,0.8c0.1,0.1,0.2,0.3,0.2,0.4c0.1,0.3,0.3,0.5,0.4,0.8
		c0.1,0.1,0.1,0.3,0.2,0.4c0.2,0.3,0.3,0.6,0.5,0.9c0.1,0.1,0.1,0.2,0.2,0.3c0.2,0.4,0.4,0.7,0.6,1c0.6,1,1.3,2.1,2,3.1
		c0.1,0.1,0.2,0.2,0.3,0.4c0.2,0.2,0.3,0.5,0.5,0.7c0.1,0.2,0.2,0.3,0.3,0.5c0.2,0.2,0.3,0.4,0.5,0.6c0.1,0.2,0.3,0.3,0.4,0.5
		c0.2,0.2,0.3,0.4,0.5,0.6c0.1,0.2,0.3,0.3,0.4,0.5c0.2,0.2,0.3,0.4,0.5,0.6c0.2,0.2,0.3,0.3,0.5,0.5c0.2,0.2,0.4,0.4,0.5,0.5
		c0.2,0.2,0.3,0.3,0.5,0.5c0.2,0.2,0.4,0.3,0.5,0.5c0.2,0.2,0.4,0.3,0.5,0.5c0.2,0.2,0.4,0.3,0.6,0.5c0.2,0.2,0.4,0.3,0.6,0.5
		c0.2,0.2,0.4,0.3,0.6,0.5c0.2,0.2,0.4,0.3,0.6,0.5c0.1,0.1,0.3,0.2,0.4,0.3c-15.9,13.2-34,26.6-53.7,39.9
		C429.7,242.4,425.5,243.1,421.8,243.5z M497.5,204.9C497.5,204.9,497.5,204.9,497.5,204.9c-0.2,0-0.3-0.1-0.5-0.2
		c-0.3-0.1-0.5-0.2-0.8-0.3c-0.2-0.1-0.4-0.2-0.6-0.3c-0.3-0.1-0.5-0.2-0.8-0.3c-0.2-0.1-0.4-0.2-0.6-0.3c-0.3-0.1-0.5-0.2-0.8-0.4
		c-0.2-0.1-0.4-0.2-0.6-0.3c-0.3-0.1-0.5-0.3-0.8-0.4c-0.2-0.1-0.4-0.2-0.5-0.3c-0.2-0.1-0.5-0.3-0.7-0.4c-0.1-0.1-0.2-0.2-0.4-0.2
		c0,0,0,0,0,0c2.6-2.1,5.1-4.3,7.5-6.4c5.8-5.1,11.4-10.1,16.5-15c-3.1,6-6.9,12.1-11.6,18.2C501.3,200.5,499.5,202.7,497.5,204.9z
		 M472.4,175.3C472.4,175.3,472.4,175.3,472.4,175.3c-0.1-0.2-0.1-0.4-0.2-0.6c-0.1-0.2-0.1-0.4-0.2-0.6c-0.1-0.2-0.1-0.4-0.2-0.7
		c-0.1-0.2-0.1-0.4-0.2-0.5c-0.1-0.2-0.1-0.4-0.2-0.7c-0.1-0.2-0.1-0.4-0.2-0.5c0-0.1,0-0.2-0.1-0.2c0,0,0,0,0,0
		c3.7-1.2,7.3-2.7,10.8-4.3C479,169.9,475.7,172.6,472.4,175.3z M392.8,187.2c-0.2,0.1-0.5,0.3-0.7,0.4c-0.2,0.1-0.5,0.3-0.7,0.4
		c-2,1.3-4.1,2.6-6.1,3.9c-0.2,0.1-0.5,0.3-0.7,0.4c-0.2,0.1-0.5,0.3-0.7,0.4c-1.2,0.8-2.4,1.5-3.6,2.3c-0.2-1.2-0.3-2.3-0.5-3.5
		c-1.3-10.4-9.8-18.6-20.1-19.4c-0.3,0-0.7,0-1-0.1c4.5,0,9.3,0,14.5,0.1c0.3,0,0.6,0,0.9,0c0.3,0,0.6,0,0.9,0
		c2.7,0,5.4,0.1,8.3,0.2c0.3,0,0.6,0,0.9,0c0.3,0,0.6,0,0.9,0c0.8,0,1.5,0,2.3,0.1c10.1,0.4,18.3,0.8,25.1,1.3
		C406.2,178.3,399.6,182.8,392.8,187.2z M406.7,309.2c1.6-2.4,2-5.3,1.1-8c-0.4-1.2-0.8-2.5-1.2-3.8c8.1-4.8,16-9.7,23.7-14.6
		c0.2-0.1,0.5-0.3,0.7-0.4c0.2-0.1,0.5-0.3,0.7-0.4c2.1-1.3,4.1-2.6,6.1-4c0.2-0.1,0.5-0.3,0.7-0.4c0.2-0.1,0.5-0.3,0.7-0.4
		c0.7-0.5,1.4-0.9,2.1-1.4c3.8,4.9,7.5,9.8,11.2,14.8c2.3,3.1,4.4,6,6.3,8.6c-2,1.3-3.9,2.6-5.9,3.9c-0.2,0.1-0.5,0.3-0.7,0.4
		c-0.2,0.1-0.5,0.3-0.7,0.4c-2.1,1.4-4.2,2.7-6.3,4.1c-0.2,0.1-0.5,0.3-0.7,0.4c-0.2,0.1-0.5,0.3-0.7,0.4c-2.8,1.8-5.5,3.5-8.4,5.3
		c-0.4,0.2-0.5,0.7-0.3,1.1c0.2,0.2,0.4,0.4,0.7,0.4c0.1,0,0.3,0,0.4-0.1c2.8-1.7,5.5-3.5,8.2-5.2c0.2-0.1,0.5-0.3,0.7-0.4
		c0.2-0.1,0.5-0.3,0.7-0.4c2.2-1.4,4.4-2.8,6.5-4.2c0.2-0.2,0.5-0.3,0.7-0.5c0.2-0.1,0.5-0.3,0.7-0.4c2-1.3,3.9-2.6,5.9-3.9
		c3.1,4.3,5.6,7.9,7.5,10.9c0.2,0.3,0.4,0.6,0.5,0.9c0.2,0.3,0.3,0.6,0.5,0.8c2,3.3,3.2,5.9,3.7,8c0.3,1.5,0.6,3,0.7,4.5
		c0,0.3,0,0.6,0.1,0.8c0,0.3,0,0.6,0,0.8c0.5,11-3.9,24.1-12.8,37.5c-0.1,0.1-0.1,0.2-0.2,0.3c-18.1-21.2-40.3-41.4-54.9-54
		C405.6,310.7,406.2,310,406.7,309.2z M460.9,366.5c0.2-0.2,0.3-0.5,0.5-0.7c9.2-13.9,13.7-27.5,13-39
		c28.8-10.7,55.9-18.9,80.3-24.4c-24.9,22.1-56.3,45.2-91.3,67.1C462.6,368.5,461.7,367.5,460.9,366.5z M513.8,144
		c-6.5,5.9-13.3,11-20.3,15.2c6.6-6,12.8-12,18.4-17.8C512.5,142.3,513.2,143.2,513.8,144z M448.8,380.4c-0.8,0.5-1.7,1-2.5,1.5
		c-12.5,7.4-25.4,14.8-38.5,21.8c-0.1,0.1-0.3,0.1-0.4,0.1c-0.3,0-0.6-0.2-0.7-0.4c-0.2-0.4-0.1-0.9,0.3-1.1
		c14.7-7.9,29.2-16.2,43.1-24.6c0.7-0.4,1.5-0.9,2.2-1.3c0.5-0.3,1-0.6,1.4-0.9c-0.3,0.2-0.4,0.5-0.4,0.9c0,0.1,0,0.2,0.1,0.2
		c0.2,0.3,0.4,0.4,0.7,0.4c0.1,0,0.3,0,0.4-0.1c-1.1,0.7-2.3,1.4-3.4,2.1C450.5,379.4,449.7,379.9,448.8,380.4z M310.3,125.9
		c0.6,0,1.4,0.1,2.3,0.1l-2.1,0.6C310.5,126.3,310.4,126.1,310.3,125.9z M247.4,321.1l44.3,85.8c-13.2-7.8-24.7-18.7-32.8-33.1
		C248.7,355.7,246.4,337.1,247.4,321.1z M226,284.7c-8.7,1-17,1-24.6,0.1c2.1-0.8,4.3-1.6,6.5-2.4
		C214.1,280.1,220.8,281.1,226,284.7z M217,377.7c0.1,0.3,0.4,0.6,0.8,0.6c0.1,0,0.2,0,0.2,0c1.4-0.4,2.7-0.9,4.1-1.3l20.5,39.7
		c2.8,5.5,2.9,11.8,0.4,17.2c-0.3-0.9-0.7-1.9-1.2-2.8l-70.2-136c2.3-0.7,4.6-1.5,7-2.3l42.7,82.8c-1.3,0.4-2.5,0.8-3.8,1.2
		C217.1,376.8,216.9,377.2,217,377.7z M235,456.2c-46,35.7-75.8,68.8-86,94.5c-0.3,0.9-0.7,1.7-1,2.6c-0.3,0.8-0.5,1.5-0.8,2.3
		c-0.1,0.4-0.2,0.8-0.4,1.2c0,0,0,0,0,0L68.5,404.8c0,0,0,0,0,0c1.9,0.1,3.8,0.2,5.7,0.2c0,0,0,0,0,0c0.4,0,0.8-0.4,0.8-0.8
		c0-0.4-0.3-0.8-0.8-0.8c-2.2,0-4.4-0.1-6.6-0.2c0,0,0,0,0,0l-30-58.1L16,303c3.5,3.3,8.1,5.9,13.6,7.9c-1.4,1.9-2.7,3.8-3.9,5.6
		c-0.2,0.4-0.1,0.9,0.2,1.1c0.1,0.1,0.3,0.1,0.4,0.1c0.3,0,0.5-0.1,0.7-0.4c1.3-2,2.7-4,4.1-6c8.6,2.8,19.3,4.2,31.8,4.2
		c27.7,0,64.4-6.8,107.1-20.2l70.3,136.3c0.7,1.3,1.2,2.7,1.6,4.1c0.1,0.4,0.2,0.7,0.3,1.1c0.1,0.4,0.1,0.8,0.2,1.2
		C243.3,444.8,240.7,451.8,235,456.2z M171.9,276c6.3,4.5,14.1,7.6,23,9.4c-5.2,1.9-10.4,3.6-15.4,5.3L171.9,276z M255.5,279.7
		c-2.5,5.8-7.5,18.9-9.3,35.6l-12.5-24.2c-1-2-2.3-3.7-3.8-5.3C238.2,284.6,246.8,282.6,255.5,279.7z M312,418
		c1.2,0.4,2.4,0.8,3.7,1.1c8.8,22.3,20.6,49.5,36.2,82c-2.8,0.7-5.6,1.8-8.2,3.1l-48-93C300.8,413.8,306.2,416.1,312,418z
		 M330.8,520.9c-1.3-2.7-0.5-5.9,1.8-7.8c2.5-2,6.2-4.6,10.3-6.8l10.2,19.7c2.6,5,2.9,10.9,0.8,16.2c-0.4,1.1-0.9,2.1-1.5,3
		l-7.2-10.4c-1.7-2.5-2.5-5.6-2.2-8.8c0.7-7.2-2.1-14.4-2.2-14.7c-0.2-0.4-0.6-0.6-1.1-0.5c-0.4,0.2-0.6,0.6-0.5,1.1
		c0,0.1,2.8,7.1,2.1,13.9c-0.4,3.6,0.5,7.1,2.4,9.9l7.6,10.9c-1,1.3-2.1,2.5-3.3,3.5C341.4,539.8,335,529.4,330.8,520.9z
		 M392.7,418.1c3.5-1.2,7-2.6,10.5-4.1l5.3,6c-4,2.7-8.2,6-12.4,9.5C395,425.8,393.9,422,392.7,418.1z M405.3,438.3
		c17.4-9,34.5-18.4,50.8-28.1c-0.4,0.2-0.5,0.7-0.3,1.1c0.2,0.3,0.4,0.4,0.7,0.4c0.1,0,0.3,0,0.4-0.1c-16.4,9.7-33.5,19.2-50.9,28.1
		c-0.1,0.1-0.2,0.1-0.4,0.1c-0.3,0-0.6-0.2-0.7-0.4C404.7,439,404.9,438.5,405.3,438.3z M476.1,420.7c3.6-7.2,4.7-15.3,3.4-23
		c55.3-34.9,99.8-71.5,125.9-103.2c11.4-0.7,21.4-0.5,30,0.7c-20.9,40.6-85.8,96-170,145.3C469.7,433.3,473.3,426.5,476.1,420.7z
		 M345,117.6c-0.1,0-0.3,0-0.4,0c0.1-1-0.8-1.7-1.8-1.8c-1.5-0.2-1.4-1.1-0.2-3L345,117.6z M202.5,586.6c-1.4,0-2.8,0-4.2-0.1
		c-0.4,0-0.8-0.4-0.8-0.8c0-0.4,0.4-0.8,0.8-0.8c7.2,0.2,15.2-0.1,23.7-0.9c-6-4.1-10.7-10.2-12.7-17.8c-4.6-16.7,5.3-34,22-38.6
		c16.7-4.6,34,5.3,38.6,22c2.7,9.8,0.4,19.8-5.3,27.3c-15,3.4-29,5.7-41.6,7c0.4,0,0.8,0.3,0.9,0.7c0,0.2,0,0.4-0.1,0.5
		c-0.1,0.2-0.3,0.4-0.6,0.4C215.9,586.2,208.9,586.6,202.5,586.6z M247.9,588.2c-8.3,2.3-16.6,1-23.6-2.9
		c11.8-1.2,24.8-3.4,38.6-6.4C259.1,583.3,253.9,586.6,247.9,588.2z M266.3,578.2c0.4-0.1,0.7-0.5,0.6-1c-0.1-0.4-0.5-0.7-1-0.6
		c10.9-2.5,22.5-5.5,34.3-9c0.4-0.1,0.9,0.1,1,0.5c0.1,0.4-0.1,0.9-0.5,1C288.8,572.7,277.2,575.7,266.3,578.2z M342.4,553.6
		c-14.1,5.2-28.1,9.8-41.4,13.8l-10.5-5.5c0.2-2.8,0.2-5.6-0.1-8.5l11.8-6.3l-3.2-11.8l-13.3,0.6c-1.2-2.6-2.7-5.1-4.3-7.4l7.1-11.3
		l-8.7-8.6l-11.2,7.2c-2.3-1.6-4.8-3-7.4-4.2l0.5-13.3l-11.8-3.1l-6.1,11.8c-2.8-0.2-5.6-0.2-8.5,0.1l-6.3-11.8l-11.8,3.2l0.6,13.3
		c-2.6,1.2-5.1,2.7-7.4,4.3l-11.3-7.1l-8.6,8.7l7.2,11.2c-1.6,2.3-3,4.8-4.2,7.4l-13.3-0.5l-3.1,11.8l11.8,6.1
		c-0.2,2.8-0.2,5.6,0.1,8.5l-11.8,6.3l3.2,11.8l13.3-0.6c0.8,1.7,1.7,3.4,2.7,5c-23.4-0.9-38.8-7.5-44.7-19l0,0
		c-1.6-3.1-2.5-6.4-2.7-10.1c2.6-8.2,7.4-17.3,14.4-27.1c15.2-21.4,40.3-45.9,72.7-71.1c6.6-5.1,9.5-13.6,7.7-21.5
		c3.4-6.1,3.7-13.7,0.3-20.2l-20.3-39.4c1.2-0.4,2.4-0.8,3.7-1.2c0.4-0.1,0.7-0.6,0.5-1c-0.1-0.4-0.6-0.7-1-0.5
		c-1.3,0.4-2.6,0.9-3.9,1.3l-42.7-82.8c5.9-1.9,11.9-4,17.9-6.2c9,1.4,19,1.5,29.6,0.1c1.8,1.6,3.3,3.5,4.5,5.7l13.7,26.5
		c-1.4,16.8,0.6,36.8,11.5,56.3c8.3,14.7,20.4,26.7,35.7,35.2l49.1,95.2c-4.2,2.2-8,4.9-10.6,6.9c-3,2.3-3.9,6.4-2.3,9.8
		c4.2,8.5,10.7,19.1,17.5,29.6C345.5,552.2,344,553,342.4,553.6z M433.5,514.3c-1.6,0.8-3.2,1.3-4.9,1.7c-0.6,0.1-1.1,0.2-1.7,0.3
		c-0.5,0.1-1,0.1-1.5,0.1c-2-5.3-4.1-10.9-6.2-16.9c0.2-0.2,0.4-0.3,0.6-0.5c-1.9-4.7-4-9.9-6.1-15.2c-3.7-9.5-7.4-19.2-9.6-26.4
		c-0.1-0.4,0.1-0.9,0.5-1c0,0,0,0,0,0c0.4-0.1,0.9,0.1,1,0.5c3.4,10.9,10.1,27.9,15.4,40.8c18.1-16.9,32.4-36.8,42.8-54.1
		c42.2-24.5,80.2-50.8,110.5-76.6c30.8-26.2,52.4-50.7,62.9-71.3c15.9,2.5,26.5,8.5,31.3,17.7c0.2,0.4,0.7,0.6,1.1,0.3
		c0.4-0.2,0.6-0.7,0.3-1.1L656.7,287l-1-2c7,3.1,12,7.5,14.9,13.1c2.6,5,3.4,10.8,2.5,17.3c-2.6,19.2-20.2,44.7-51.2,74.1
		c-2.6,2.5-5.3,5-8.1,7.5L451.1,500.6c-3.1,2-5.3,4.8-6.4,8C441,510.5,437.2,512.4,433.5,514.3z"/>
	<path d="M587.3,445c0.4-0.2,0.5-0.7,0.3-1.1c-0.2-0.4-0.7-0.5-1.1-0.3c-29.5,18.5-59.4,37.6-88.3,56.2
		c-12.1,7.8-24.3,15.5-36.4,23.3c-0.4,0.2-0.5,0.7-0.2,1.1c0.2,0.2,0.4,0.4,0.7,0.4c0.1,0,0.3,0,0.4-0.1
		c12.1-7.7,24.2-15.5,36.4-23.3C527.9,482.6,557.8,463.5,587.3,445z"/>
	<path d="M466.5,510c1.8-1.1,2.3-3.5,1.2-5.3c-1.1-1.8-3.5-2.3-5.3-1.2c-1.8,1.1-2.3,3.5-1.2,5.3C462.3,510.6,464.7,511.2,466.5,510
		z"/>
	<path d="M479.5,501.7c1.8-1.1,2.3-3.5,1.2-5.3c-1.1-1.8-3.5-2.3-5.3-1.2c-1.8,1.1-2.3,3.5-1.2,5.3
		C475.4,502.3,477.7,502.9,479.5,501.7z"/>
	<path d="M492.6,493.4c1.8-1.1,2.3-3.5,1.2-5.3c-1.1-1.8-3.5-2.3-5.3-1.2c-1.8,1.1-2.3,3.5-1.2,5.3
		C488.4,494.1,490.8,494.6,492.6,493.4z"/>
	<path d="M537.7,460.9c0.1,0,0.3,0,0.4-0.1c9.3-5.4,18.2-11.3,26.9-17c7.3-4.8,14.9-9.8,22.6-14.5c0.4-0.2,0.5-0.7,0.3-1.1
		c-0.2-0.4-0.7-0.5-1.1-0.3c-7.7,4.6-15.3,9.7-22.6,14.5c-8.6,5.7-17.5,11.6-26.8,17c-0.4,0.2-0.5,0.7-0.3,1.1
		C537.1,460.8,537.4,460.9,537.7,460.9z"/>
	<path d="M501.5,483.9c0.1,0,0.3,0,0.4-0.1l16.2-10.3c0.4-0.2,0.5-0.7,0.3-1.1c-0.2-0.4-0.7-0.5-1.1-0.2l-16.2,10.3
		c-0.4,0.2-0.5,0.7-0.3,1.1C501,483.8,501.3,483.9,501.5,483.9z"/>
	<path d="M567.2,483.3c-0.2,0-0.4,0-0.6,0.1l-83.4,53.1c-0.4,0.2-0.5,0.7-0.2,1.1l7,10.9c-0.1,0-0.2,0-0.3,0c0,0,0,0,0,0l-4.3,0
		c-0.4,0-0.8,0.4-0.8,0.8c0,0.4,0.4,0.8,0.8,0.8c0,0,0,0,0,0l4.3,0c0.4,0,0.8-0.3,0.8-0.7l45.6,71.6c0.1,0.2,0.3,0.3,0.5,0.4
		c0.1,0,0.1,0,0.2,0c0.2,0,0.3,0,0.4-0.1l55.6-35.4c1.5-1.6,2.9-3.1,4.4-4.7L537,619.5l-52.3-82l82-52.3l3.8,6
		c-2.5,1.8-5.1,3.6-7.7,5.4c-0.4,0.3-0.5,0.8-0.2,1.1c0.2,0.2,0.4,0.4,0.7,0.4c0.2,0,0.3,0,0.5-0.1c2.6-1.8,5.1-3.6,7.6-5.4
		l43.2,67.8c0.4-0.5,0.7-0.9,1.1-1.4l-48-75.3C567.6,483.5,567.5,483.4,567.2,483.3z"/>
	<path d="M582.4,474.3l3.6,5.6c-2.3,1.8-4.7,3.5-7.2,5.3c-0.4,0.3-0.4,0.8-0.2,1.1c0.2,0.2,0.4,0.3,0.7,0.3c0.2,0,0.3-0.1,0.5-0.2
		c2.4-1.7,4.8-3.5,7.1-5.2l7.1,11.2l18.2-11.6l-11.6-18.2L582.4,474.3z M587.8,480.6l-0.2,0.1c-0.1,0.1-0.3,0.2-0.5,0.2
		c-0.2,0-0.5-0.1-0.7-0.3c-0.3-0.4-0.2-0.9,0.2-1.1l0.2-0.1c0.4-0.3,0.9-0.2,1.1,0.2C588.3,479.8,588.2,480.3,587.8,480.6z
		 M603.5,467.5c0.3,0.4,0.2,0.9-0.1,1.1c-2.5,2-5.1,4-7.7,6c-0.1,0.1-0.3,0.2-0.5,0.2c-0.2,0-0.5-0.1-0.6-0.3
		c-0.3-0.4-0.2-0.9,0.1-1.1c2.6-2,5.2-4,7.7-6C602.7,467.1,603.2,467.1,603.5,467.5z"/>
	<rect x="607.3" y="499.4" transform="matrix(0.8434 -0.5372 0.5372 0.8434 -177.3425 411.9292)" width="21.6" height="21.6"/>
	<path d="M645.5,505.6l6.3-4c5.8-11.7,10.9-23.5,15.3-35.3l-33.2,21.1L645.5,505.6z"/>
	<path d="M626.7,543.9c2.4-3.5,4.8-7.1,7.1-10.6l-9.8,6.3L626.7,543.9z"/>
	<path d="M181.3,625.1c0-1,0-2-0.1-3.1l6.9-3.7l-1.9-6.9l-7.8,0.4c-0.7-1.5-1.6-3-2.5-4.3l4.1-6.6l-5.1-5l-6.6,4.2
		c-1.4-0.9-2.8-1.8-4.3-2.5l0.3-7.8l-6.9-1.8l-3.6,6.9c-1.6-0.1-3.3-0.1-5,0l-3.7-6.9l-6.9,1.9l0.2,5.2l0.1,2.6
		c-1.5,0.7-3,1.6-4.3,2.5l-6.6-4.1l-5,5.1l4.2,6.6c-0.9,1.4-1.8,2.8-2.5,4.3l-7.8-0.3l-1.8,6.9l6.9,3.6c-0.1,1.6-0.1,3.3,0,5
		L115,631l1.9,6.9l7.8-0.4c0.7,1.5,1.6,3,2.5,4.3l-4.1,6.6l5.1,5l6.6-4.2c1.4,0.9,2.8,1.8,4.3,2.5l-0.3,7.8l6.9,1.8l3.6-6.9
		c1.6,0.1,3.3,0.1,5,0l3.7,6.9l6.9-1.9l-0.4-7.8c1.5-0.7,3-1.6,4.3-2.5l6.6,4.1l5-5.1l-4.2-6.6c0.9-1.4,1.8-2.8,2.5-4.3l7.8,0.3
		l1.8-6.9l-6.9-3.6C181.3,626.4,181.3,625.8,181.3,625.1z M156.4,642.4c-9.8,2.7-19.9-3.1-22.6-12.9c-2.7-9.8,3.1-19.9,12.9-22.6
		c2.2-0.6,4.3-0.8,6.5-0.6c6.4,0.6,12.1,4.5,15,10.4c0.5,1,0.9,2,1.1,3.1C171.9,629.7,166.1,639.8,156.4,642.4z"/>
	<path d="M177.3,155.3c1.7,2.8,2,3.3,0,7.5c-2.5,5.4,2.9,10.1,3.2,10.3c0.2,0.1,0.3,0.2,0.5,0.2c0.2,0,0.5-0.1,0.6-0.3
		c0.3-0.3,0.3-0.9-0.1-1.1c0,0-4.7-4.2-2.7-8.4c2.3-4.9,1.8-6-0.1-9.1l-0.2-0.4c-1-1.7-0.8-3.3-0.4-4.2l7,6.5c0.3,0.3,0.8,0.3,1.2,0
		c0.3-0.3,0.3-0.8,0-1.2l-7.8-7.2c-0.2-0.2-0.4-0.2-0.6-0.2c-0.2,0-0.4,0.2-0.6,0.4c-0.1,0.1-2.2,3.3,0,6.8L177.3,155.3z"/>
	<path d="M430.2,638.8c-0.3,0.3-0.3,0.8,0,1.2c14.3,13.8,26.5,22.1,36.6,27.2c11.8,5.9,20.6,7.2,26,7.2c3.9,0,6-0.7,6.3-0.8
		c0.4-0.1,0.7-0.6,0.5-1c-0.1-0.4-0.6-0.7-1-0.5c-0.2,0.1-10.6,3.2-29.4-5.7c-10.2-4.8-22.9-13.2-37.8-27.6
		C431,638.5,430.5,638.5,430.2,638.8z"/>
	<path d="M472.9,651.7c0.2,0.2,0.4,0.3,0.6,0.3c0.2,0,0.4-0.1,0.5-0.2l10.1-8.6c0.3-0.3,0.4-0.8,0.1-1.1c-0.3-0.3-0.8-0.4-1.1-0.1
		l-10.1,8.6C472.7,650.8,472.6,651.4,472.9,651.7z"/>
	<path d="M466.4,644.5c0.2,0,0.4-0.1,0.5-0.2l11-8.8c0.4-0.3,0.4-0.8,0.1-1.1c-0.3-0.4-0.8-0.4-1.1-0.1l-11,8.8
		c-0.4,0.3-0.4,0.8-0.1,1.1C465.9,644.4,466.2,644.5,466.4,644.5z"/>
	<path d="M324.2,140.3c0.2,0,0.4-0.1,0.6-0.2l7.4-7.4c0.3-0.3,0.3-0.8,0-1.2c-0.3-0.3-0.8-0.3-1.1,0l-7.4,7.4
		c-0.3,0.3-0.3,0.8,0,1.2C323.8,140.2,324,140.3,324.2,140.3z"/>
	<path d="M335.3,138.8c0.2,0,0.4-0.1,0.6-0.2l1.9-1.9l0.6-0.6l0.6-0.6l7.9-7.9c0.3-0.3,0.3-0.8,0-1.2c-0.3-0.3-0.8-0.3-1.2,0
		l-7.3,7.3l-0.6,0.6l-0.6,0.6l-2.5,2.5c-0.3,0.3-0.3,0.8,0,1.2C334.8,138.8,335.1,138.8,335.3,138.8z"/>
	<path d="M573,150.1c0.2-0.4,0-0.9-0.4-1.1c-0.4-0.2-0.9,0-1.1,0.4c-7.6,17.6-24.4,38.6-48.6,61.2c-11.6,10.8-25,22.1-39.8,33.4
		c-0.4,0.3-0.4,0.8-0.2,1.1c0.2,0.2,0.4,0.3,0.6,0.3c0.2,0,0.3-0.1,0.5-0.2c15-11.5,28.5-22.8,40.3-33.8
		C548.5,188.9,565.3,167.8,573,150.1z"/>
	<path d="M585.9,177.2c-0.4-0.2-0.9,0-1.1,0.4c-6.1,14.1-18.1,30.4-35.2,48.1c-7.5,7.8-16.1,15.8-25.6,24.1
		c-0.3,0.3-0.4,0.8-0.1,1.1c0.2,0.2,0.4,0.3,0.6,0.3c0.2,0,0.4-0.1,0.5-0.2c9.7-8.4,18.3-16.6,26-24.5c17-17.7,29-34,35.2-48.2
		C586.5,177.8,586.3,177.3,585.9,177.2z"/>
	<path d="M554.9,502.1c-2.7,1.8-5.4,3.6-8.1,5.4c-0.4,0.2-0.5,0.8-0.2,1.1c0.2,0.2,0.4,0.4,0.7,0.4c0.2,0,0.3,0,0.4-0.1
		c2.7-1.8,5.4-3.6,8.1-5.4c0.4-0.3,0.5-0.8,0.2-1.1C555.7,501.9,555.2,501.8,554.9,502.1z"/>
	<path d="M522.1,523.3c-2.7,1.7-5.5,3.4-8.3,5.1c-0.4,0.2-0.5,0.7-0.3,1.1c0.2,0.3,0.4,0.4,0.7,0.4c0.1,0,0.3,0,0.4-0.1
		c2.8-1.7,5.6-3.4,8.3-5.1c0.4-0.2,0.5-0.7,0.3-1.1C523,523.2,522.5,523.1,522.1,523.3z"/>
	<path d="M538.6,512.9c-2.7,1.8-5.4,3.5-8.2,5.3c-0.4,0.2-0.5,0.7-0.3,1.1c0.2,0.2,0.4,0.4,0.7,0.4c0.1,0,0.3,0,0.4-0.1
		c2.8-1.8,5.5-3.5,8.2-5.3c0.4-0.2,0.5-0.7,0.2-1.1C539.5,512.7,539,512.6,538.6,512.9z"/>
	<path d="M684.3,378.7c-0.1,0-0.2-0.1-0.2-0.1c-0.3-0.1-0.7,0.1-0.9,0.4c-1.3,2.8-2.9,5.6-4.6,8.5c-0.2,0.4-0.1,0.9,0.3,1.1
		c0.1,0.1,0.3,0.1,0.4,0.1c0.3,0,0.5-0.1,0.7-0.4c1.5-2.5,2.8-5,4-7.4c0.2-0.4,0.4-0.9,0.6-1.3C684.9,379.3,684.7,378.9,684.3,378.7
		z"/>
	<path d="M648.5,425.7c-2.2,2.3-4.5,4.6-6.8,6.9c-0.3,0.3-0.3,0.8,0,1.2c0.2,0.2,0.4,0.2,0.6,0.2c0.2,0,0.4-0.1,0.6-0.2
		c2.4-2.3,4.7-4.7,6.9-7c0.3-0.3,0.3-0.8,0-1.1C649.3,425.4,648.8,425.4,648.5,425.7z"/>
	<path d="M661.5,411.2c-2,2.4-4.2,4.9-6.4,7.4c-0.3,0.3-0.3,0.8,0.1,1.1c0.2,0.1,0.3,0.2,0.5,0.2c0.2,0,0.4-0.1,0.6-0.3
		c2.2-2.5,4.4-5,6.4-7.4c0.3-0.3,0.2-0.9-0.1-1.1C662.3,410.8,661.8,410.9,661.5,411.2z"/>
	<path d="M673.3,395.8c-1.8,2.6-3.7,5.2-5.7,7.9c-0.3,0.4-0.2,0.9,0.2,1.1c0.1,0.1,0.3,0.2,0.5,0.2c0.2,0,0.5-0.1,0.6-0.3
		c2.1-2.7,4-5.3,5.8-7.9c0.3-0.4,0.2-0.9-0.2-1.1C674.1,395.3,673.6,395.4,673.3,395.8z"/>
	<path d="M635.8,439.5c-0.3-0.3-0.8-0.3-1.1,0c-1.5,1.4-3.1,2.9-4.7,4.4c-0.1,0.1-0.2,0.2-0.2,0.4c-0.1,0.3,0,0.5,0.2,0.8
		c0.2,0.2,0.4,0.3,0.6,0.3c0.2,0,0.4-0.1,0.6-0.2c-2.4,2.2-4.8,4.4-7.3,6.5c-0.2,0.1-0.3,0.2-0.5,0.2c-0.2,0-0.5-0.1-0.6-0.3
		c-0.3-0.3-0.3-0.9,0.1-1.1c2.2-1.9,4.3-3.8,6.4-5.7l-16,10.2l1.6,2.4c-2,1.7-4,3.3-6,5c-0.3,0.3-0.4,0.8-0.1,1.1
		c0.2,0.2,0.4,0.3,0.6,0.3c0.2,0,0.4-0.1,0.5-0.2c2-1.6,4-3.3,5.9-4.9l9.2,14.4l50.4-32.1c2.7-9.9,4.8-19.8,6.3-29.6L636,440.2
		C636,439.9,636,439.7,635.8,439.5z"/>
	<path d="M39,577.9c-2.1,2.6-4.2,5.2-6.1,7.7c-0.3,0.4-0.2,0.9,0.2,1.1c0.1,0.1,0.3,0.2,0.5,0.2c0.2,0,0.5-0.1,0.6-0.3
		c1.9-2.5,3.9-5.1,6.1-7.6c0.3-0.3,0.2-0.9-0.1-1.1C39.8,577.5,39.3,577.5,39,577.9z"/>
	<path d="M243.1,650.1c-2.7,0.8-5.4,1.6-8,2.4c-0.4,0.1-0.9,0.3-1.3,0.4c-0.4,0.1-0.7,0.6-0.6,1c0.1,0.4,0.4,0.6,0.8,0.6
		c0.1,0,0.2,0,0.2,0c1.1-0.3,2.2-0.6,3.3-1c2-0.6,4.1-1.2,6.1-1.8c0.4-0.1,0.7-0.6,0.5-1C244,650.2,243.6,649.9,243.1,650.1z"/>
	<path d="M33.1,668.5c-3-1.5-5.8-3.2-8.1-5.1c-0.4-0.3-0.9-0.2-1.1,0.1c-0.3,0.4-0.2,0.9,0.1,1.1c2.5,1.9,5.3,3.7,8.4,5.2
		c0.1,0.1,0.2,0.1,0.4,0.1c0.3,0,0.6-0.2,0.7-0.5C33.7,669.2,33.5,668.7,33.1,668.5z"/>
	<path d="M28.3,593.3c-0.4-0.3-0.9-0.2-1.1,0.2c-1.9,2.8-3.7,5.6-5.3,8.3c-0.2,0.4-0.1,0.9,0.3,1.1c0.1,0.1,0.3,0.1,0.4,0.1
		c0.3,0,0.6-0.1,0.7-0.4c1.6-2.7,3.3-5.4,5.2-8.2C28.7,594,28.6,593.5,28.3,593.3z"/>
	<path d="M92.5,526.1c-1.5,1.3-3.1,2.5-4.6,3.8c-0.3,0.3-0.4,0.8-0.1,1.1c0.2,0.2,0.4,0.3,0.6,0.3c0.2,0,0.4-0.1,0.5-0.2
		c1.5-1.3,3-2.5,4.6-3.8c0.3-0.3,0.4-0.8,0.1-1.1C93.4,525.9,92.9,525.9,92.5,526.1z"/>
	<path d="M12.6,629.4c0.1-0.4-0.2-0.9-0.7-0.9c-0.4-0.1-0.9,0.2-0.9,0.7c-0.5,2.7-0.7,5.4-0.7,7.9c0,0.7,0,1.3,0.1,2
		c0,0.4,0.4,0.8,0.8,0.8c0,0,0,0,0,0c0.4,0,0.8-0.4,0.8-0.9c0-0.6,0-1.3,0-1.9C11.9,634.6,12.1,632.1,12.6,629.4z"/>
	<path d="M18.3,610.1c-0.4-0.2-0.9,0-1.1,0.4c-1.5,3.1-2.7,6.2-3.8,9.1c-0.1,0.4,0.1,0.9,0.5,1c0.1,0,0.2,0,0.3,0
		c0.3,0,0.7-0.2,0.8-0.6c1-2.9,2.2-5.9,3.7-8.9C18.9,610.8,18.7,610.3,18.3,610.1z"/>
	<path d="M261.8,644.2c-3.1,1-6.2,2-9.3,3c-0.4,0.1-0.7,0.6-0.5,1c0.1,0.3,0.4,0.6,0.8,0.6c0.1,0,0.2,0,0.2,0c3.1-1,6.2-2,9.3-3
		c0.4-0.1,0.7-0.6,0.5-1C262.7,644.3,262.2,644.1,261.8,644.2z"/>
	<path d="M280.3,638c-3.1,1.1-6.2,2.1-9.2,3.2c-0.4,0.1-0.7,0.6-0.5,1c0.1,0.3,0.4,0.6,0.8,0.6c0.1,0,0.2,0,0.3,0
		c3.1-1,6.2-2.1,9.3-3.2c0.4-0.1,0.7-0.6,0.5-1C281.2,638.1,280.7,637.9,280.3,638z"/>
	<path d="M14.9,651.1c-0.4-0.9-0.8-1.8-1.1-2.8c-0.1-0.4-0.6-0.6-1-0.5c-0.4,0.1-0.6,0.6-0.5,1c0.3,1,0.7,2,1.2,2.9
		c1,2.1,2.1,4,3.5,5.9c0.2,0.2,0.4,0.3,0.7,0.3c0.2,0,0.3-0.1,0.5-0.2c0.4-0.3,0.4-0.8,0.2-1.1C16.9,654.9,15.8,653.1,14.9,651.1z"
		/>
	<path d="M128.9,675.5c-3.3,0.4-6.5,0.8-9.7,1.1c-0.4,0-0.8,0.4-0.7,0.9c0,0.4,0.4,0.7,0.8,0.7c0,0,0.1,0,0.1,0
		c3.2-0.3,6.4-0.7,9.7-1.1c0.4-0.1,0.8-0.5,0.7-0.9C129.8,675.8,129.4,675.5,128.9,675.5z"/>
	<path d="M90,678.3c-3.3,0-6.6,0-9.7-0.1c-0.5,0-0.8,0.3-0.8,0.8c0,0.5,0.3,0.8,0.8,0.8c2.6,0.1,5.2,0.1,7.9,0.1c0.6,0,1.3,0,1.9,0
		c0.4,0,0.8-0.4,0.8-0.8C90.8,678.6,90.5,678.2,90,678.3z"/>
	<path d="M109.5,677.4c-3.3,0.2-6.6,0.4-9.7,0.6c-0.4,0-0.8,0.4-0.8,0.8c0,0.4,0.4,0.8,0.8,0.8c0,0,0,0,0,0c3.2-0.1,6.5-0.3,9.8-0.6
		c0.4,0,0.8-0.4,0.8-0.9C110.3,677.8,110,677.4,109.5,677.4z"/>
	<path d="M167.4,669.3c-3.2,0.6-6.4,1.3-9.6,1.8c-0.4,0.1-0.7,0.5-0.7,0.9c0.1,0.4,0.4,0.7,0.8,0.7c0,0,0.1,0,0.1,0
		c3.2-0.6,6.4-1.2,9.6-1.8c0.4-0.1,0.7-0.5,0.6-1C168.3,669.5,167.9,669.2,167.4,669.3z"/>
	<path d="M148.2,672.8c-3.2,0.5-6.5,1-9.6,1.5c-0.4,0.1-0.8,0.5-0.7,0.9c0.1,0.4,0.4,0.7,0.8,0.7c0,0,0.1,0,0.1,0
		c3.2-0.5,6.4-1,9.7-1.5c0.4-0.1,0.7-0.5,0.7-0.9C149.1,673,148.7,672.7,148.2,672.8z"/>
	<path d="M186.5,665.2c-3.2,0.7-6.4,1.4-9.5,2.1c-0.4,0.1-0.7,0.5-0.6,1c0.1,0.4,0.4,0.6,0.8,0.6c0.1,0,0.1,0,0.2,0
		c3.1-0.7,6.4-1.4,9.6-2.1c0.4-0.1,0.7-0.5,0.6-1C187.4,665.4,187,665.1,186.5,665.2z"/>
	<path d="M224.4,655.6c-3.1,0.9-6.3,1.8-9.4,2.6c-0.4,0.1-0.7,0.6-0.6,1c0.1,0.4,0.4,0.6,0.8,0.6c0.1,0,0.1,0,0.2,0
		c3.1-0.8,6.3-1.7,9.4-2.6c0.4-0.1,0.7-0.6,0.6-1C225.3,655.7,224.8,655.4,224.4,655.6z"/>
	<path d="M205.5,660.6c-3.2,0.8-6.4,1.6-9.5,2.4c-0.4,0.1-0.7,0.5-0.6,1c0.1,0.4,0.4,0.6,0.8,0.6c0.1,0,0.1,0,0.2,0
		c3.1-0.8,6.3-1.6,9.5-2.4c0.4-0.1,0.7-0.6,0.6-1C206.4,660.8,206,660.5,205.5,660.6z"/>
	<path d="M81.5,537.5c0.3-0.3,0.4-0.8,0.1-1.1c-0.3-0.3-0.8-0.4-1.1-0.1c0,0,0,0,0,0c-2.5,2.2-5,4.3-7.3,6.5
		c-0.3,0.3-0.4,0.8-0.1,1.1c0.2,0.2,0.4,0.3,0.6,0.3c0.2,0,0.4-0.1,0.5-0.2C76.6,541.9,79,539.7,81.5,537.5
		C81.5,537.6,81.5,537.6,81.5,537.5z"/>
	<path d="M67.1,550.6c0.3-0.3,0.3-0.8,0-1.1c-0.3-0.3-0.8-0.3-1.2,0c-2.4,2.3-4.8,4.6-7,6.8c-0.3,0.3-0.3,0.8,0,1.2
		c0.2,0.2,0.4,0.2,0.6,0.2c0.2,0,0.4-0.1,0.6-0.2C62.3,555.2,64.7,552.9,67.1,550.6z"/>
	<path d="M52.1,563.2c-2.3,2.4-4.5,4.8-6.7,7.2c-0.3,0.3-0.3,0.8,0.1,1.1c0.2,0.1,0.3,0.2,0.5,0.2c0.2,0,0.4-0.1,0.6-0.3
		c2.1-2.4,4.3-4.8,6.6-7.2c0.3-0.3,0.3-0.8,0-1.2C52.9,562.9,52.4,562.9,52.1,563.2z"/>
	<path d="M70.6,677.6c-3.3-0.3-6.6-0.6-9.7-1.1c-0.4-0.1-0.9,0.2-0.9,0.7c-0.1,0.4,0.2,0.9,0.7,0.9c3.1,0.4,6.4,0.8,9.8,1.1
		c0,0,0,0,0.1,0c0.4,0,0.8-0.3,0.8-0.7C71.3,678,71,677.6,70.6,677.6z"/>
	<path d="M51.4,674.7c-3.3-0.7-6.4-1.6-9.3-2.6c-0.4-0.1-0.9,0.1-1,0.5c-0.1,0.4,0.1,0.9,0.5,1c3,1,6.1,1.9,9.5,2.6
		c0.1,0,0.1,0,0.2,0c0.4,0,0.7-0.3,0.8-0.6C52.1,675.3,51.8,674.8,51.4,674.7z"/>
	<path d="M122.2,87.1c3.3,5.6,8.3,9.3,14,11c4.3,1.2,8.1,4.2,10.3,8.2l1.4,2.4c0.7,1.1,1.8,1.8,2.9,2c-0.1,0.2,0,0.4,0.1,0.6
		l3.3,5.7c1.5,2.6,3.9,4.4,6.7,5.2c0.9,0.2,1.8,0.3,2.7,0.3c1.9,0,3.7-0.5,5.3-1.5c5.1-3,6.8-9.8,3.8-15.1l-3.3-5.7
		c-0.1-0.2-0.3-0.3-0.5-0.4c0,0,0,0-0.1,0c0.4-1.1,0.4-2.5-0.3-3.6l-1.4-2.4c-2.3-3.9-3-8.6-1.9-13c1.5-6,0.7-12.6-2.6-18.4
		c-6.8-11.8-21.6-15.8-32.9-8.6C118.7,60.9,115.4,75.5,122.2,87.1z M171.2,106.7c2.6,4.5,1.1,10.3-3.2,12.9c-2.1,1.2-4.5,1.6-6.8,1
		c-2.4-0.6-4.4-2.2-5.7-4.4l-2.9-5.1l15.7-9.4L171.2,106.7z"/>
	<path d="M121.2,38.5c0.2,0.3,0.4,0.4,0.7,0.4c0.1,0,0.3,0,0.4-0.1c0.4-0.2,0.5-0.7,0.3-1.1l-12-20.9c-0.2-0.4-0.7-0.5-1.1-0.3
		c-0.4,0.2-0.5,0.7-0.3,1.1L121.2,38.5z"/>
	<path d="M109.2,99.3L82,114.9c-0.4,0.2-0.5,0.7-0.3,1.1c0.2,0.3,0.4,0.4,0.7,0.4c0.1,0,0.3,0,0.4-0.1l27.2-15.6
		c0.4-0.2,0.5-0.7,0.3-1.1C110.1,99.2,109.6,99.1,109.2,99.3z"/>
	<path d="M179.8,61.4c0.1,0,0.3,0,0.4-0.1l28.2-15.7c0.4-0.2,0.5-0.7,0.3-1.1c-0.2-0.4-0.7-0.5-1.1-0.3l-28.2,15.7
		c-0.4,0.2-0.5,0.7-0.3,1.1C179.2,61.3,179.5,61.4,179.8,61.4z"/>
	<path d="M75,61.3l26.5,7.5c0.1,0,0.1,0,0.2,0c0.4,0,0.7-0.2,0.8-0.6c0.1-0.4-0.1-0.9-0.6-1l-26.5-7.5c-0.4-0.1-0.9,0.1-1,0.6
		C74.3,60.7,74.6,61.1,75,61.3z"/>
	<path d="M156.9,38.8c0.1,0,0.1,0,0.2,0c0.4,0,0.7-0.2,0.8-0.6l2.8-10.3l4.9-17.7c0.1-0.4-0.1-0.9-0.6-1c-0.4-0.1-0.9,0.1-1,0.6
		L158.7,29l-2.4,8.7C156.2,38.2,156.4,38.7,156.9,38.8z"/>
	<path d="M677.4,52.4c0,0.4,0.4,0.8,0.8,0.8c0,0,0,0,0,0c0.4,0,0.8-0.4,0.8-0.8c-0.1-3.5-0.7-6.8-1.6-9.8c-0.1-0.4-0.6-0.7-1-0.5
		c-0.4,0.1-0.7,0.6-0.5,1C676.8,45.9,677.3,49.1,677.4,52.4z"/>
	<path d="M590.2,14.5C590.3,14.5,590.3,14.5,590.2,14.5c3.4-0.2,6.6-0.4,9.8-0.6c0.5,0,0.8-0.4,0.8-0.8c0-0.4-0.4-0.8-0.8-0.8
		c-3.2,0.1-6.5,0.3-9.8,0.6c-0.4,0-0.8,0.4-0.8,0.9C589.5,14.1,589.8,14.5,590.2,14.5z"/>
	<path d="M648.1,18.8c3.2,1,6.2,2.3,8.9,3.6c0.1,0.1,0.2,0.1,0.4,0.1c0.3,0,0.6-0.2,0.7-0.4c0.2-0.4,0-0.9-0.4-1.1
		c-2.8-1.4-5.9-2.6-9.2-3.7c-0.4-0.1-0.9,0.1-1,0.5C647.5,18.2,647.7,18.7,648.1,18.8z"/>
	<path d="M674.9,72.3c0.1,0,0.2,0,0.3,0c0.3,0,0.7-0.2,0.8-0.6c1.1-3.3,1.9-6.5,2.4-9.6c0.1-0.4-0.2-0.9-0.7-0.9
		c-0.4-0.1-0.9,0.2-0.9,0.7c-0.5,3-1.3,6.1-2.4,9.3C674.2,71.7,674.4,72.2,674.9,72.3z"/>
	<path d="M670.8,80.3c-1.3,2.8-2.7,5.7-4.4,8.7c-0.2,0.4-0.1,0.9,0.3,1.1c0.1,0.1,0.3,0.1,0.4,0.1c0.3,0,0.6-0.2,0.7-0.4
		c1.7-3,3.1-5.9,4.4-8.8c0.2-0.4,0-0.9-0.4-1.1C671.5,79.7,671,79.9,670.8,80.3z"/>
	<path d="M665.1,27.6c2.6,2.1,4.8,4.4,6.5,6.9c0.2,0.2,0.4,0.3,0.7,0.3c0.2,0,0.3,0,0.5-0.1c0.4-0.3,0.5-0.8,0.2-1.1
		c-1.9-2.6-4.2-5.1-6.9-7.2c-0.3-0.3-0.9-0.2-1.1,0.1C664.7,26.8,664.8,27.3,665.1,27.6z"/>
	<path d="M644.7,122.1c0.2,0,0.5-0.1,0.6-0.3c2.1-2.6,4.2-5.1,6.2-7.6c0.3-0.4,0.2-0.9-0.1-1.1c-0.4-0.3-0.9-0.2-1.1,0.1
		c-1.9,2.5-4,5-6.1,7.6c-0.3,0.3-0.2,0.9,0.1,1.1C644.3,122,644.5,122.1,644.7,122.1z"/>
	<path d="M629.2,14.9c3.3,0.4,6.6,0.9,9.6,1.5c0.1,0,0.1,0,0.2,0c0.4,0,0.7-0.3,0.8-0.7c0.1-0.4-0.2-0.9-0.6-1
		c-3.1-0.6-6.3-1.2-9.7-1.6c-0.4-0.1-0.9,0.3-0.9,0.7C628.4,14.4,628.7,14.8,629.2,14.9z"/>
	<path d="M637.7,128.1c-1,1.1-2,2.2-3,3.4c-0.3,0.3-0.3,0.8,0.1,1.2c0.2,0.1,0.4,0.2,0.5,0.2c0.2,0,0.4-0.1,0.6-0.3
		c1-1.1,2-2.3,3-3.4c0.3-0.3,0.3-0.9-0.1-1.1C638.5,127.8,638,127.8,637.7,128.1z"/>
	<path d="M609.8,13.7c3.3,0,6.6,0.1,9.7,0.3c0,0,0,0,0,0c0.4,0,0.8-0.3,0.8-0.8c0-0.4-0.3-0.8-0.8-0.9c-3.1-0.2-6.4-0.3-9.8-0.3
		c-0.4,0-0.8,0.4-0.8,0.8C609,13.4,609.3,13.7,609.8,13.7z"/>
	<path d="M570.8,16.5c0,0,0.1,0,0.1,0c3.3-0.4,6.5-0.8,9.7-1.2c0.4,0,0.8-0.4,0.7-0.9c0-0.4-0.4-0.8-0.9-0.7
		c-3.2,0.3-6.4,0.7-9.7,1.2c-0.4,0.1-0.8,0.5-0.7,0.9C570.1,16.2,570.4,16.5,570.8,16.5z"/>
	<path d="M551.5,19.5c0,0,0.1,0,0.1,0c3.2-0.6,6.5-1.1,9.6-1.6c0.4-0.1,0.7-0.5,0.7-0.9c-0.1-0.4-0.5-0.7-0.9-0.7
		c-3.2,0.5-6.4,1-9.7,1.6c-0.4,0.1-0.7,0.5-0.7,0.9C550.8,19.3,551.1,19.5,551.5,19.5z"/>
	<path d="M532.3,23.4c0.1,0,0.1,0,0.2,0c3.2-0.7,6.4-1.4,9.6-2c0.4-0.1,0.7-0.5,0.6-1c-0.1-0.4-0.5-0.7-1-0.6
		c-3.1,0.6-6.4,1.3-9.6,2c-0.4,0.1-0.7,0.5-0.6,1C531.6,23.1,532,23.4,532.3,23.4z"/>
	<path d="M656.2,106.5c0.1,0.1,0.3,0.2,0.5,0.2c0.3,0,0.5-0.1,0.7-0.3c2-2.7,3.8-5.5,5.5-8.1c0.2-0.4,0.1-0.9-0.2-1.1
		s-0.9-0.1-1.1,0.2c-1.7,2.6-3.5,5.3-5.5,8.1C655.7,105.7,655.8,106.2,656.2,106.5z"/>
	<path d="M475.7,38.5c0.1,0,0.2,0,0.2,0c3.1-1,6.3-1.9,9.3-2.8c0.4-0.1,0.7-0.6,0.6-1c-0.1-0.4-0.6-0.7-1-0.5
		c-3.1,0.9-6.2,1.9-9.4,2.8c-0.4,0.1-0.7,0.6-0.5,1C475,38.3,475.3,38.5,475.7,38.5z"/>
	<path d="M494.4,32.9c0.1,0,0.1,0,0.2,0c3.1-0.9,6.3-1.8,9.4-2.6c0.4-0.1,0.7-0.6,0.6-1c-0.1-0.4-0.6-0.7-1-0.6
		c-3.1,0.8-6.3,1.7-9.4,2.6c-0.4,0.1-0.7,0.6-0.6,1C493.7,32.7,494.1,32.9,494.4,32.9z"/>
	<path d="M245.3,367.3c-3.1,1.1-6.2,2.2-9.2,3.2c-0.4,0.1-0.7,0.6-0.5,1c0.1,0.3,0.4,0.5,0.8,0.5c0.1,0,0.2,0,0.3,0
		c3.1-1,6.1-2.1,9.2-3.2c0.4-0.1,0.6-0.6,0.5-1C246.2,367.4,245.7,367.2,245.3,367.3z"/>
	<path d="M10.3,371.4c-0.6-2.5-0.8-5.2-0.8-8c0-0.5,0-1,0-1.5c0-0.4-0.3-0.8-0.8-0.8c-0.3,0-0.5,0.1-0.6,0.3
		c-0.1,0.1-0.2,0.3-0.2,0.5c0,0.5,0,1,0,1.6c0,2.9,0.3,5.7,0.9,8.4c0.1,0.4,0.4,0.6,0.8,0.6c0.1,0,0.1,0,0.2,0c0,0,0.1,0,0.1,0
		C10.1,372.2,10.4,371.8,10.3,371.4z"/>
	<path d="M35.5,398.9c0.1,0,0.2,0.1,0.3,0.1c0.3,0,0.6-0.2,0.8-0.5c0.2-0.4-0.1-0.9-0.5-1c-3.2-1.2-6.1-2.5-8.7-4
		c-0.4-0.2-0.9-0.1-1.1,0.3c-0.2,0.4-0.1,0.9,0.3,1.1C29.2,396.3,32.2,397.7,35.5,398.9z"/>
	<path d="M9.8,353c0.1,0,0.1,0,0.2,0c0.4,0,0.7-0.3,0.8-0.6c0.7-3,1.6-6.1,2.8-9.2c0.2-0.4-0.1-0.9-0.5-1c-0.4-0.2-0.9,0.1-1,0.5
		c-1.2,3.2-2.2,6.4-2.8,9.5C9.1,352.5,9.3,352.9,9.8,353z"/>
	<path d="M13.7,380.3c-0.2-0.4-0.7-0.5-1.1-0.3c-0.4,0.2-0.5,0.7-0.3,1.1c1.6,2.8,3.7,5.5,6.2,7.8c0.2,0.1,0.4,0.2,0.6,0.2
		c0.2,0,0.4-0.1,0.6-0.3c0.3-0.3,0.3-0.8,0-1.1C17.2,385.5,15.3,383,13.7,380.3z"/>
	<path d="M132.4,398.1c-3.2,0.6-6.5,1.1-9.6,1.6c-0.4,0.1-0.8,0.5-0.7,0.9c0.1,0.4,0.4,0.7,0.8,0.7c0,0,0.1,0,0.1,0
		c3.2-0.5,6.4-1,9.7-1.6c0.4-0.1,0.7-0.5,0.7-0.9C133.3,398.3,132.9,398,132.4,398.1z"/>
	<path d="M208.2,379.6c-3.1,1-6.3,1.9-9.4,2.8c-0.4,0.1-0.7,0.6-0.6,1c0.1,0.4,0.4,0.6,0.8,0.6c0.1,0,0.2,0,0.2,0
		c3.1-0.9,6.2-1.8,9.4-2.8c0.4-0.1,0.7-0.6,0.5-1C209.1,379.7,208.7,379.4,208.2,379.6z"/>
	<path d="M189.5,385c-3.1,0.9-6.3,1.7-9.4,2.6c-0.4,0.1-0.7,0.6-0.6,1c0.1,0.4,0.4,0.6,0.8,0.6c0.1,0,0.1,0,0.2,0
		c3.1-0.8,6.3-1.7,9.4-2.6c0.4-0.1,0.7-0.6,0.6-1C190.4,385.2,189.9,384.9,189.5,385z"/>
	<path d="M92.7,246.4c0.2,0,0.4-0.1,0.5-0.2c2.4-2.1,4.9-4.2,7.4-6.3c0.3-0.3,0.4-0.8,0.1-1.1c-0.3-0.3-0.8-0.4-1.1-0.1
		c-2.5,2.1-5,4.3-7.4,6.4c-0.3,0.3-0.4,0.8-0.1,1.1C92.2,246.3,92.5,246.4,92.7,246.4z"/>
	<path d="M170.6,390c-3.2,0.8-6.4,1.6-9.5,2.3c-0.4,0.1-0.7,0.5-0.6,1c0.1,0.4,0.4,0.6,0.8,0.6c0.1,0,0.1,0,0.2,0
		c3.1-0.7,6.3-1.5,9.5-2.3c0.4-0.1,0.7-0.5,0.6-1C171.5,390.2,171,389.9,170.6,390z"/>
	<path d="M151.6,394.4c-3.2,0.7-6.4,1.3-9.6,2c-0.4,0.1-0.7,0.5-0.6,1c0.1,0.4,0.4,0.7,0.8,0.7c0.1,0,0.1,0,0.2,0
		c3.1-0.6,6.4-1.3,9.6-2c0.4-0.1,0.7-0.5,0.6-1C152.4,394.6,152,394.3,151.6,394.4z"/>
	<path d="M113.1,401c-3.3,0.4-6.5,0.8-9.7,1.1c-0.4,0-0.8,0.4-0.7,0.9c0,0.4,0.4,0.7,0.8,0.7c0,0,0.1,0,0.1,0
		c3.2-0.3,6.4-0.7,9.7-1.1c0.4-0.1,0.8-0.5,0.7-0.9C114,401.3,113.6,401,113.1,401z"/>
	<path d="M93.7,402.9c-3.3,0.2-6.6,0.4-9.7,0.4c-0.4,0-0.8,0.4-0.8,0.8c0,0.4,0.4,0.8,0.8,0.8c0,0,0,0,0,0c3.2-0.1,6.5-0.2,9.8-0.4
		c0.4,0,0.8-0.4,0.8-0.9C94.6,403.2,94.2,402.9,93.7,402.9z"/>
	<path d="M37.4,301.8c0.2,0.1,0.3,0.2,0.5,0.2c0.2,0,0.5-0.1,0.6-0.3c2-2.5,4-5,6.2-7.5c0.3-0.3,0.3-0.9-0.1-1.1
		c-0.3-0.3-0.9-0.3-1.1,0.1c-2.2,2.5-4.3,5.1-6.2,7.6C37,301,37,301.5,37.4,301.8z"/>
	<path d="M64,273c0.2,0,0.4-0.1,0.6-0.2c2.2-2.3,4.6-4.6,7-6.8c0.3-0.3,0.3-0.8,0-1.2c-0.3-0.3-0.8-0.3-1.2,0
		c-2.4,2.3-4.7,4.6-7,6.9c-0.3,0.3-0.3,0.8,0,1.2C63.6,272.9,63.8,273,64,273z"/>
	<path d="M50.6,287.1c0.2,0,0.4-0.1,0.6-0.3c2.1-2.4,4.4-4.8,6.6-7.1c0.3-0.3,0.3-0.8,0-1.2c-0.3-0.3-0.8-0.3-1.2,0
		c-2.3,2.4-4.5,4.8-6.7,7.2c-0.3,0.3-0.3,0.8,0.1,1.1C50.2,287,50.4,287.1,50.6,287.1z"/>
	<path d="M78.1,259.4c0.2,0,0.4-0.1,0.6-0.2c2.3-2.2,4.8-4.4,7.2-6.6c0.3-0.3,0.4-0.8,0.1-1.2c-0.3-0.3-0.8-0.4-1.2-0.1
		c-2.5,2.2-4.9,4.4-7.2,6.6c-0.3,0.3-0.3,0.8,0,1.1C77.7,259.3,77.9,259.4,78.1,259.4z"/>
	<path d="M480,544.9c0.4,0,0.8-0.4,0.8-0.8l-0.1-4.3c0-0.5-0.4-0.8-0.8-0.8c-0.4,0-0.8,0.4-0.8,0.8l0.1,4.3
		C479.1,544.5,479.5,544.9,480,544.9C480,544.9,480,544.9,480,544.9z"/>
	<path d="M480.3,560C480.3,560,480.3,560,480.3,560c0.5,0,0.8-0.4,0.8-0.8l-0.1-4.3c0-0.4-0.4-0.8-0.8-0.8c-0.4,0-0.8,0.4-0.8,0.8
		l0.1,4.3C479.5,559.7,479.8,560,480.3,560z"/>
	<path d="M470.5,548.7c-0.4,0-0.8,0.4-0.8,0.8c0,0.4,0.4,0.8,0.8,0.8c0,0,0,0,0,0l4.3,0c0.4,0,0.8-0.4,0.8-0.8
		c0-0.5-0.4-0.8-0.8-0.8L470.5,548.7z"/>
	<path d="M293.9,83.3c0.9,0.3,1.8,0.5,2.7,0.5c1,0,2-0.2,3-0.6c3.8-1.7,5.5-6.2,3.8-10c-0.8-1.9-2.3-3.3-4.2-4
		c-1.8-0.7-3.9-0.7-5.7,0.1c-3.8,1.7-5.5,6.2-3.8,10C290.5,81.1,292,82.6,293.9,83.3z M294.2,70.8c1.4-0.6,3-0.7,4.4-0.1
		c1.5,0.6,2.6,1.7,3.3,3.2c1.3,3,0,6.5-3,7.9c-1.4,0.6-3,0.7-4.4,0.1c-1.5-0.6-2.6-1.7-3.3-3.2C289.9,75.6,291.2,72.1,294.2,70.8z"
		/>
</g>
</svg>
