<?xml version="1.0" encoding="utf-8"?>
<!-- Generator: Adobe Illustrator 24.1.3, SVG Export Plug-In . SVG Version: 6.00 Build 0)  -->
<svg version="1.1" id="圖層_1" xmlns="http://www.w3.org/2000/svg" xmlns:xlink="http://www.w3.org/1999/xlink" x="0px" y="0px"
	 viewBox="0 0 690 690" style="enable-background:new 0 0 690 690;" xml:space="preserve">
<style type="text/css">
	.st0{fill:#1A1A1A;}
</style>
<g>
	<path class="st0" d="M518.5,442.6c0.3,0,29.1,4.2,37.7,25.7c0.1,0.3,0.4,0.5,0.8,0.5c0.1,0,0.2,0,0.3-0.1c0.4-0.2,0.6-0.6,0.5-1.1
		c-8.9-22.4-38.7-26.7-39-26.8c-0.4-0.1-0.9,0.3-0.9,0.7C517.7,442.1,518,442.5,518.5,442.6z"/>
	<path class="st0" d="M515.6,481.7c0,0.5,0.3,0.9,0.7,0.9c0,0,0.1,0,0.1,0c0.4,0,0.8-0.3,0.8-0.7c2.2-21.6-10-35.8-10.2-36
		c-0.3-0.3-0.8-0.4-1.2-0.1c-0.3,0.3-0.4,0.8-0.1,1.2C506,447.1,517.7,460.8,515.6,481.7z"/>
	<path class="st0" d="M323.4,347.3c3.2-1,4.9-4.8,3.8-8.5c-1.1-3.7-4.6-5.9-7.9-5c-3.2,1-4.9,4.8-3.8,8.5
		C316.7,346.1,320.2,348.3,323.4,347.3z"/>
	<path class="st0" d="M326.7,665.3c-7.7,1-15.6,1.9-23.5,2.6c-21.7,2-42.4-0.5-61.5-7.4c-0.4-0.2-0.9,0.1-1.1,0.5
		c-0.2,0.4,0.1,0.9,0.5,1.1c15,5.4,31,8.2,47.6,8.2c4.8,0,9.7-0.2,14.6-0.7c7.9-0.7,15.9-1.6,23.6-2.6c0.5-0.1,0.8-0.5,0.7-0.9
		C327.5,665.5,327.1,665.2,326.7,665.3z"/>
	<path class="st0" d="M24.1,403.9c3.8,0,6.9-3.1,6.9-6.9c0-3.8-3.1-6.9-6.9-6.9c-3.8,0-6.9,3.1-6.9,6.9
		C17.2,400.8,20.3,403.9,24.1,403.9z M24.1,391.8c2.9,0,5.2,2.3,5.2,5.2c0,2.9-2.3,5.2-5.2,5.2c-2.9,0-5.2-2.3-5.2-5.2
		C18.9,394.2,21.2,391.8,24.1,391.8z"/>
	<path class="st0" d="M31.4,367.1c0.5,0,0.8-0.4,0.8-0.8v-6.4c0-0.5-0.4-0.8-0.8-0.8c-0.5,0-0.8,0.4-0.8,0.8v6.4
		C30.5,366.7,30.9,367.1,31.4,367.1z"/>
	<path class="st0" d="M31.4,382c0.5,0,0.8-0.4,0.8-0.8v-6.4c0-0.5-0.4-0.8-0.8-0.8c-0.5,0-0.8,0.4-0.8,0.8v6.4
		C30.5,381.6,30.9,382,31.4,382z"/>
	<path class="st0" d="M20.7,371.3h6.4c0.5,0,0.8-0.4,0.8-0.8c0-0.5-0.4-0.8-0.8-0.8h-6.4c-0.5,0-0.8,0.4-0.8,0.8
		C19.9,371,20.3,371.3,20.7,371.3z"/>
	<path class="st0" d="M35.6,371.3H42c0.5,0,0.8-0.4,0.8-0.8c0-0.5-0.4-0.8-0.8-0.8h-6.4c-0.5,0-0.8,0.4-0.8,0.8
		C34.8,371,35.2,371.3,35.6,371.3z"/>
	<path class="st0" d="M590.5,130.5c0.1,0.3,0.4,0.6,0.8,0.6c0.1,0,0.2,0,0.3,0c0.4-0.1,0.7-0.6,0.5-1l-1.2-3.7
		c-0.1-0.4-0.6-0.7-1-0.5c-0.4,0.1-0.7,0.6-0.5,1L590.5,130.5z"/>
	<path class="st0" d="M594.6,143.5c0.1,0.3,0.4,0.6,0.8,0.6c0.1,0,0.2,0,0.3,0c0.4-0.1,0.7-0.6,0.5-1l-1.2-3.7
		c-0.1-0.4-0.6-0.7-1-0.5c-0.4,0.1-0.7,0.6-0.5,1L594.6,143.5z"/>
	<path class="st0" d="M584.4,138.4c0.1,0,0.2,0,0.2,0l3.7-1.2c0.4-0.1,0.7-0.6,0.5-1c-0.1-0.4-0.6-0.7-1-0.5l-3.7,1.2
		c-0.4,0.1-0.7,0.6-0.5,1C583.7,138.2,584,138.4,584.4,138.4z"/>
	<path class="st0" d="M597.4,134.2c0.1,0,0.2,0,0.3,0l3.7-1.2c0.4-0.1,0.7-0.6,0.5-1c-0.1-0.4-0.6-0.7-1-0.5l-3.7,1.2
		c-0.4,0.1-0.7,0.6-0.5,1C596.7,134,597,134.2,597.4,134.2z"/>
	<path class="st0" d="M355.1,17.7c62.9,1.5,127.3,25.5,181.3,67.4c3.9,3,7.7,6.1,11.5,9.3c0.2,0.1,0.3,0.2,0.5,0.2
		c0.2,0,0.5-0.1,0.6-0.3c0.3-0.3,0.2-0.9-0.1-1.2c-3.8-3.2-7.7-6.3-11.6-9.4c-27.1-21-56.5-37.5-87.5-49.1
		c-31.1-11.6-63-17.9-94.8-18.7c0,0,0,0,0,0c-0.4,0-0.8,0.4-0.8,0.8C354.2,17.4,354.6,17.7,355.1,17.7z"/>
	<path class="st0" d="M511.1,87.3c0.3,0,0.5-0.1,0.7-0.4c0.3-0.4,0.2-0.9-0.2-1.1C470.4,58.1,424.1,41.2,377.8,37
		c-0.4,0-0.9,0.3-0.9,0.7c0,0.5,0.3,0.9,0.7,0.9c46,4.2,92,21,133,48.5C510.8,87.3,511,87.3,511.1,87.3z"/>
	<path class="st0" d="M558.2,110.6c0.7,0.2,1.4,0.4,2.1,0.4c1,0,1.9-0.2,2.8-0.6c1.5-0.7,2.7-2,3.3-3.7c1.2-3.3-0.6-7-3.9-8.1
		c-3.3-1.2-7,0.6-8.2,4C553.1,105.7,554.9,109.4,558.2,110.6z M555.8,102.9c0.7-2,2.5-3.2,4.5-3.2c0.5,0,1,0.1,1.6,0.3
		c2.5,0.9,3.8,3.6,2.9,6.1c-0.4,1.2-1.3,2.2-2.4,2.7c-1.1,0.6-2.4,0.6-3.6,0.2C556.3,108.1,555,105.4,555.8,102.9z"/>
	<path class="st0" d="M333.8,21l11,2.4c0.1,0,0.1,0,0.2,0c0.2,0,0.5-0.1,0.6-0.3c0.2-0.2,0.2-0.6,0.1-0.8l-4.1-10.3
		c-0.1-0.3-0.3-0.4-0.6-0.5c-0.3-0.1-0.6,0-0.8,0.2c0,0-3.7,3.9-6.9,8c-0.2,0.2-0.2,0.5-0.1,0.8C333.2,20.7,333.5,20.9,333.8,21z
		 M340.5,13.7l3.1,7.7l-8.2-1.8C337.4,17.2,339.4,15,340.5,13.7z"/>
	<path class="st0" d="M686.2,666l-10.9-133.4c-0.3-3.7-3.4-6.6-7.1-6.6h-7.9h0h-16.4c-0.3-3-2.8-5.3-5.9-5.3h-1.8l1.5-9.2
		c0.6-3.7-0.3-7.1-2.4-9.7c-0.3-0.4-0.7-0.7-1.1-1.1c23.3-37.2,35.6-82.3,33.1-127.8c-3.2-58.1-17.6-97.9-42.9-118.2
		c-17.3-13.9-39.6-18.8-66.5-14.5c-5,0.8-9.3,2.4-13,4.7c-5.8-5.9-12.4-9.9-19.7-12l-0.4-0.1c0,0,0,0-0.1,0
		c-0.6-0.2-1.2-0.4-1.8-0.5c-1.1-0.2-2.1-0.5-3-0.7l-9.4-2.3c-2.4-0.5-4.2-4.2-4.7-6.5l-3.2-21.7c0.8-0.1,1.6-0.3,2.2-0.9
		c2.2-2.2-0.2-5.9-1-13.6c-1.1-10.9,2.1-13.7,0.6-18.4c-1.1-3.6-4.8-7.4-7.5-6.9c-4.1,0.7-3.9,0.5-10.5,6.2c-1.8,1.5-2-9.5-8.9-3.6
		c-17.2,14.9-13,6.3-18.2,9c-7.1,3.8-6,15-2.8,18.2c2.2,2.2,6.5-0.5,10.4-0.9c-0.1,4.8-0.7,9.3-1.1,11.6c-0.2,1.1,0.4,2.2,1.4,2.7
		c0.4,0.2,0.8,0.3,1.3,0.3l1.2-0.1l1.5,1.7c0.1,0.2,0.3,0.2,0.5,0.3c0,1.3,0.1,2.6,0.2,4.1c0.2,2.7,0.7,5.6,1,7.8
		c0.3,1.7,1.8,3,3.5,3.1c1.9,0,3.7,0,5.3-0.2l-0.2,3.3c-0.3,2.5-2.1,4.5-4.5,5.2l-1.6,0.4c-5.3,0.2-11.3,0.4-18.3,0.6
		c-1.6,0.1-3.2,0.4-4.8,1.1c-3.9,1.2-7.5,4.1-10.8,8.1c-4.3,4.8-7.8,10.9-9.6,16.2c-8.8,19.1-13.6,42.4-13.9,44
		c-0.1,0.3,0.1,0.7,0.4,0.9l5.7,3.3c-2,8.5-5.3,19.9-10.6,31.4c-5.3,11.5-13.3,24.3-25,34.1c-2.6-0.5-5.1-1-7.6-1.6l-23.9-70.3
		c0-0.1-0.1-0.1-0.1-0.2c-2-3-5.3-4.8-8.9-4.8h-79.5c-2,0-3.8,0.9-4.9,2.5c-1.1,1.5-1.3,3.5-0.7,5.2c0.1,0.3,0.3,0.7,0.4,1.1
		c0.3,0.9,0.7,1.7,1,2.6l26.9,82v2c0,2.4,1.2,4.5,2.9,5.9c-6.6,12.9-10.8,28.7-12.2,46.1c-2.2,29.3,3.8,59.4,16.5,82.7
		c2.3,4.2,4.8,8.2,7.6,12.1l-6.8,15.4l1.5,0.8L287,570.9l-1.2-1.6c-24.4,4-44.2,17.8-55,26.9c-3.3,2.8-1.4,8.2,3,8.2h60.6
		c5.1,0,9.6-3.5,10.6-8.5c2-9.3,0.8-19.9,0.8-19.9l-3.5,0.7l16-16.1l1.5,0.8c2.2-1.5,4.4-3,6.6-4.5c11.4,9.7,24.9,17.9,40.2,24.3
		c-1.6,3.6-3.3,6.5-4.9,7.4c-4,2.1-6.8,5.3-8.7,8.2c-2,3,0.2,7,3.8,7l14.1-0.1c9.4-0.1,18.1-4.8,23.2-12.7l0.3-0.5
		c17.9,4.5,36.7,6.7,55.6,6.7c13.9,0,27.9-1.2,41.6-3.5L478,661c-1,4.7,0.2,9.5,3.3,13.3c3,3.7,7.5,5.9,12.3,5.9h148.7h10.5h20.4
		c3.7,0,7.2-1.5,9.6-4.2C685.3,673.2,686.5,669.6,686.2,666z M673.1,678.5h-19.5h-0.8H652h-9.7c-4.3,0-8.3-1.9-11.1-5.3
		c-2.7-3.3-3.8-7.7-2.9-11.9l26.6-129.3c0.5-2.3,2.3-4,4.5-4.3c0.3,0,0.5-0.1,0.8-0.1c0,0,0,0,0,0h0.8h7.1c2.8,0,5.3,2.2,5.5,5.1
		l10.9,133.4c0.3,3.2-0.8,6.3-3,8.7C679.4,677.2,676.4,678.5,673.1,678.5z M493.6,678.5c-4.3,0-8.3-1.9-11.1-5.3
		c-2.7-3.3-3.8-7.7-2.9-11.9l14-68l0.2-0.9l0.2-0.8l9.8-47.7c1.9-9.4,10.4-16.3,20-16.3h88.3h1.1h1.1h41.4c-1.2,1-2.1,2.4-2.5,4.1
		L626.7,661c-1,4.7,0.2,9.5,3.3,13.3c1.5,1.8,3.3,3.2,5.3,4.2H493.6z M403.6,551.3c-5.8-3.1-12-6.1-13.4-6c-0.1,0-0.2,0-0.2,0.1
		c-1.4-4.2-3-8.8-4.4-13l1.8-1.3l-8.2-27.9c9.8-13.7,17-26.5,22-36.2c5.3-10.4,16-16.8,27.7-16.7c41,0.6,70.3-6.2,86.7-11.4
		c5-1.6,9.7-6.3,13.5-12.3c6.2-2.9,11.6-9.4,16.3-19.1c0,0,0-0.1,0-0.1c4.5-13.9,7.7-28.2,9.4-42.5c1.8-14.7,2.1-29.5,1-44.3
		l4.3,0.9c0.1,0,0.1,0,0.2,0c0.2,0,0.3-0.1,0.5-0.2c0.2-0.1,0.3-0.3,0.3-0.6c0.2-1.5,4.9-38-0.6-51.4c-3.9-9.4-8.7-17.3-14.3-23.3
		c3.5-2.1,7.5-3.6,12.1-4.3c26.4-4.2,48.4,0.6,65.2,14.2c24.9,20.1,39.1,59.4,42.3,117c2.5,45.1-9.7,89.8-32.8,126.7
		c-1.6-1-3.4-1.7-5.5-1.8c0-1-0.3-2-1-2.7c-0.8-0.9-1.9-1.4-3.2-1.4h-54.4c-2.4,0-4.7,1.8-5.3,4.1c-7.1,0.4-13.6,6.3-14.8,13.4
		l-1.6,9.5h-2.3c-3.1,0-5.6,2.3-5.8,5.3h-15.3c-10.4,0-19.5,7.4-21.6,17.6l-9.9,48.3c-32.1,5.6-65.7,4.8-96.6-2.9l12.7-20.1
		C412.2,562.8,410,554.7,403.6,551.3z M283.9,440.4c1.3-17.1,5.5-32.7,11.9-45.4c0.9,0.4,2,0.7,3,0.7h10.2c-0.7,0.5-1.4,1.1-2,1.6
		c-18,15.6-1.4,59,17.9,95.7l-17.9,40.3c-2.5-3.6-4.8-7.3-6.9-11.1C287.6,499.2,281.7,469.4,283.9,440.4z M264.8,300.1
		c-0.5-1.2-0.3-2.6,0.5-3.7c0.8-1.2,2.1-1.8,3.5-1.8h79.5c3.1,0,5.9,1.5,7.5,4l23.5,69.2l0.3,0.9l0.3,0.9l1.8,5.4l0.3,0.9l0.2,0.7
		l0.7,2.1l2.2,6.5l0.1,0.2h-23.5h-3.9h-6h-20.1h-30.3h-1h-0.9h-6.7l-0.1-0.2l-26.7-81.4c-0.3-0.9-0.7-1.8-1-2.7
		C265,300.8,264.9,300.4,264.8,300.1z M387.1,371.2c-1.3,1-2.6,2-4,2.9l-1.4-4C383.6,370.4,385.3,370.8,387.1,371.2z M390.9,370.2
		c9.6-8.4,17.8-19.7,24.4-33.8c5.3-11.4,8.6-22.7,10.6-31.2l12.4,7.1c-0.8,16.5-5,34.5-16.2,51.1c-1.1,0.2-2.2,0.5-3.2,1.1
		c-3.5,1.9-7.1,4.7-10.5,7.7c-0.3,0.3-0.6,0.5-0.8,0.8c-0.3,0.3-0.6,0.5-0.9,0.8c-1.7,1.6-3.4,3.2-4.8,4.7c-3.3,3.5-5.6,6.2-5.8,6.4
		c-0.1,0.1-0.1,0.2-0.2,0.3H387l-2.2-6.6l-1-2.9c1.9-1.3,3.8-2.7,5.6-4.1c0.3-0.2,0.6-0.5,0.8-0.7
		C390.4,370.6,390.7,370.4,390.9,370.2z M431.3,262.5c0.2-0.4,0.3-0.8,0.5-1.2c0.6-1.4,1.1-2.7,1.7-4c3.2-7,6.8-13.4,11-17.9
		c2.5-2.7,5.2-4.7,8-5.7c0.4-0.1,0.7-0.2,1.1-0.3c0.1,0,0.2-0.1,0.3-0.1c0.2,0,0.3-0.1,0.4-0.2c1-0.3,2.1-0.5,3.1-0.5
		c4.3-0.2,8.2-0.3,11.8-0.4c-0.1,0.1-0.1,0.2-0.2,0.3c-0.1,0.3,0.1,0.6,0.3,0.8l4.9,3.8c6.5,4.9,13.8,7.4,21,7.4
		c6.2,0,12.2-1.9,17.2-5.7l7.5-5.5c0.8,0.2,1.7,0.4,2.6,0.6c0.6,0.2,1.3,0.3,1.9,0.5l0,0l0.4,0.1c1.7,0.5,3.4,1.1,5,1.8
		c1,0.4,2,0.9,2.9,1.4c4.1,2.2,7.7,5,10.9,8.1c0.2,0.2,0.4,0.4,0.6,0.6c0.2,0.2,0.4,0.4,0.6,0.6c6.6,7,11.2,15.6,14.2,23
		c4.8,11.8,1.2,43.9,0.6,49.6l-3.9-0.8l-0.9-0.2l-0.8-0.2l-0.4-0.1l-0.8-0.2l-0.8-0.2l-39.2-7.8l-0.8-0.2l-0.8-0.2l-1.1-0.2
		l-0.9-0.2l-0.8-0.2l-0.7-0.1l3.5-14.8c0.1-0.4-0.2-0.9-0.6-1c0,0,0,0,0,0c-0.4-0.1-0.9,0.2-1,0.6l-3.6,15.6c-0.1,0.2,0,0.4,0.1,0.6
		c0.1,0.2,0.3,0.3,0.5,0.4l1.1,0.2l0.8,0.2l0.9,0.2l1.7,0.3l-3.9,54.5c-0.2,2.4-1.3,4.6-3,6.1c-1.6,1.5-3.8,2.5-6.2,2.6l-28.6,0.8
		l-2.7,0.1c-9.2,0.3-18.1-1.7-26-5.6c-0.4-0.2-0.7-0.4-1.1-0.6c-0.3-0.2-0.7-0.4-1-0.6c-0.3-0.2-0.6-0.3-0.9-0.5
		c-0.2-0.1-0.5-0.3-0.7-0.4c-0.2-0.1-0.4-0.2-0.6-0.4c0,0-0.1,0-0.1-0.1c-4.5-2.8-8.5-4.3-11.9-4.4c10.7-16.3,14.9-33.9,15.8-50
		l3.2,1.8c0.1,0.1,0.3,0.1,0.4,0.1c0.1,0,0.2,0,0.4-0.1c0.2-0.1,0.4-0.4,0.4-0.6l1.8-14.7c0.1-0.5-0.3-0.9-0.7-0.9c0,0,0,0,0,0
		c-0.4-0.1-0.9,0.3-0.9,0.7l-1.7,13.5l-2.9-1.6l-0.7-0.4l-0.9-0.5l-12.1-7l-0.7-0.4l-0.8-0.4l-4.8-2.7
		C420.8,296.5,424.7,278.9,431.3,262.5z M480.4,230c1.6-1.2,2.8-3.1,3-5.3l0.3-3.6c6.2-1,9.5-3.4,10.7-5.5c2.5-4.5-1.4-10.9,2-13.8
		c1.4-1.2,3-1,4.6-0.9l3.2,22c0.4,2.3,1.9,5.5,4.1,7c0.6,0.4,1.2,0.7,1.8,0.9l0.7,0.2l7.1,1.8l-0.1,0.1l-6.3,4.6
		c-10.2,7.7-24.7,7-36.2-1.7l-3.6-2.7l4.2-1.1l1.8-0.5c0.4-0.1,0.9-0.3,1.3-0.5C479.5,230.6,480,230.3,480.4,230z M470.9,203.1
		c-0.2-0.2-0.4-0.3-0.6-0.3c0,0,0,0,0,0l-1.6,0.1c-0.2,0-0.4,0-0.5-0.1c-0.4-0.2-0.6-0.6-0.5-1c0.5-2.8,1.1-7.3,1.1-11.9
		c0-2.5-0.1-5-0.5-7.4c1.6-1.1,8-5,16.4-2l-0.2,3c-0.1,1.7-0.1,3.4,0,5.2c0.2,3,0.6,8.5,0.6,11.5c0,2.5-7.3,4.1-12.7,4.5l-0.4-0.5
		L470.9,203.1z M376.4,507c0.4,0.3,0.4,0.8,0.2,1.1c-2.1,2.8-4.3,5.6-6.5,8.4c-4.5,5.5-9.1,10.8-13.9,15.8c-0.2,0.2-0.4,0.3-0.6,0.3
		c-0.2,0-0.4-0.1-0.6-0.2c0,0,0,0,0,0c-0.3-0.3-0.3-0.8,0-1.2c4.7-4.9,9.4-10.2,13.8-15.6c2.2-2.7,4.4-5.5,6.5-8.3
		C375.6,506.8,376.1,506.7,376.4,507C376.4,507,376.4,507,376.4,507z M383.1,577c-0.1,0.4-0.4,0.6-0.8,0.6c-0.1,0-0.1,0-0.2,0
		l-10.8-2.9c-0.4-0.1-0.7-0.6-0.6-1c0.1-0.4,0.6-0.7,1-0.6l10.8,2.9C383,576.1,383.3,576.5,383.1,577z M386.2,559.3l-9.9,0.4
		l-9.8-13.1l17.8-13.2c1.3,3.9,2.9,8.8,4.5,13.4C386.9,550.4,386.2,559.3,386.2,559.3z M328.1,486.8c-0.1,0-0.2,0-0.3-0.1
		c0,0,0,0,0,0c-0.4-0.2-0.6-0.7-0.4-1.1l23.6-53.1c4.8-10.9,14-19.5,25.2-23.5l36.4-13.3h2.4h2.4l-40.6,14.9
		c-10.7,3.9-19.6,12.2-24.2,22.7l-23.6,53.1C328.7,486.7,328.4,486.8,328.1,486.8z M553.2,364.7c-1.7,14.2-4.9,28.4-9.3,42.1
		c-3.9,8.1-8.3,13.8-13.1,17c-2,1.3-4.1,2.2-6.2,2.7c-9.5,2.1-17.3-4.8-26.2-12.8c-3.4-3-6.9-6.2-10.8-9.1
		c8.2,1.8,16.4,3.1,23.8,3.1c11,0,20.1-2.7,24.6-10.2c0.5-0.9,1.1-1.9,1.6-2.9c10.2-20.5,14.7-62,15.9-74.5l0.7,0.1
		C555.3,335.1,555,349.9,553.2,364.7z M440.1,386.5l-0.7-0.4l-1.5-0.8l-5.7-3.2c-0.2-0.1-0.5-0.3-0.7-0.4c-0.2-0.1-0.5-0.3-0.7-0.4
		c-0.2-0.1-0.5-0.2-0.7-0.3c-1.8-0.8-3.6-1.4-5.5-1.8c-1.7-0.4-3.5-0.5-5.3-0.5c-1,0-2,0.1-3,0.2c-1.7,0.2-3.4,0.6-5.1,1.1l-1.5,0.5
		l-1.9,0.6l-2,0.6l-6.6,2.1c1.2-1.4,2.9-3.2,4.9-5.3c1.5-1.5,3.1-3.1,4.8-4.6c0.3-0.3,0.6-0.6,0.9-0.8c0.3-0.3,0.6-0.5,0.9-0.8
		c2.9-2.5,5.9-4.8,8.8-6.3c0.3-0.2,0.7-0.3,1-0.5c0.4-0.2,0.8-0.3,1.3-0.4c0.4-0.1,0.7-0.1,1.1-0.1c4.1-0.3,8.8,1.9,12.3,4.2
		c0,0,0.1,0,0.1,0.1c0.2,0.1,0.5,0.3,0.7,0.4c0,0,0,0,0,0c0.2,0.1,0.5,0.3,0.7,0.4c0.1,0.1,0.2,0.1,0.3,0.2c0.4,0.2,0.7,0.4,1.1,0.6
		c7.9,4.3,16.9,6.6,26.3,6.7c0.7,0,1.4,0,2.1,0l31.3-0.9c3.2-0.1,6-1.5,8-3.7c1.6-1.8,2.6-4,2.8-6.5l3.9-54.3l39.2,7.8
		c-1.1,11.7-5.5,51.4-14.8,72.1c-0.8,1.7-1.6,3.3-2.4,4.7c-7.4,12.5-29.8,10.5-50.9,5.2c-0.9-0.2-1.8-0.5-2.7-0.7
		c-1.2-0.3-2.3-0.6-3.5-1c-4.7-1.3-9.2-2.8-13.4-4.2c-1.1-0.4-2.2-0.8-3.3-1.1c-0.8-0.3-1.6-0.6-2.4-0.9c0,0,0,0,0,0
		c-0.9-0.3-1.7-0.6-2.5-0.9c-0.3-0.1-0.6-0.2-0.8-0.3c-0.3-0.1-0.6-0.2-0.8-0.3c-7.6-2.9-12.6-5.1-12.8-5.2l-0.6-0.3L440.1,386.5z
		 M403.5,384.1c0,0.2,0.1,0.4,0.3,0.5c0.3,0.2,0.5,0.4,0.8,0.6H400L403.5,384.1z M407.3,385.2c-0.6-0.4-1.1-0.8-1.7-1.3
		c0.4-0.3,0.7-0.6,1-0.9l5-1.6c5.8-1.9,12.1-1.5,17.6,1c0.3,0.1,0.5,0.2,0.7,0.3c0.2,0.1,0.5,0.2,0.7,0.4c0.2,0.1,0.4,0.2,0.6,0.3
		l3.1,1.8h-4.7h-0.9H428H407.3z M433,395.7h8.8C439.1,396,436.2,396,433,395.7z M293.2,387h5.3h0.9h1h26h24.4h35.5
		c0.2,0,0.3-0.1,0.5-0.2h5.9h14h1.4h1.5h18.4h0.9h8.4l0.6,0.3l2.6,1.5c0.7,0.3,5.2,2.3,11.8,4.9c-0.7,0.3-1.5,0.5-2.3,0.5H425h-2.7
		h-0.5h-1.9h-0.5H417H311.4h-12.6c-0.8,0-1.6-0.2-2.3-0.5c-0.3-0.1-0.5-0.3-0.8-0.4c-0.2-0.1-0.4-0.3-0.6-0.5c-1.2-1.1-2-2.6-2-4.4
		V387z M350.5,536.8c5.7,9,9.5,14.5,9.5,14.5l5.1-3.8l9.1,12.2l-0.7,0c0,0-2.7,11.4-6.2,19.9c-15-6.3-28.3-14.3-39.5-23.8
		C336.1,550,343.6,543.5,350.5,536.8z M369.3,581.3c-0.4-0.1-0.7-0.6-0.6-1c0,0,0,0,0,0c0.1-0.4,0.6-0.7,1-0.6l7.2,1.8
		c0.4,0.1,0.7,0.6,0.6,1c-0.1,0.4-0.4,0.6-0.8,0.6c-0.1,0-0.1,0-0.2,0l-1.6-0.4L369.3,581.3z M636.2,511.2l-1.5,9.2h-3.1l1.1-6.7
		c0.5-2.9-0.2-5.6-1.9-7.6c0,0-0.1-0.1-0.1-0.1c-0.2-0.2-0.3-0.4-0.5-0.6c-0.2-0.2-0.4-0.4-0.6-0.5c-0.9-0.7-1.9-1.3-3-1.6l0.6-3.8
		c1.8,0.1,3.4,0.7,4.8,1.6c0.2,0.1,0.4,0.3,0.6,0.5c0.2,0.2,0.4,0.4,0.7,0.6c0.2,0.2,0.5,0.5,0.7,0.7
		C636,505.1,636.7,508,636.2,511.2z M627.7,520.7c-3.1,0-5.6,2.3-5.9,5.3h-6.1c5-5.9,9.8-12.1,14.2-18.5c1.2,1.6,1.6,3.7,1.2,5.9
		l-1.2,7.3H627.7z M561.1,526c-0.3-3-2.8-5.3-5.8-5.3h-1.6l1.2-7c0.7-4.1,4-7.6,7.9-8.8c0.1,0.6,0.4,1.2,0.9,1.7
		c0.8,0.9,1.9,1.4,3.2,1.4h54.4c2.1,0,4.1-1.4,5-3.2c0.9,0.3,1.8,0.8,2.5,1.4c-4.7,6.9-9.8,13.5-15.2,19.8H561.1z M562.7,503.1
		C562.7,503.2,562.7,503.2,562.7,503.1c-4.7,1.3-8.7,5.4-9.5,10.3l-1.2,7h-3.1l1.5-8.9c1-6.2,6.7-11.4,12.8-12L562.7,503.1z
		 M492.3,183.5c3.8,1.1,3,10.5-4.4,7.5C487.9,191,488.4,182.4,492.3,183.5z M292.7,578.8l-0.1,0l-0.1-0.1L292.7,578.8z M295.7,578.1
		l-4.9-1.8l-2.9-4l14.5-20.3l14.4,7.7l-17.5,17.6L295.7,578.1z M268.1,576c0.4-0.2,0.9,0,1.1,0.4l3.3,8.1c0.2,0.4,0,0.9-0.4,1.1
		c-0.1,0-0.2,0.1-0.3,0.1c-0.3,0-0.6-0.2-0.8-0.5l-3.3-8.1C267.5,576.7,267.7,576.2,268.1,576z M258.1,578.9c0.4-0.1,0.9,0.1,1,0.5
		l2.4,7.3c0.1,0.4-0.1,0.9-0.5,1c-0.1,0-0.2,0-0.3,0c-0.3,0-0.7-0.2-0.8-0.6l-2.4-7.3C257.5,579.5,257.7,579,258.1,578.9z
		 M299.5,596.8h-62.8c-0.5,0-0.8-0.4-0.8-0.8c0-0.5,0.4-0.8,0.8-0.8h62.8c0.5,0,0.8,0.4,0.8,0.8C300.3,596.4,300,596.8,299.5,596.8z
		 M377.9,596.1l-19.3,2.9c0,0-0.1,0-0.1,0c-0.4,0-0.8-0.3-0.8-0.7c-0.1-0.4,0.2-0.9,0.7-0.9l19.3-2.9c3.9-0.6,7.3-2.8,9.5-6.1
		c0.1-0.2,0.2-0.4,0.3-0.5l0.1-0.2l0.4-0.7l16.5-27.6c0.2-0.4,0.7-0.5,1.1-0.3c0.4,0.2,0.5,0.7,0.3,1.1l-16.3,27.3l-0.4,0.7
		l-0.3,0.6c0,0.1-0.1,0.1-0.1,0.2C386.4,592.8,382.5,595.5,377.9,596.1z"/>
	<path class="st0" d="M506,589.1c0.1,0.1,0.3,0.2,0.5,0.2h2.3h3.4h36.1l-3.3,12c-0.4,1.5-0.1,3,0.8,4.3c0.9,1.2,2.3,1.9,3.9,1.9
		h24.7c2.8,0,5.3-1.9,5.9-4.7l3.3-13.5h47.5c4.1,0,7.6-2.8,8.6-6.8l11-46.4c0.1-0.4-0.2-0.9-0.6-1c-0.4-0.1-0.9,0.2-1,0.6l-11,46.4
		c-0.8,3.2-3.6,5.5-7,5.5H583h-33.6h-31.2h-3.1H512h-5.5c-0.5,0-0.8,0.4-0.8,0.8C505.6,588.7,505.8,589,506,589.1z M574.4,605.8
		h-24.7c-1,0-2-0.5-2.6-1.3c-0.6-0.8-0.8-1.8-0.5-2.8l3.4-12.4h31.9l-3.2,13.1C578.2,604.4,576.4,605.8,574.4,605.8z"/>
	<path class="st0" d="M619.7,666.7H487.3c-0.5,0-0.8,0.4-0.8,0.8c0,0.5,0.4,0.8,0.8,0.8h132.4c0.5,0,0.8-0.4,0.8-0.8
		C620.5,667.1,620.2,666.7,619.7,666.7z"/>
	<path class="st0" d="M663.3,535.1c-0.5,0-0.8,0.4-0.8,0.8v118.9l-7.9,4.5l-0.8,0.5l-0.8,0.5l-11.3,6.4c-0.4,0.2-0.5,0.7-0.3,1.1
		c0.2,0.3,0.4,0.4,0.7,0.4c0.1,0,0.3,0,0.4-0.1l10.4-5.9l0.8-0.5l0.8-0.5l9.2-5.3c0.3-0.1,0.4-0.4,0.4-0.7V536
		C664.1,535.5,663.8,535.1,663.3,535.1z"/>
	<path class="st0" d="M219.5,624.1c1.1-4.3,2.2-8.3,0.2-11.2c-1.1-1.5-3-3.2-5.3-5.2c-6.5-5.6-15.5-13.3-10.9-24.7l0.3-0.7
		c6.2-15.3,13.8-34.2,15.3-48.1c0.8-0.6,1.7-1.3,2.5-2.1c5.9-5.6,8.8-14.2,8.8-25.5c0.2-1.5,2.6-24.5-2.1-29.8
		c-0.4-0.5-1-0.7-1.6-0.6c-3.2,0.4-9,9.8-13.3,17.6c-0.3,0.6-0.9,0.9-1.6,0.8c-3.4-0.3-12-0.9-17.8,0.6c-0.5,0.1-1.1,0-1.5-0.4
		c-1.8-1.7-6.5-6.4-10.3-12.3c-2-3.2-3.9-4.5-5.7-4.2c-2.7,0.5-4,4.7-4.5,7.2c-0.9,4.1-0.7,11.9,1.8,19.5c0.6,1.8,1,3.6,1.2,5.5
		l0.1,0.7c0.5,4.5,1.4,12.5,6.5,18.6c-0.8,0.7-1.7,1.4-2.6,1.8c-0.2,0.1-23.6,10.6-42.1,3.1c-17.6-7.2-39.4-13.7-76.4-0.2
		C60.1,534.8,46,539,31.2,522c-15.4-17.6-17.6-34.8-6.3-48.5c5.7-6.9,15.3-10.8,23-14c8.6-3.5,15.4-6.3,14.2-11.7
		c0-0.3-0.2-1-1.2-1.6c-2.9-1.9-10.3-0.5-21.9,4.3C5.2,464.5,2.6,489.2,4,502.6c2.5,23.4,20.8,46.7,39.2,49.9c0,0,0.1,0,0.1,0
		c0,0,4.9,0.6,5.3,15.5c0.3,11.1,9.5,19.6,15.6,25.2c2.5,2.3,4.9,4.6,5.1,5.6c0,0.1,0,0.1,0,0.2c0,0.1,2.5,8-11.9,14.8
		c-2.7,1.3-4.1,3.5-4.3,6.7c-0.9,14,23.3,41.7,25.3,43c2.2,1.4,13.9,3.4,21.3,0.3c3.3,1.5,6.7,1.8,9.7,1.8c1.8,0,3.4-0.1,4.9-0.2
		l0.6,0c3-0.2,5.2-1.5,6.3-3.7c1-2.1,0.8-4.6-0.8-7c-3.4-5.3-10.3-3.3-11.3-2.9c-10.1,0.7-16.8-21.6-19.3-31.5
		c0.2-0.1,0.4-0.2,0.6-0.3c4.8-2.6,9.7-5.4,13-8.4c1.4-1.3,2.8-2.7,4.2-4.1c6.3-6.4,12.3-12.5,23-10.5l2.7,0.5
		c11.8,2.2,18.9,3.5,20.7,8.4c0.8,2.3,2.3,9.8,4,18.5c2.6,13.4,5.5,28.6,7.8,33.3c3.3,6.8,8.9,7.9,16.5,7.9c1.6,0,3.3,0,5.1-0.1
		c2.8-0.1,4.9-1.2,5.8-3.1c1-2.2,0.4-5.3-1.6-7.9c-2.6-3.3-6.5-4.8-10.5-4.1c-0.2,0-1,0.2-1.8-1.6c-4.1-8.8-0.9-40,1.1-42.4
		c2.9,0.4,19.8,10.1,24.6,15.8c1.1,1.3,1.1,1.8,1,1.9c-0.7,4.8,0,25.1,9.3,29.9c3.3,1.7,6.1,1.4,7.8-0.9c2.5-3.3,1.9-10.4-2.9-15.4
		C216.8,634.3,218.2,629.1,219.5,624.1z M216.1,652.7c-8.4-4.4-9-24.5-8.4-28.2c0.1-0.9-0.3-1.9-1.4-3.2c-4.9-5.8-22.9-16.4-26-16.4
		c-0.9,0-1.4,0.9-1.5,1.2c-2.9,5.6-5.2,38.3-0.3,44.7c1,1.3,2.1,1.4,2.9,1.3c3.4-0.7,6.7,0.6,8.9,3.5c1.6,2.1,2.2,4.5,1.4,6.2
		c-0.6,1.4-2.2,2.1-4.4,2.2c-11.2,0.3-16.7,0.2-20.1-6.9c-2.2-4.5-5.2-20.2-7.6-32.9c-1.7-8.8-3.2-16.4-4-18.8
		c-2.1-5.8-9.6-7.2-21.9-9.4l-2.7-0.5c-1.6-0.3-3-0.4-4.4-0.4c-8.9,0-14.3,5.6-20.1,11.4c-1.3,1.3-2.7,2.7-4.1,4.1
		c-3.1,2.9-8,5.6-12.7,8.2c-0.1,0-0.1,0.1-0.2,0.1c-0.3,0.1-0.5,0.3-0.8,0.4c-0.3,0.1-0.5,0.3-0.8,0.4c-7.3,4.1-13.7,8-12.6,12.7
		c1.4,6,9.4,14,12.7,17.2c0.8,0.8,2,1.1,3.1,0.9c4.1-0.8,9.7,2.8,11.3,6.3c0.8,1.8,0.4,3.4-1.1,4.5c-0.5,0.3-1,0.6-1.5,0.9
		c-0.3,0.2-0.6,0.3-1,0.4c-0.3,0.1-0.7,0.3-1,0.4c-6.9,2.3-16.9,0.3-18.4-0.7c-1.9-1.3-25.4-28.9-24.5-41.6c0.2-2.5,1.3-4.2,3.4-5.2
		c15.1-7.2,13.1-15.8,12.8-16.8c-0.1-0.8-0.7-1.6-1.5-2.6c13.4,1.7,25.2-18.1,3.5-20.6c-12.6-1.4,0.3-8.7-5.3-18.6
		c-5-8.8-14.6-5.3-20.3-2.8c-1.6-2.7-3.4-3.1-3.9-3.1c-17.7-3.1-35.4-25.8-37.8-48.5c-1.4-13,1.2-36.9,34.1-50.4
		c14.7-6,19-5.2,20.2-4.5c0.5,0.3,0.5,0.5,0.5,0.5c0,0.1,0,0.1,0,0.2c0.9,4.1-5.3,6.6-13.2,9.9c-7.9,3.2-17.7,7.2-23.7,14.5
		c-11.7,14.1-9.4,32.6,6.3,50.6c15.7,17.9,30.4,13.3,31.1,13.1c0,0,0,0,0,0c2.8-1,5.4-1.9,8-2.7c-9.3,27.3,29.5,25.9,43.4,27.4
		c14.5,1.6,28.8,22.6,41.2,19.7c12.4-2.9,24.3-14.6,24.3-29.6c0-4.1-3.4-9.2-8.2-14.3c5.7-1.6,9.5-3.3,9.9-3.5c1-0.6,2-1.3,2.9-2.1
		c4.3,4.5,11.1,7.8,22.2,7.8c0,0,0.2,0,0.4,0c1.5,0,6.8-0.2,12.2-3.5c-0.9,6.7-3.1,14.4-5.9,22.3c-4.3-0.9-15.8-2.8-20.7,3.4
		c-6.1,7.7,1.8,11.9,2.8,16c1.1,4.1-4.1,8,0.7,14c0.8,1,4.9,4.1,7.9,4.8c2.5,5.4,7.4,9.6,11.2,12.9c2.2,1.9,4.1,3.5,5,4.8
		c1.6,2.3,0.6,6-0.4,9.9c-1.4,5.2-2.9,11.1,1.1,15.3c4.1,4.3,4.8,10.5,2.7,13.3C220.3,654.3,217.8,653.6,216.1,652.7z M109.5,653.4
		c0.1,0,6.5-2.3,9.5,2.3c1.2,1.8,1.4,3.8,0.7,5.3c-0.8,1.6-2.5,2.6-4.9,2.7l-0.6,0c-3.4,0.3-7.9,0.6-12.5-1c0.2-0.1,0.4-0.2,0.6-0.4
		c2.2-1.6,2.8-4,1.7-6.5c-1.8-4.1-8.2-8.3-13.1-7.3c-0.6,0.1-1.2,0-1.7-0.4c-2.5-2.4-10.9-10.7-12.3-16.4c-0.8-3.5,5-7.1,11.4-10.7
		c2.6,10.3,9.4,32.3,20.3,32.3c0.2,0,0.5,0,0.7,0C109.3,653.5,109.4,653.5,109.5,653.4z M176.6,510.4c-0.2-2-0.7-3.9-1.3-5.8
		c-2.2-7-2.6-14.7-1.7-18.6c0.7-3.4,2-5.7,3.2-5.9c0.1,0,0.1,0,0.2,0c1,0,2.4,1.2,3.8,3.5c3.9,6.1,8.7,10.9,10.6,12.7
		c0.8,0.8,2,1.1,3.1,0.8c5.5-1.5,13.9-0.9,17.2-0.6c1.3,0.1,2.5-0.5,3.2-1.7c5.4-9.8,10.2-16.6,12.1-16.8c0.1,0,0.1,0,0.2,0.1
		c3.6,4.1,2.5,22,1.7,28.6c0,0,0,0.1,0,0.1c0,10.9-2.8,19.1-8.3,24.3c-0.4,0.4-0.8,0.7-1.2,1c-0.3,0.2-0.6,0.5-0.9,0.7
		c-0.3,0.2-0.6,0.4-0.9,0.6c-6.2,4.1-12.7,3.9-12.8,3.9c-10.4,0-16.9-3.1-20.9-7.4c-0.2-0.2-0.4-0.4-0.6-0.6
		c-0.2-0.2-0.4-0.4-0.5-0.6c-4.8-5.9-5.7-13.3-6.2-17.6L176.6,510.4z"/>
	<path class="st0" d="M243.3,83.2c0.8,0,1.6,0.1,2.4,0.1c10.2,0,20-3.7,27.7-10.6c8.3-7.4,13.2-17.6,13.8-28.7
		c0.6-11.1-3.1-21.8-10.5-30.1C269.3,5.6,259.1,0.7,248,0.1c-11.1-0.6-21.8,3.1-30.1,10.5c-8.3,7.4-13.2,17.6-13.8,28.7
		c-0.6,11.1,3.1,21.8,10.5,30.1C222,77.6,232.2,82.5,243.3,83.2z M219,11.8c7.4-6.6,16.7-10.2,26.6-10.2c0.8,0,1.5,0,2.3,0.1
		C258.6,2.3,268.4,7,275.5,15c7.1,8,10.7,18.2,10.1,28.9c-0.6,10.7-5.3,20.4-13.3,27.6c-8,7.1-18.2,10.7-28.9,10.1
		c-10.7-0.6-20.4-5.3-27.6-13.3c-7.1-8-10.7-18.2-10.1-28.9C206.4,28.7,211.1,18.9,219,11.8z"/>
	<path class="st0" d="M243.7,76c0.7,0,1.3,0.1,2,0.1c8.5,0,16.5-3.1,22.9-8.8c6.9-6.1,10.9-14.6,11.5-23.8c0.5-9.2-2.6-18-8.7-24.9
		c-6.1-6.9-14.6-10.9-23.8-11.5c-11.4-0.6-22.4,4.4-29.4,13.6c-0.3,0.4-0.2,0.9,0.2,1.2c0.4,0.3,0.9,0.2,1.2-0.2
		c6.6-8.7,17.1-13.5,28-12.9c8.8,0.5,16.8,4.4,22.6,10.9c5.8,6.5,8.8,15,8.3,23.7c-0.5,8.8-4.4,16.8-10.9,22.6
		c-6.5,5.8-15,8.8-23.7,8.3c-8.8-0.5-16.8-4.4-22.6-10.9c-5.8-6.5-8.8-15-8.3-23.7c0-0.5-0.3-0.8-0.8-0.9c-0.5,0-0.8,0.3-0.9,0.8
		c-0.5,9.2,2.6,18,8.7,24.9C226.1,71.4,234.5,75.5,243.7,76z"/>
	<path class="st0" d="M234.7,35.8c0.3,4.6,3.9,6.8,9,8.2c3.6,1,5.2,2,5.3,3.9c0.1,1.9-1.7,3.1-4.4,3.2c-3.1,0.2-6-0.7-8-1.6
		l-1.1,5.6c1.9,0.9,5,1.6,8.2,1.6l0.3,4.5l4.7-0.3l-0.3-4.8c5.4-1.3,8.2-5,8-9.3c-0.2-4.3-2.7-6.8-8.4-8.4c-4.1-1.3-5.8-2.2-5.9-3.8
		c-0.1-1.3,0.8-2.7,3.9-2.9c3.4-0.2,5.7,0.8,6.9,1.2l1.1-5.5c-1.6-0.7-3.8-1.2-7-1.2l-0.2-4.2l-4.7,0.3l0.3,4.5
		C237.3,28.2,234.5,31.6,234.7,35.8z"/>
	<path class="st0" d="M101.5,245c6.9,0,13.9-1.8,20.3-5.5c19.3-11.2,25.9-36.1,14.7-55.4c-5.4-9.4-14.2-16-24.7-18.8
		c-10.5-2.8-21.4-1.3-30.7,4.1c-19.3,11.2-25.9,36.1-14.7,55.4C73.9,237.8,87.5,245,101.5,245z M111.3,167c10,2.7,18.4,9.1,23.7,18
		c10.8,18.5,4.5,42.4-14.1,53.1c-18.5,10.8-42.4,4.5-53.1-14.1c-10.8-18.5-4.5-42.4,14.1-53.1c6-3.5,12.7-5.3,19.5-5.3
		C104.7,165.6,108,166.1,111.3,167z"/>
	<path class="st0" d="M75,202.5c-0.5,1.8-0.2,3.8,0.7,5.4l10.7,18.5c1.3,2.3,3.7,3.5,6.2,3.5c1.2,0,2.4-0.3,3.6-1l28.8-16.7
		c1.6-1,2.8-2.5,3.3-4.3c0.5-1.8,0.2-3.8-0.7-5.4L116.8,184c-2-3.4-6.3-4.5-9.7-2.6l-28.8,16.7C76.7,199.1,75.5,200.7,75,202.5z
		 M115.4,184.8l10.7,18.5c0.7,1.3,0.9,2.7,0.6,4.1c-0.4,1.4-1.3,2.6-2.5,3.3l-28.8,16.7c-1.3,0.7-2.7,0.9-4.1,0.6
		c-1.4-0.4-2.6-1.3-3.3-2.5l-10.7-18.5c-0.7-1.3-0.9-2.7-0.6-4.1c0.4-1.4,1.3-2.6,2.5-3.3l28.8-16.7c0.9-0.5,1.8-0.7,2.7-0.7
		C112.6,182.1,114.4,183.1,115.4,184.8z"/>
	<path class="st0" d="M84.6,204.9c-0.4,0-0.8,0.3-0.9,0.8c0,0.5,0.3,0.8,0.8,0.9l17.6,0.9c0,0,0,0,0,0c0.2,0,0.3-0.1,0.5-0.2
		c0.1-0.1,0.3-0.2,0.4-0.4l7.9-15.7c0.2-0.4,0-0.9-0.4-1.1c-0.4-0.2-0.9,0-1.1,0.4l-7.7,15.3L84.6,204.9z"/>
	<path class="st0" d="M121.1,129.8c2.8,0.6,5.6,0.9,8.3,0.9c7.4,0,14.7-2.1,21-6.2c18.1-11.6,23.3-35.8,11.7-53.9
		c-5.6-8.8-14.3-14.8-24.5-17c-10.2-2.2-20.6-0.3-29.4,5.3c-8.8,5.6-14.8,14.3-17,24.5c-2.2,10.2-0.3,20.6,5.3,29.4
		C102.2,121.6,110.9,127.6,121.1,129.8z M92.9,83.8c2.1-9.7,7.9-18.1,16.3-23.5c6.1-3.9,13-6,20.1-6c2.7,0,5.3,0.3,8,0.9
		c9.7,2.1,18.1,7.9,23.5,16.3c11.1,17.3,6.1,40.5-11.2,51.6c-8.4,5.4-18.4,7.2-28.1,5.1c-9.7-2.1-18.1-7.9-23.5-16.3
		C92.6,103.5,90.7,93.6,92.9,83.8z"/>
	<path class="st0" d="M129.2,105.1c-2.9,0-5.3,2.4-5.2,5.4c0,2.9,2.4,5.3,5.4,5.2c2.9,0,5.3-2.4,5.2-5.4
		C134.6,107.4,132.2,105.1,129.2,105.1z"/>
	<path class="st0" d="M140.2,99.4c-3.3-2.8-7.1-4.2-10.9-4.2c-3.8,0-7.5,1.6-10.8,4.4c-1,0.9-1.1,2.4-0.2,3.4c0.9,1,2.4,1.1,3.4,0.2
		c2.4-2.1,5-3.2,7.7-3.3c2.7,0,5.3,1,7.8,3.1c0.5,0.4,1,0.6,1.6,0.6c0.7,0,1.4-0.3,1.8-0.9C141.4,101.8,141.2,100.3,140.2,99.4z"/>
	<path class="st0" d="M145.7,90.7c-5.1-4.2-10.8-6.3-16.5-6.3c-5.7,0.1-11.4,2.4-16.4,6.7c-1,0.9-1.1,2.4-0.2,3.4
		c0.5,0.6,1.2,0.8,1.9,0.8c0.5,0,1.1-0.2,1.5-0.6c4.2-3.6,8.6-5.5,13.3-5.5c4.7-0.1,9.2,1.7,13.4,5.2c1,0.8,2.5,0.7,3.4-0.3
		C146.9,93,146.7,91.5,145.7,90.7z"/>
	<path class="st0" d="M108.7,86.7c0.6,0,1.1-0.2,1.6-0.6c5.9-5.2,12.2-7.8,18.8-7.9c6.6-0.1,13,2.4,19,7.5c1,0.9,2.5,0.7,3.4-0.3
		c0.9-1,0.7-2.5-0.3-3.4c-3.3-2.8-6.9-5-10.5-6.4c-3.8-1.5-7.7-2.2-11.6-2.2c-3.9,0-7.8,0.9-11.6,2.5c-3.6,1.5-7.1,3.8-10.4,6.7
		c-1,0.9-1.1,2.4-0.2,3.4C107.3,86.4,108,86.7,108.7,86.7z"/>
	<path class="st0" d="M145.3,367.7c0.1,0,0.2,0,0.2,0c0.4,0,0.7-0.2,0.8-0.6c0.1-0.4-0.1-0.9-0.6-1c-3.2-0.9-6.5-1.6-9.8-1.9
		c-0.5,0-0.9,0.3-0.9,0.7c0,0.5,0.3,0.9,0.7,0.9C139,366.2,142.2,366.8,145.3,367.7z"/>
	<path class="st0" d="M163.2,376.5c0.3,0,0.5-0.1,0.7-0.3c0.3-0.4,0.2-0.9-0.2-1.1c-2.7-2-5.6-3.7-8.5-5.2c-0.4-0.2-0.9,0-1.1,0.4
		c-0.2,0.4,0,0.9,0.4,1.1c2.9,1.4,5.7,3.1,8.3,5.1C162.8,376.4,163,376.5,163.2,376.5z"/>
	<path class="st0" d="M93.1,383.1c-0.4-0.3-0.9-0.2-1.1,0.2c-1.9,2.7-3.4,5.7-4.7,8.9c-0.2,0.4,0,0.9,0.5,1.1c0.1,0,0.2,0.1,0.3,0.1
		c0.3,0,0.6-0.2,0.8-0.5c1.2-3,2.7-5.9,4.5-8.6C93.6,383.8,93.5,383.3,93.1,383.1z"/>
	<path class="st0" d="M165.8,445.6c0.2,0,0.3,0,0.4-0.1c2.8-1.8,5.5-3.8,8-6c0.3-0.3,0.4-0.8,0.1-1.2c-0.3-0.3-0.8-0.4-1.2-0.1
		c-2.4,2.1-5,4.1-7.8,5.8c-0.4,0.2-0.5,0.8-0.3,1.1C165.3,445.5,165.5,445.6,165.8,445.6z"/>
	<path class="st0" d="M100.2,447.3c0.2,0.1,0.3,0.2,0.5,0.2c0.2,0,0.5-0.1,0.7-0.3c0.3-0.4,0.2-0.9-0.1-1.2c-2.5-2-4.8-4.3-6.8-6.8
		c-0.3-0.4-0.8-0.4-1.2-0.2c-0.4,0.3-0.4,0.8-0.2,1.2C95.1,442.8,97.5,445.2,100.2,447.3z"/>
	<path class="st0" d="M138.1,454.2c-3.3,0.5-6.5,0.7-9.7,0.6c0,0,0,0,0,0c-0.4,0-0.8,0.4-0.8,0.8c0,0.5,0.4,0.8,0.8,0.8
		c0.4,0,0.7,0,1.1,0c2.9,0,5.9-0.2,8.9-0.6c0.5-0.1,0.8-0.5,0.7-0.9C139,454.5,138.5,454.1,138.1,454.2z"/>
	<path class="st0" d="M85.7,401.2c-0.5-0.1-0.9,0.2-0.9,0.7c-0.4,2.7-0.6,5.5-0.6,8.4c0,0.5,0,1.1,0,1.6c0,0.4,0.4,0.8,0.8,0.8
		c0,0,0,0,0,0c0.5,0,0.8-0.4,0.8-0.8c0-0.5,0-1.1,0-1.6c0-2.8,0.2-5.5,0.6-8.1C86.5,401.7,86.2,401.2,85.7,401.2z"/>
	<path class="st0" d="M156.8,448.8c-3,1.3-6,2.5-9.1,3.4c-0.4,0.1-0.7,0.6-0.6,1c0.1,0.4,0.4,0.6,0.8,0.6c0.1,0,0.2,0,0.2,0
		c3.2-0.9,6.3-2.1,9.4-3.5c0.4-0.2,0.6-0.7,0.4-1.1C157.7,448.8,157.2,448.6,156.8,448.8z"/>
	<path class="st0" d="M109.5,450.9c-0.4-0.2-0.9,0-1.1,0.4c-0.2,0.4,0,0.9,0.4,1.1c3,1.3,6.2,2.3,9.6,3c0.1,0,0.1,0,0.2,0
		c0.4,0,0.7-0.3,0.8-0.7c0.1-0.4-0.2-0.9-0.6-1C115.5,453.1,112.3,452.1,109.5,450.9z"/>
	<path class="st0" d="M180.6,432.7c0.2,0,0.5-0.1,0.6-0.3c2.2-2.4,4.3-5,6.3-7.7c0.3-0.4,0.2-0.9-0.2-1.2c-0.4-0.3-0.9-0.2-1.2,0.2
		c-2,2.6-4.1,5.2-6.2,7.6c-0.3,0.3-0.3,0.9,0.1,1.2C180.2,432.6,180.4,432.7,180.6,432.7z"/>
	<path class="st0" d="M88.1,431.4c0.1,0.3,0.4,0.5,0.8,0.5c0.1,0,0.2,0,0.3-0.1c0.4-0.2,0.6-0.7,0.4-1.1c-1.2-2.9-2.1-6-2.8-9.3
		c-0.1-0.4-0.5-0.7-1-0.7c-0.4,0.1-0.7,0.5-0.7,1C85.9,425.2,86.8,428.4,88.1,431.4z"/>
	<path class="st0" d="M210.7,322.5c0,0.4,0.4,0.7,0.8,0.7c0,0,0.1,0,0.1,0c0.5,0,0.8-0.4,0.7-0.9c-0.3-3.2-0.7-6.5-1.1-9.8
		c-0.1-0.5-0.5-0.8-0.9-0.7c-0.5,0.1-0.8,0.5-0.7,0.9C210,316.1,210.4,319.3,210.7,322.5z"/>
	<path class="st0" d="M207.5,382.1c0.1,0,0.1,0,0.2,0c0.4,0,0.7-0.2,0.8-0.6c0.8-3.2,1.6-6.4,2.2-9.7c0.1-0.4-0.2-0.9-0.7-1
		c-0.5-0.1-0.9,0.2-1,0.7c-0.6,3.2-1.3,6.5-2.2,9.6C206.8,381.5,207.1,382,207.5,382.1z"/>
	<path class="st0" d="M208,293c-0.1-0.4-0.5-0.7-1-0.6c-0.4,0.1-0.7,0.5-0.6,1c0.7,3.3,1.3,6.6,1.8,9.7c0.1,0.4,0.4,0.7,0.8,0.7
		c0,0,0.1,0,0.1,0c0.4-0.1,0.8-0.5,0.7-0.9C209.2,299.6,208.6,296.3,208,293z"/>
	<path class="st0" d="M213.3,342.2c0-3.2-0.1-6.6-0.3-9.9c0-0.5-0.4-0.8-0.9-0.8c-0.5,0-0.8,0.4-0.8,0.9c0.2,3.3,0.3,6.6,0.3,9.8
		c0,0.5,0.4,0.8,0.8,0.8c0,0,0,0,0,0C213,343,213.3,342.6,213.3,342.2z"/>
	<path class="st0" d="M204.1,390.5c-1.1,3.1-2.3,6.2-3.6,9.1c-0.2,0.4,0,0.9,0.4,1.1c0.1,0,0.2,0.1,0.3,0.1c0.3,0,0.6-0.2,0.8-0.5
		c1.3-3,2.6-6.1,3.7-9.2c0.2-0.4-0.1-0.9-0.5-1.1C204.7,389.8,204.2,390,204.1,390.5z"/>
	<path class="st0" d="M205.9,283.3c-0.7-3.1-1.5-6.3-2.3-9.6c-0.1-0.4-0.6-0.7-1-0.6c-0.4,0.1-0.7,0.6-0.6,1
		c0.8,3.3,1.6,6.5,2.3,9.6c0.1,0.4,0.4,0.6,0.8,0.6c0.1,0,0.1,0,0.2,0C205.7,284.2,206,283.7,205.9,283.3z"/>
	<path class="st0" d="M211.3,362.7C211.3,362.7,211.4,362.7,211.3,362.7c0.5,0,0.9-0.3,0.9-0.7c0.4-3.2,0.7-6.5,0.8-9.9
		c0-0.5-0.3-0.8-0.8-0.9c-0.4,0-0.8,0.3-0.9,0.8c-0.2,3.3-0.5,6.6-0.8,9.8C210.5,362.2,210.9,362.7,211.3,362.7z"/>
	<path class="st0" d="M185.5,231.9c0.1,0.3,0.4,0.5,0.7,0.5c0.1,0,0.2,0,0.4-0.1c0.4-0.2,0.6-0.7,0.4-1.1c-1.4-2.9-2.9-5.8-4.5-8.9
		c-0.2-0.4-0.7-0.5-1.1-0.3c-0.4,0.2-0.5,0.7-0.3,1.1C182.7,226.1,184.2,229.1,185.5,231.9z"/>
	<path class="st0" d="M134.4,158.7c-0.3,0.3-0.3,0.8,0,1.2c2.2,2.4,4.5,4.8,6.6,7.3c0.2,0.2,0.4,0.3,0.6,0.3c0.2,0,0.4-0.1,0.5-0.2
		c0.3-0.3,0.4-0.8,0.1-1.2c-2.2-2.5-4.4-4.9-6.7-7.3C135.3,158.4,134.8,158.4,134.4,158.7z"/>
	<path class="st0" d="M120.4,144.8c-0.3,0.3-0.3,0.9,0,1.2c2.3,2.2,4.7,4.5,7.1,6.8c0.2,0.2,0.4,0.2,0.6,0.2c0.2,0,0.4-0.1,0.6-0.2
		c0.3-0.3,0.3-0.8,0-1.2c-2.4-2.4-4.8-4.7-7.1-6.9C121.2,144.4,120.7,144.5,120.4,144.8z"/>
	<path class="st0" d="M154.3,182.6c0.2,0,0.4-0.1,0.5-0.2c0.4-0.3,0.4-0.8,0.1-1.2c-2-2.6-4.1-5.1-6.3-7.7c-0.3-0.3-0.8-0.4-1.2-0.1
		c-0.3,0.3-0.4,0.8-0.1,1.2c2.1,2.5,4.2,5.1,6.2,7.6C153.8,182.5,154.1,182.6,154.3,182.6z"/>
	<path class="st0" d="M176.2,214.6c0.2,0.3,0.4,0.4,0.7,0.4c0.1,0,0.3,0,0.4-0.1c0.4-0.2,0.5-0.7,0.3-1.1c-1.7-2.8-3.4-5.6-5.3-8.4
		c-0.2-0.4-0.8-0.5-1.1-0.2c-0.4,0.2-0.5,0.8-0.2,1.1C172.8,209.1,174.6,211.9,176.2,214.6z"/>
	<path class="st0" d="M166.1,198.4c0.2,0,0.3,0,0.5-0.1c0.4-0.3,0.5-0.8,0.2-1.1c-1.9-2.7-3.8-5.4-5.8-8c-0.3-0.4-0.8-0.4-1.2-0.2
		c-0.4,0.3-0.4,0.8-0.2,1.2c2,2.7,3.9,5.4,5.8,8C165.6,198.3,165.9,198.4,166.1,198.4z"/>
	<path class="st0" d="M160.2,410.3v-5.9c0-0.4-0.3-0.7-0.6-0.8l-5.7-1.3c-0.2-1-0.5-2-0.8-3l4.3-4c0.3-0.3,0.3-0.7,0.2-1l-2.9-5.1
		c-0.2-0.3-0.6-0.5-1-0.4l-5.6,1.7c-0.7-0.8-1.4-1.5-2.2-2.2l1.7-5.6c0.1-0.4,0-0.8-0.4-1l-5.1-2.9c-0.3-0.2-0.8-0.1-1,0.2l-4,4.3
		c-1-0.3-2-0.6-3-0.8l-1.3-5.7c-0.1-0.4-0.4-0.6-0.8-0.6h-5.9c-0.4,0-0.7,0.3-0.8,0.6l-1.3,5.7c-1,0.2-2,0.5-3,0.8l-4-4.3
		c-0.3-0.3-0.7-0.3-1-0.2l-5.1,2.9c-0.3,0.2-0.5,0.6-0.4,1l1.7,5.6c-0.8,0.7-1.5,1.4-2.2,2.2l-5.6-1.7c-0.4-0.1-0.8,0-1,0.4
		l-2.9,5.1c-0.2,0.3-0.1,0.8,0.2,1l4.3,4c-0.3,1-0.6,2-0.8,3l-5.7,1.3c-0.4,0.1-0.6,0.4-0.6,0.8v5.9c0,0.4,0.3,0.7,0.6,0.8l5.7,1.3
		c0.2,1,0.5,2,0.8,3l-4.3,4c-0.3,0.3-0.3,0.7-0.2,1l2.9,5.1c0.2,0.3,0.6,0.5,1,0.4l5.6-1.7c0.7,0.8,1.4,1.5,2.2,2.2l-1.7,5.6
		c-0.1,0.4,0,0.8,0.4,1l5.1,2.9c0.3,0.2,0.8,0.1,1-0.2l4-4.3c1,0.3,2,0.6,3,0.8l1.3,5.7c0.1,0.4,0.4,0.6,0.8,0.6h5.9
		c0.4,0,0.7-0.3,0.8-0.6l1.3-5.7c1-0.2,2-0.5,3-0.8l4,4.3c0.3,0.3,0.7,0.3,1,0.2l5.1-2.9c0.3-0.2,0.5-0.6,0.4-1l-1.7-5.6
		c0.8-0.7,1.5-1.4,2.2-2.2l5.6,1.7c0.4,0.1,0.8,0,1-0.4l2.9-5.1c0.2-0.3,0.1-0.8-0.2-1l-4.3-4c0.3-1,0.6-2,0.8-3l5.7-1.3
		C159.9,411,160.2,410.7,160.2,410.3z M158.6,409.7l-5.6,1.3c-0.3,0.1-0.6,0.3-0.6,0.7c-0.2,1.3-0.6,2.6-1,3.8
		c-0.1,0.3,0,0.7,0.2,0.9l4.2,3.9l-2.3,3.9l-5.5-1.7c-0.3-0.1-0.7,0-0.9,0.3c-0.8,1-1.8,1.9-2.8,2.8c-0.3,0.2-0.4,0.6-0.3,0.9
		l1.7,5.5l-3.9,2.3l-3.9-4.2c-0.2-0.2-0.6-0.3-0.9-0.2c-1.2,0.4-2.5,0.8-3.8,1c-0.3,0.1-0.6,0.3-0.7,0.6l-1.3,5.6h-4.5l-1.3-5.6
		c-0.1-0.3-0.3-0.6-0.7-0.6c-1.3-0.2-2.6-0.6-3.8-1c-0.3-0.1-0.7,0-0.9,0.2l-3.9,4.2l-3.9-2.3l1.7-5.5c0.1-0.3,0-0.7-0.3-0.9
		c-1-0.8-1.9-1.8-2.8-2.8c-0.2-0.3-0.6-0.4-0.9-0.3l-5.5,1.7l-2.3-3.9l4.2-3.9c0.2-0.2,0.3-0.6,0.2-0.9c-0.4-1.2-0.8-2.5-1-3.8
		c-0.1-0.3-0.3-0.6-0.6-0.7l-5.6-1.3v-4.5l5.6-1.3c0.3-0.1,0.6-0.3,0.6-0.7c0.2-1.3,0.6-2.6,1-3.8c0.1-0.3,0-0.7-0.2-0.9l-4.2-3.9
		l2.3-3.9l5.5,1.7c0.3,0.1,0.7,0,0.9-0.3c0.8-1,1.8-1.9,2.8-2.8c0.3-0.2,0.4-0.6,0.3-0.9l-1.7-5.5l3.9-2.3l3.9,4.2
		c0.2,0.2,0.6,0.3,0.9,0.2c1.2-0.4,2.5-0.8,3.8-1c0.3-0.1,0.6-0.3,0.7-0.6l1.3-5.6h4.5l1.3,5.6c0.1,0.3,0.3,0.6,0.7,0.6
		c1.3,0.2,2.6,0.6,3.8,1c0.3,0.1,0.7,0,0.9-0.2l3.9-4.2l3.9,2.3l-1.7,5.5c-0.1,0.3,0,0.7,0.3,0.9c1,0.8,1.9,1.8,2.8,2.8
		c0.2,0.3,0.6,0.4,0.9,0.3l5.5-1.7l2.3,3.9l-4.2,3.9c-0.2,0.2-0.3,0.6-0.2,0.9c0.4,1.2,0.8,2.5,1,3.8c0.1,0.3,0.3,0.6,0.6,0.7
		l5.6,1.3V409.7z"/>
	<path class="st0" d="M129.1,391.5c-8.8,0-15.9,7.1-15.9,15.9s7.1,15.9,15.9,15.9c8.8,0,15.9-7.1,15.9-15.9S137.9,391.5,129.1,391.5
		z M129.1,421.6c-7.9,0-14.2-6.4-14.2-14.2c0-7.8,6.4-14.2,14.2-14.2c7.8,0,14.2,6.4,14.2,14.2C143.4,415.2,137,421.6,129.1,421.6z"
		/>
	<path class="st0" d="M43.4,329.1l10.1,2.3c0.4,2,0.9,3.9,1.5,5.8l-7.6,7c-0.3,0.3-0.3,0.7-0.2,1l5,8.7c0.2,0.3,0.6,0.5,1,0.4
		l9.9-3.1c1.3,1.5,2.7,2.9,4.3,4.2l-3.1,9.9c-0.1,0.4,0,0.8,0.4,1l8.7,5c0.3,0.2,0.8,0.1,1-0.2l7-7.6c1.9,0.6,3.8,1.2,5.8,1.5
		l2.3,10.1c0.1,0.4,0.4,0.6,0.8,0.6h8.1c-0.2,0.3-0.2,0.7,0.1,1c0.2,0.2,0.4,0.3,0.6,0.3c0.2,0,0.4-0.1,0.5-0.2c2.4-2.1,5-4,7.9-5.6
		c0.4-0.2,0.5-0.7,0.3-1.1c-0.2-0.4-0.7-0.5-1.1-0.3c-1.8,1-3.6,2.1-5.2,3.3l1.8-8.2c2-0.4,3.9-0.9,5.8-1.5l7,7.6
		c0.3,0.3,0.7,0.3,1,0.2l8.7-5c0.2-0.1,0.4-0.3,0.4-0.6c0.3-0.2,0.5-0.5,0.4-0.8c0-0.4-0.4-0.7-0.8-0.7l-2.7-8.8
		c1.5-1.3,2.9-2.7,4.3-4.2l9.9,3.1c0.4,0.1,0.8,0,1-0.4l5-8.7c0.2-0.3,0.1-0.8-0.2-1l-7.6-7c0.6-1.9,1.2-3.8,1.5-5.8l10.1-2.3
		c0.4-0.1,0.6-0.4,0.6-0.8v-10c0-0.4-0.3-0.7-0.6-0.8l-10.1-2.3c-0.4-2-0.9-3.9-1.5-5.8l7.6-7c0.3-0.3,0.3-0.7,0.2-1l-5-8.7
		c-0.2-0.3-0.6-0.5-1-0.4l-9.9,3.1c-1.3-1.5-2.7-2.9-4.3-4.2l3.1-9.9c0.1-0.4,0-0.8-0.4-1l-8.7-5c-0.3-0.2-0.8-0.1-1,0.2l-7,7.6
		c-1.9-0.6-3.8-1.2-5.8-1.5l-2.3-10.1c-0.1-0.4-0.4-0.6-0.8-0.6h-10c-0.4,0-0.7,0.3-0.8,0.6l-2.3,10.1c-2,0.4-3.9,0.9-5.8,1.5
		l-7-7.6c-0.3-0.3-0.7-0.3-1-0.2l-8.7,5c-0.3,0.2-0.5,0.6-0.4,1l3.1,9.9c-1.5,1.3-2.9,2.7-4.3,4.2l-9.9-3.1c-0.4-0.1-0.8,0-1,0.4
		l-5,8.7c-0.2,0.3-0.1,0.8,0.2,1l7.6,7c-0.6,1.9-1.2,3.8-1.5,5.8l-10.1,2.3c-0.4,0.1-0.6,0.4-0.6,0.8v10
		C42.8,328.6,43,329,43.4,329.1z M44.4,318.9l10-2.3c0.3-0.1,0.6-0.3,0.6-0.7c0.4-2.3,1-4.5,1.8-6.6c0.1-0.3,0-0.7-0.2-0.9l-7.5-7
		l4.3-7.5l9.8,3.1c0.3,0.1,0.7,0,0.9-0.3c1.5-1.7,3.1-3.4,4.8-4.8c0.3-0.2,0.4-0.6,0.3-0.9l-3.1-9.8l7.5-4.3l7,7.5
		c0.2,0.2,0.6,0.3,0.9,0.2c2.1-0.8,4.3-1.4,6.6-1.8c0.3-0.1,0.6-0.3,0.7-0.6l2.3-10h8.7l2.3,10c0.1,0.3,0.3,0.6,0.7,0.6
		c2.3,0.4,4.5,1,6.6,1.8c0.3,0.1,0.7,0,0.9-0.2l7-7.5l7.5,4.3l-3.1,9.8c-0.1,0.3,0,0.7,0.3,0.9c1.7,1.5,3.4,3.1,4.8,4.8
		c0.2,0.3,0.6,0.4,0.9,0.3l9.8-3.1l4.3,7.5l-7.5,7c-0.2,0.2-0.3,0.6-0.2,0.9c0.8,2.1,1.4,4.3,1.8,6.6c0.1,0.3,0.3,0.6,0.6,0.7
		l10,2.3v8.7l-10,2.3c-0.3,0.1-0.6,0.3-0.6,0.7c-0.4,2.3-1,4.5-1.8,6.6c-0.1,0.3,0,0.7,0.2,0.9l7.5,7l-4.3,7.5l-9.8-3.1
		c-0.3-0.1-0.7,0-0.9,0.3c-1.5,1.7-3.1,3.4-4.8,4.8c-0.3,0.2-0.4,0.6-0.3,0.9l2.8,9l0.3,0.8l-1.8,1l-5.7,3.3l-7-7.5
		c-0.2-0.2-0.6-0.3-0.9-0.2c-2.1,0.8-4.3,1.4-6.6,1.8c-0.3,0.1-0.6,0.3-0.7,0.6l-2.3,10H91l-2.3-10c-0.1-0.3-0.3-0.6-0.7-0.6
		c-2.3-0.4-4.5-1-6.6-1.8c-0.3-0.1-0.7,0-0.9,0.2l-7,7.5l-7.5-4.3l3.1-9.8c0.1-0.3,0-0.7-0.3-0.9c-1.7-1.5-3.4-3.1-4.8-4.8
		c-0.2-0.3-0.6-0.4-0.9-0.3l-9.8,3.1l-4.3-7.5l7.5-7c0.2-0.2,0.3-0.6,0.2-0.9c-0.8-2.1-1.4-4.3-1.8-6.6c-0.1-0.3-0.3-0.6-0.6-0.7
		l-10-2.3V318.9z"/>
	<path class="st0" d="M95.4,349.9c14.7,0,26.6-11.9,26.6-26.6c0-14.7-11.9-26.6-26.6-26.6c-7.1,0-13.8,2.8-18.8,7.8
		c-5,5-7.8,11.7-7.8,18.8C68.8,337.9,80.7,349.9,95.4,349.9z M120.3,323.3c0,13.8-11.2,24.9-24.9,24.9c-13.8,0-24.9-11.2-24.9-24.9
		c0-6.7,2.6-12.9,7.3-17.6c4.7-4.7,11-7.3,17.6-7.3C109.1,298.3,120.3,309.5,120.3,323.3z"/>
	<path class="st0" d="M235.6,164.6c0.5,1.6,2.1,2.9,3.8,2.9h7.3c0.9,0,1.6-0.4,2.1-1c0.5-0.6,0.6-1.5,0.4-2.4l-2.1-7.3
		c-0.5-1.6-2.1-2.9-3.8-2.9h-7.3c-0.9,0-1.6,0.4-2.1,1c-0.5,0.6-0.6,1.5-0.4,2.4L235.6,164.6z M235.1,155.9c0.2-0.3,0.5-0.3,0.8-0.3
		h7.3c0.9,0,1.9,0.8,2.2,1.7l2.1,7.3c0.1,0.4,0.1,0.7-0.1,0.9c-0.2,0.3-0.5,0.3-0.8,0.3h-7.3c-0.9,0-1.9-0.8-2.2-1.7l-2.1-7.3
		C234.9,156.4,235,156.1,235.1,155.9z"/>
	<path class="st0" d="M220.4,164.6c0.5,1.6,2.1,2.9,3.8,2.9h7.3c0.9,0,1.6-0.4,2.1-1c0.5-0.6,0.6-1.5,0.4-2.4l-2.1-7.3
		c-0.5-1.6-2.1-2.9-3.8-2.9h-7.3c-0.9,0-1.6,0.4-2.1,1c-0.5,0.6-0.6,1.5-0.4,2.4L220.4,164.6z M219.9,155.9c0.2-0.3,0.5-0.3,0.8-0.3
		h7.3c0.9,0,1.9,0.8,2.2,1.7l2.1,7.3c0.1,0.4,0.1,0.7-0.1,0.9c-0.2,0.3-0.5,0.3-0.8,0.3h-7.3c-0.9,0-1.9-0.8-2.2-1.7l-2.1-7.3
		C219.7,156.4,219.8,156.1,219.9,155.9z"/>
	<path class="st0" d="M323.8,186.6c2.8,0,5.1-1.1,6.6-3c1.5-2.1,1.9-4.8,1.1-7.7c-1.6-5.7-7.6-10.3-13.3-10.3c-2.8,0-5.1,1.1-6.6,3
		c-1.5,2.1-1.9,4.8-1.1,7.7C312.2,182,318.1,186.6,323.8,186.6z M312.9,169.6c1.1-1.5,3-2.4,5.2-2.4c5,0,10.2,4.1,11.7,9.1
		c0.7,2.4,0.4,4.6-0.8,6.2c-1.1,1.5-3,2.4-5.2,2.4c-5,0-10.2-4.1-11.7-9.1C311.4,173.4,311.7,171.2,312.9,169.6z"/>
	<path class="st0" d="M202.7,255.3c1.2,4.1,5.6,7.5,9.7,7.5h103c2.1,0,3.8-0.8,4.9-2.3c1.1-1.5,1.4-3.6,0.8-5.7l-2.7-9.1h53.8
		c2.1,0,3.9-0.8,5.1-2.3c1.2-1.6,1.5-3.7,0.8-5.9l-21.7-74.5h15.4l-1.6,19.4c-0.1,0.6,0.1,1.2,0.5,1.8c0,0,0,0,0.1,0.1l8.6,8.9
		c0.6,0.7,1.4,1.1,2.2,1.1l11.7,0c0.9,0,1.7-0.6,1.8-1.5l2.7-8.8c0,0,0-0.1,0-0.1c0.1-0.6-0.1-1.2-0.6-1.8l-15.5-20.8
		c0.6-1,0.7-2.2,0.4-3.5l-0.7-2.5c0-0.1,0.1-0.2,0.1-0.3c10,0.2,20.6,7.5,25.3,17c-0.3,0.2-0.6,0.4-0.8,0.7
		c-0.9,1.4-0.3,3.4,1.4,4.7c0.8,0.6,1.7,0.9,2.5,0.9c0.2,0,0.4,0,0.5,0c0.7-0.1,1.3-0.5,1.7-1.1c0.9-1.4,0.3-3.4-1.4-4.7
		c-0.7-0.5-1.5-0.8-2.3-0.9c-4.9-10.3-16.4-18.2-27.2-18.3c-0.2-0.4-0.4-0.8-0.8-1.1l-5.6-19.2c-0.8-2.7-3.5-4.8-6.2-4.8h-38.8
		c0-0.5,0.2-1,0.4-1.3c0.4-0.5,1.1-0.8,1.9-0.8h39.1c1.9,0,4.1,1.7,4.7,3.6l1.3,4.4c0.1,0.4,0.6,0.7,1,0.6c0.4-0.1,0.7-0.6,0.6-1
		l-1.3-4.4c-0.8-2.7-3.5-4.8-6.2-4.8h-39.1c-1.4,0-2.5,0.5-3.2,1.5c-0.5,0.7-0.8,1.6-0.7,2.5c-0.8,0.2-1.5,0.7-2,1.3
		c-0.8,1-0.9,2.4-0.5,3.8l2.6,8.9H210.5c-2.1,0-3.9,0.8-5.1,2.3c-1.2,1.6-1.5,3.7-0.8,5.9l8,27.5h-24.4c-2.1,0-3.8,0.8-4.9,2.3
		c-1.1,1.5-1.4,3.6-0.8,5.7L202.7,255.3z M409.7,173.8c1,0.8,1.3,1.9,1,2.4c-0.1,0.2-0.3,0.3-0.6,0.3c-0.5,0.1-1.2-0.1-1.8-0.5
		c-1-0.8-1.3-1.9-1-2.4c0,0,0.1-0.1,0.1-0.1c0.1-0.1,0.3-0.2,0.5-0.2c0.1,0,0.2,0,0.3,0c0.3,0,0.7,0.1,1.1,0.3
		C409.4,173.5,409.6,173.6,409.7,173.8z M188.2,179.7h24.9h0.9h0.9h10h1.7h10.2h1.7h1.6h1.7h10.2h1.7h7.2h1.7h28.7
		c3.5,0,7.1,2.8,8.1,6.3l4,13.8l0.8,2.7l8.7,29.9l0.5,1.6l2.9,10l0.2,0.8l0.2,0.8l2.8,9.6c0.5,1.6,0.3,3.2-0.5,4.3
		c-0.8,1-2,1.6-3.6,1.6h-103c-3.5,0-7.1-2.8-8.1-6.3l-20.2-69.3c-0.5-1.6-0.3-3.2,0.5-4.3C185.5,180.3,186.7,179.7,188.2,179.7z
		 M206.8,145.6c0.8-1.1,2.1-1.7,3.8-1.7h118.3l2.9,10h-77.3c-0.3,0-0.5,0.1-0.7,0.3c-0.2,0.2-0.2,0.5-0.1,0.7l6.7,23.1h-7.2
		l-1.3-4.6c-0.5-1.6-2.1-2.9-3.8-2.9h-7.3c-0.9,0-1.6,0.4-2.1,1c-0.5,0.6-0.6,1.5-0.4,2.4l1.2,4.1h-1.6l-1.3-4.6
		c-0.5-1.6-2.1-2.9-3.8-2.9h-7.3c-0.9,0-1.6,0.4-2.1,1c-0.5,0.6-0.6,1.5-0.4,2.4l1.2,4.1h-10l-8.1-27.9
		C205.7,148.4,205.9,146.8,206.8,145.6z M327.6,130.6c0.2-0.3,0.6-0.5,0.9-0.7l1.7,5.8c0.1,0.4,0.4,0.6,0.8,0.6c0.1,0,0.2,0,0.2,0
		c0.4-0.1,0.7-0.6,0.6-1l-1.6-5.5h6.6c-0.1,0.1-0.2,0.3-0.3,0.4c-0.9,1.4-0.3,3.4,1.4,4.7c0.5,0.4,1.1,0.7,1.7,0.8
		c1,2.4,2.4,4.6,4.1,6.7c0.3,0.3,0.5,0.7,0.8,1c0.4,0.4,0.7,0.8,1.1,1.2c1.5,1.6,3.1,3,4.8,4.3c0.4,0.3,0.9,0.6,1.3,0.9
		c0.4,0.2,0.7,0.5,1.1,0.7c4.5,2.8,9.6,4.4,14.5,4.4h0.8c0.2,0.4,0.6,0.9,1,1.2l3,2.2l-0.2,2.9h-16h-0.9h-0.9h-11.4h-1.7h-2
		c-2,0-4.1-1.7-4.7-3.6l-0.6-2l-0.5-1.6l-2.9-10l-0.2-0.8l-0.2-0.8l-2.7-9.4C327.1,132,327.2,131.2,327.6,130.6z M393.5,192.3
		c0,0,0,0.1-0.2,0.1l-11.7,0c-0.3,0-0.7-0.2-0.9-0.5c0,0,0,0-0.1-0.1L372,183c-0.2-0.2-0.2-0.4-0.2-0.6l1.6-19.5l0.1-0.8l0.1-0.8
		l0.1-1.8l0.1-1l0.1-1l0.2-1.9c0.1,0.5,0.3,1.3,0.8,2.6c0.1,0.4,0.3,0.8,0.4,1.3c0.1,0.3,0.2,0.7,0.3,1c0.1,0.2,0.1,0.4,0.2,0.7
		c0.1,0.3,0.2,0.5,0.3,0.8c0.1,0.3,0.2,0.5,0.3,0.8c0.8,2.3,1.8,5.2,3.1,9c0.1,0.3,0.4,0.6,0.8,0.6c0.1,0,0.2,0,0.3,0
		c0.4-0.1,0.7-0.6,0.5-1c-0.9-2.6-1.9-5.7-2.9-8.5c-0.1-0.3-0.2-0.6-0.3-0.8c-0.1-0.3-0.2-0.6-0.3-0.8c-0.1-0.3-0.2-0.5-0.3-0.8
		c-0.1-0.3-0.2-0.5-0.3-0.8c-0.1-0.3-0.2-0.5-0.3-0.8c-0.4-1.2-0.7-2.1-0.9-2.8l1.5,2l0.5,0.7l0.5,0.7l1.1,1.5l0.5,0.7l0.5,0.7
		l15.4,20.6c0.2,0.2,0.2,0.4,0.2,0.5l-2.7,8.8C393.5,192.2,393.5,192.3,393.5,192.3z M375.2,155.1L375.2,155.1l-0.4,0.1l0.6,0.5
		l-0.6-0.5l-0.6-0.4l-0.1-0.1l0,0c0-0.1,0-0.1,0.1-0.1c0.1,0,0.4,0,0.7,0.2C375,154.9,375.1,155,375.2,155.1z M379.8,154.6l-0.2,0.2
		l0,0.1l-1.2,1.7l-1.3-1.8l-0.5-0.7c-0.3-0.4-0.8-0.7-1.2-0.9c-0.5-0.2-1-0.2-1.5-0.1c-0.1,0-0.2,0.1-0.3,0.1
		c-0.5,0.2-0.9,0.7-1,1.4l0,0.3l-0.1,1.5l-2.1-1.5l-0.2-0.1c-0.6-0.4-0.8-1.1-0.6-1.4l0.1-0.1l2.8-4.1c0.1-0.1,0.2-0.2,0.3-0.2
		c0.3-0.1,0.7,0.1,1.1,0.3l5.2,3.9l0.1,0.1c0,0,0,0,0,0C379.8,153.7,380,154.3,379.8,154.6z M379.4,158l0.7-1.1l0.3,1.1
		c0.2,0.5,0.2,1,0.1,1.5L379.4,158z M374.8,147.9c-0.7-0.5-1.6-0.8-2.3-0.6c-0.6,0.1-1.1,0.4-1.4,0.9l-2.9,4.2
		c-0.2,0.3-0.3,0.6-0.3,0.9h-0.5c-5.3,0-10.9-2.1-15.7-5.5c-1.9-1.3-3.6-2.9-5.2-4.5c-2.1-2.3-3.9-4.9-5.2-7.6
		c0.5-0.2,0.9-0.5,1.2-0.9c0.9-1.4,0.3-3.4-1.4-4.7c-0.1-0.1-0.2-0.1-0.3-0.2h27.8c1.9,0,4.1,1.7,4.6,3.6l5,17.1L374.8,147.9z
		 M338.7,133.4c-0.9-0.8-1.2-1.8-0.9-2.3c0.1-0.2,0.3-0.3,0.6-0.3c0.1,0,0.2,0,0.3,0c0.5,0,1,0.2,1.5,0.6c1,0.8,1.3,1.9,1,2.4
		c-0.1,0.2-0.3,0.3-0.5,0.3c0,0-0.1,0-0.1,0c-0.5,0.1-1.2-0.1-1.8-0.5C338.7,133.5,338.7,133.4,338.7,133.4z M376,242.4
		c-0.8,1.1-2.2,1.7-3.8,1.7H318l-2.9-10H363c0.3,0,0.5-0.1,0.7-0.3c0.2-0.2,0.2-0.5,0.1-0.7l-20.4-70.1h11.4l21.8,75
		C377.1,239.6,376.9,241.2,376,242.4z M224.7,173.5c-0.1-0.4-0.1-0.7,0.1-0.9c0.2-0.3,0.5-0.3,0.7-0.3h7.3c0.9,0,1.9,0.8,2.2,1.7
		l1.2,4.1H226L224.7,173.5z M239.9,173.5c-0.1-0.4-0.1-0.7,0.1-0.9c0.2-0.3,0.5-0.3,0.8-0.3h7.3c0.9,0,1.9,0.8,2.2,1.7l1.2,4.1
		h-10.2L239.9,173.5z M332.9,158.1c0.8,2.7,3.5,4.8,6.2,4.8h2.5l20.3,69.5h-47.3l-8.2-28.2l2.4,1.9c1.2,0.9,2.6,1.3,3.9,1.1
		c1.1-0.2,2.1-0.8,2.8-1.7l4.9-6.9c0.7-1,1.8-1.7,3.1-1.9c1.6-0.2,3.4,0.3,4.9,1.4l19,14.7c0.1,0.1,0.3,0.2,0.5,0.2
		c0.2,0,0.5-0.1,0.7-0.3c0.3-0.4,0.2-0.9-0.1-1.2l-19-14.7c-1.8-1.4-4.1-2-6.1-1.7c-1.8,0.3-3.3,1.2-4.2,2.5l-4.9,6.9
		c-0.5,0.7-1.2,0.9-1.7,1c-0.9,0.1-1.9-0.2-2.7-0.8l-4.2-3.2l-4.7-16c-1.2-4.1-5.6-7.5-9.7-7.5h-29.2l-6.5-22.5h76.7L332.9,158.1z"
		/>
	<path class="st0" d="M279.6,186.9l0.5,1.6l12.8,43.8l0.5,1.6l2.9,10l0.2,0.8l0.2,0.8l3.4,11.6c0.1,0.4,0.4,0.6,0.8,0.6
		c0.1,0,0.2,0,0.2,0c0.4-0.1,0.7-0.6,0.6-1l-3.2-11.1l-0.2-0.8L298,244l-2.9-10l-0.5-1.6l-13-44.5l-0.5-1.6l-0.8-2.8
		c-0.1-0.4-0.6-0.7-1-0.6c-0.4,0.1-0.7,0.6-0.6,1L279.6,186.9z"/>
	<path class="st0" d="M211.2,247.5c0.4,1.2,1.7,2.2,2.9,2.2h76.6c1.2,0,1.9-1,1.6-2.2l-0.5-1.8l-0.2-0.8l-0.2-0.8l-2.9-10l-0.5-1.6
		l-11.4-39.1c-0.4-1.2-1.7-2.2-2.9-2.2h-7.7h-1.7h-8.1h-11.9h-3.3H229h-10.8h-0.9h-0.9H197c-1.2,0-1.9,1-1.6,2.2L211.2,247.5z
		 M275.6,230.3l3.8,3.8l3.9,3.9c0.3,0.3,0.3,0.8,0,1.2c-0.2,0.2-0.4,0.2-0.6,0.2c-0.2,0-0.4-0.1-0.6-0.2L277,234l-0.4-0.4l-17-17
		l-10.8-10.8l-3.7-3.7c-0.3-0.3-0.3-0.8,0-1.2c0.3-0.3,0.8-0.3,1.2,0l3.8,3.8l11.8,11.8L275.6,230.3z M233.3,199.3
		c0.3-0.3,0.8-0.3,1.2,0l0.6,0.6l4.8,4.8l7.1,7.1l9,9c0.2,0.2,0.2,0.4,0.2,0.6c0,0.2-0.1,0.4-0.2,0.6c-0.2,0.2-0.4,0.2-0.6,0.2
		s-0.4-0.1-0.6-0.2l-0.4-0.4l-6.6-6.6l-10.2-10.2l-4.2-4.2c-0.2-0.2-0.3-0.4-0.2-0.7C233.1,199.6,233.2,199.5,233.3,199.3z"/>
	<path class="st0" d="M294.9,216c-0.9,1.2-1.2,2.9-0.7,4.7c1,3.4,4.4,6,7.8,6c1.7,0,3.1-0.7,4-1.8c0.9-1.2,1.2-2.9,0.7-4.7
		c-1-3.4-4.4-6-7.8-6C297.2,214.1,295.8,214.8,294.9,216z M305.1,220.6c0.4,1.2,0.2,2.4-0.4,3.2c-0.6,0.8-1.5,1.2-2.7,1.2
		c-2.7,0-5.5-2.2-6.3-4.9c-0.4-1.2-0.2-2.4,0.4-3.2c0.6-0.8,1.5-1.2,2.7-1.2C301.5,215.8,304.3,218,305.1,220.6z"/>
	<path class="st0" d="M289,189.9h1.5h2.5c0.8,0,1.6,0.7,1.9,1.5l0.7,2.5l0.8,2.7c0,0,0,0,0,0c0.1,0.3,0.4,0.6,0.7,0.6c0,0,0,0,0,0
		c0.1,0,0.2,0,0.2,0c0.4-0.1,0.7-0.6,0.6-1l-0.1-0.5l-1.4-4.7c-0.4-1.5-1.9-2.7-3.4-2.7h-4c-0.2,0-0.3,0-0.4,0.1
		c-0.2,0.1-0.4,0.4-0.4,0.7C288.1,189.5,288.5,189.9,289,189.9z"/>
	<path class="st0" d="M293.1,207.2l-3.3-11.2c-0.1-0.4-0.6-0.7-1-0.6c-0.4,0.1-0.7,0.6-0.6,1l3.3,11.2c0.4,1.5,1.9,2.7,3.4,2.7h4
		c0.8,0,1.5-0.3,1.9-0.9c0.4-0.6,0.6-1.4,0.3-2.2c-0.1-0.4-0.6-0.7-1-0.6c-0.4,0.1-0.7,0.6-0.6,1c0.1,0.3,0.1,0.6-0.1,0.8
		c-0.1,0.2-0.4,0.2-0.6,0.2h-4C294.2,208.7,293.3,208,293.1,207.2z"/>
	<path class="st0" d="M295.1,195.4H295h-3.9c-0.5,0-0.8,0.4-0.8,0.8c0,0.5,0.4,0.8,0.8,0.8h4c0.5,0,0.8-0.4,0.8-0.8c0,0,0-0.1,0-0.1
		C295.8,195.7,295.5,195.4,295.1,195.4z"/>
	<path class="st0" d="M291.4,200.1c0,0.5,0.4,0.8,0.8,0.8h4c0.5,0,0.8-0.4,0.8-0.8c0-0.5-0.4-0.8-0.8-0.8h-4
		C291.7,199.3,291.4,199.7,291.4,200.1z"/>
	<path class="st0" d="M311.3,251h-4c-0.8,0-1.6-0.7-1.9-1.5l-0.9-3.1c-0.1-0.4-0.6-0.7-1-0.6c-0.4,0.1-0.7,0.6-0.6,1l0.9,3.1
		c0.4,1.5,1.9,2.7,3.4,2.7h4c0.5,0,0.8-0.4,0.8-0.8C312.1,251.3,311.7,251,311.3,251z"/>
	<path class="st0" d="M301.3,230.5c-0.8,0-1.5,0.3-1.9,0.9c-0.2,0.3-0.4,0.7-0.4,1.1c-0.1,0.4,0,0.8,0.1,1.2l0.1,0.5l0.6,1.9
		c0.1,0.4,0.6,0.7,1,0.6c0.3-0.1,0.6-0.4,0.6-0.7h5c0.5,0,0.8-0.4,0.8-0.8c0-0.5-0.4-0.8-0.8-0.8H301c0,0,0,0-0.1,0l0-0.1l-0.3-1
		c-0.1-0.3-0.1-0.5,0-0.7c0,0,0,0,0-0.1c0.1-0.2,0.4-0.2,0.6-0.2h4c0.3,0,0.6,0.1,0.9,0.3c0.4,0.3,0.8,0.7,0.9,1.2l0.1,0.5l2.9,10
		l0.2,0.8l0.2,0.8l0.1,0.4c0.1,0.4,0.4,0.6,0.8,0.6c0.1,0,0.2,0,0.2,0c0.4-0.1,0.7-0.5,0.6-1c0,0,0,0,0-0.1l-0.2-0.8l-0.2-0.8
		l-2.9-10l-0.3-1c-0.1-0.2-0.2-0.5-0.3-0.7c-0.6-1.1-1.9-2-3.2-2H301.3z"/>
	<path class="st0" d="M308.7,240c0-0.5-0.4-0.8-0.8-0.8h-5.4c-0.5,0-0.8,0.4-0.8,0.8c0,0.5,0.4,0.8,0.8,0.8h5.4
		C308.3,240.9,308.7,240.5,308.7,240z"/>
	<path class="st0" d="M378.7,135.8c-0.4,0.1-0.7,0.6-0.6,1l0.6,2.1c0.1,0.4,0.4,0.6,0.8,0.6c0.1,0,0.2,0,0.2,0
		c0.4-0.1,0.7-0.6,0.6-1l-0.6-2.1C379.6,135.9,379.1,135.7,378.7,135.8z"/>
	<path class="st0" d="M332.1,142.3l0.2,0.8l0.2,0.8l0.5,1.8c0.1,0.4,0.4,0.6,0.8,0.6c0.1,0,0.2,0,0.2,0c0.4-0.1,0.7-0.6,0.6-1
		l-0.4-1.3l-0.2-0.8l-0.2-0.8l-0.8-2.8c-0.1-0.4-0.6-0.7-1-0.6c-0.4,0.1-0.7,0.6-0.6,1L332.1,142.3z"/>
	<path class="st0" d="M381.5,174.5c-1.5,0-2.7,0.6-3.4,1.6c-0.8,1.1-0.9,2.6-0.4,4.1c1,2.9,4,5.2,6.9,5.2c1.5,0,2.7-0.6,3.4-1.6
		c0.8-1.1,0.9-2.6,0.4-4.1C387.4,176.8,384.4,174.5,381.5,174.5z M386.6,182.8c-0.4,0.6-1.2,0.9-2.1,0.9c-2.2,0-4.6-1.9-5.4-4
		c-0.3-1-0.3-1.9,0.2-2.6c0.4-0.6,1.2-0.9,2.1-0.9c2.2,0,4.6,1.9,5.4,4C387.2,181.2,387.1,182.2,386.6,182.8z"/>
	<path class="st0" d="M392.9,195.6h-9.3c-1.7,0-2.6,1.4-2.1,3.1l0.4,1.1c0.6,1.7,2.4,3.1,4.1,3.1h9.4c1.7,0,2.6-1.4,2.1-3.1
		l-0.4-1.1C396.5,197,394.6,195.6,392.9,195.6z"/>
</g>
</svg>
