<svg id="圖層_1" data-name="圖層 1" xmlns="http://www.w3.org/2000/svg" xmlns:xlink="http://www.w3.org/1999/xlink" viewBox="0 0 45 45"><defs><style>.cls-1{fill:url(#未命名漸層_28);}</style><linearGradient id="未命名漸層_28" x1="2.2" y1="22.5" x2="61.71" y2="22.5" gradientUnits="userSpaceOnUse"><stop offset="0" stop-color="#93d1e7"/><stop offset="0.14" stop-color="#8bc2e5"/><stop offset="0.43" stop-color="#7da7e2"/><stop offset="0.69" stop-color="#7497e1"/><stop offset="0.89" stop-color="#7191e0"/></linearGradient></defs><path class="cls-1" d="M22.5,0c-6.11,0-6.88,0-9.28.13a16.75,16.75,0,0,0-5.46,1,11,11,0,0,0-4,2.6,11,11,0,0,0-2.6,4,16.75,16.75,0,0,0-1,5.46C0,15.62,0,16.39,0,22.5s0,6.88.13,9.28a16.75,16.75,0,0,0,1,5.46,11.58,11.58,0,0,0,6.58,6.58,16.78,16.78,0,0,0,5.46,1c2.4.12,3.17.14,9.28.14s6.88,0,9.28-.14a16.78,16.78,0,0,0,5.46-1,11.18,11.18,0,0,0,4-2.6,11,11,0,0,0,2.6-4,16.78,16.78,0,0,0,1-5.46c.12-2.4.14-3.17.14-9.28s0-6.88-.14-9.28a16.72,16.72,0,0,0-1-5.46,11.09,11.09,0,0,0-2.6-4,11,11,0,0,0-4-2.6,16.75,16.75,0,0,0-5.46-1C29.38,0,28.61,0,22.5,0Zm0,4.05c6,0,6.72,0,9.09.13A12.58,12.58,0,0,1,35.77,5a7.11,7.11,0,0,1,2.59,1.68A7,7,0,0,1,40,9.23a12.14,12.14,0,0,1,.77,4.18c.11,2.37.14,3.08.14,9.09s0,6.72-.14,9.09A12.78,12.78,0,0,1,40,35.77a7.14,7.14,0,0,1-1.69,2.59A6.91,6.91,0,0,1,35.74,40a12.16,12.16,0,0,1-4.19.77c-2.38.11-3.09.14-9.11.14s-6.72,0-9.11-.14A12.92,12.92,0,0,1,9.14,40a7,7,0,0,1-2.59-1.69,6.79,6.79,0,0,1-1.68-2.59,12.53,12.53,0,0,1-.79-4.19C4,29.19,4,28.46,4,22.47s0-6.72.11-9.11a12.59,12.59,0,0,1,.79-4.19A6.62,6.62,0,0,1,6.56,6.58,6.5,6.5,0,0,1,9.14,4.9a12.17,12.17,0,0,1,4.16-.79C15.7,4,16.4,4,22.42,4Zm0,6.9A11.55,11.55,0,1,0,34.05,22.5,11.55,11.55,0,0,0,22.5,11ZM22.5,30A7.5,7.5,0,1,1,30,22.5,7.5,7.5,0,0,1,22.5,30ZM37.21,10.49a2.7,2.7,0,1,1-2.7-2.7A2.7,2.7,0,0,1,37.21,10.49Z"/></svg>