<svg id="圖層_1" data-name="圖層 1" xmlns="http://www.w3.org/2000/svg" xmlns:xlink="http://www.w3.org/1999/xlink" viewBox="0 0 45 45"><defs><style>.cls-1{fill:url(#未命名漸層_28);}</style><linearGradient id="未命名漸層_28" x1="2.2" y1="22.5" x2="61.71" y2="22.5" gradientUnits="userSpaceOnUse"><stop offset="0" stop-color="#93d1e7"/><stop offset="0.14" stop-color="#8bc2e5"/><stop offset="0.43" stop-color="#7da7e2"/><stop offset="0.69" stop-color="#7497e1"/><stop offset="0.89" stop-color="#7191e0"/></linearGradient></defs><path class="cls-1" d="M44.06,11.6a5.66,5.66,0,0,0-4-4c-3.51-.94-17.58-.94-17.58-.94s-14.07,0-17.58.94a5.66,5.66,0,0,0-4,4C0,15.13,0,22.5,0,22.5s0,7.37.94,10.9a5.66,5.66,0,0,0,4,4c3.51.94,17.58.94,17.58.94s14.07,0,17.58-.94a5.66,5.66,0,0,0,4-4C45,29.87,45,22.5,45,22.5S45,15.13,44.06,11.6ZM17.74,29.19V15.81L29.5,22.5Z"/></svg>