<svg id="圖層_1" data-name="圖層 1" xmlns="http://www.w3.org/2000/svg" xmlns:xlink="http://www.w3.org/1999/xlink" viewBox="0 0 45 45"><defs><style>.cls-1{fill:url(#未命名漸層_28);}.cls-2{fill:url(#未命名漸層_28-2);}.cls-3{fill:url(#未命名漸層_28-3);}.cls-4{fill:url(#未命名漸層_28-4);}.cls-5{fill:url(#未命名漸層_28-5);}.cls-6{fill:url(#未命名漸層_28-6);}</style><linearGradient id="未命名漸層_28" x1="2.2" y1="22.5" x2="61.71" y2="22.5" gradientUnits="userSpaceOnUse"><stop offset="0" stop-color="#93d1e7"/><stop offset="0.14" stop-color="#8bc2e5"/><stop offset="0.43" stop-color="#7da7e2"/><stop offset="0.69" stop-color="#7497e1"/><stop offset="0.89" stop-color="#7191e0"/></linearGradient><linearGradient id="未命名漸層_28-2" x1="2.2" y1="36" x2="61.71" y2="36" xlink:href="#未命名漸層_28"/><linearGradient id="未命名漸層_28-3" x1="2.2" y1="29.32" x2="61.71" y2="29.32" xlink:href="#未命名漸層_28"/><linearGradient id="未命名漸層_28-4" x1="2.2" y1="37.72" x2="61.71" y2="37.72" xlink:href="#未命名漸層_28"/><linearGradient id="未命名漸層_28-5" x1="2.2" y1="37.72" x2="61.71" y2="37.72" xlink:href="#未命名漸層_28"/><linearGradient id="未命名漸層_28-6" x1="2.2" y1="28.41" x2="61.71" y2="28.41" xlink:href="#未命名漸層_28"/></defs><path class="cls-1" d="M44.86,4.52A5.58,5.58,0,0,0,40.2.1L39.51,0h-34L4.5.15A5.59,5.59,0,0,0,.15,4.5c-.06.33-.1.66-.15,1v34c.05.31.08.63.14.94A5.57,5.57,0,0,0,4.8,44.9l.69.1h34l1-.15a5.59,5.59,0,0,0,4.35-4.35c.06-.33.1-.66.15-1v-34C45,5.17,44.92,4.84,44.86,4.52ZM16,24.3h1.42v4l.93-.71c.38-.3.76-.58,1.13-.88.1-.08.17-.09.25,0,.25.33.51.66.79,1l-1.93,1.45.8.7,1.09.93c.12.11.12.18,0,.29a8.1,8.1,0,0,0-.73.7c-.15.16-.23.12-.37,0-.59-.55-1.19-1.09-1.79-1.62L17.47,30v1.83H16Zm-2,2.94c0-.15,0-.29,0-.44h1.28v5.07H14c0-.14,0-.27,0-.44a2.66,2.66,0,0,1-2.42.35,2.49,2.49,0,0,1-1.29-1A2.6,2.6,0,0,1,14,27.24ZM3.44,26.79a3.67,3.67,0,0,1,2.95-2.55,3.76,3.76,0,0,1,3.35,1,.76.76,0,0,1,.09.09l0,.07c-.34.34-.67.68-1,1,0,0-.17,0-.22,0a2.3,2.3,0,1,0-1.42,4,2.59,2.59,0,0,0,1.57-.71l.51.5c.15.15.29.3.45.44s.11.19,0,.3a3.67,3.67,0,0,1-2,1,3.77,3.77,0,0,1-3.56-1.25A3.68,3.68,0,0,1,3.44,26.79ZM8.3,41.19c-.06,0-.13-.1-.17-.17-.37-.77-.74-1.54-1.1-2.31a.29.29,0,0,0-.32-.2,6.09,6.09,0,0,1-.74,0c-.2,0-.25.06-.24.25,0,.71,0,1.42,0,2.13v.28H4.22V33.66l.22,0H7A2.44,2.44,0,0,1,9.29,35.7,2.38,2.38,0,0,1,8.4,38a.18.18,0,0,0-.05.28l1.41,2.62c.05.09.09.18.17.32C9.35,41.19,8.83,41.2,8.3,41.19ZM12.05,40a1.87,1.87,0,0,0,1.33-.21.23.23,0,0,1,.34.08c.21.3.45.58.68.88a2.26,2.26,0,0,1-1,.53,3.26,3.26,0,0,1-3-.69A2.45,2.45,0,0,1,9.6,38a2.52,2.52,0,0,1,2-2,2.59,2.59,0,0,1,2.21.48,2.68,2.68,0,0,1,.94,1.78c.05.34,0,.69.07,1.07H11.14A1.42,1.42,0,0,0,12.05,40Zm7.21.87a2.76,2.76,0,0,1-1.85.57,3.38,3.38,0,0,1-2.38-1l-.1-.11s0,0,0-.08l1-.86A2.28,2.28,0,0,0,17,40a1.21,1.21,0,0,0,.9,0,.54.54,0,0,0,.26-.34.47.47,0,0,0-.24-.34,4.46,4.46,0,0,0-.89-.22,3.58,3.58,0,0,1-1.38-.46,1.19,1.19,0,0,1-.27-1.86A2.28,2.28,0,0,1,16.86,36a3.63,3.63,0,0,1,2.51.48l.23.17c-.28.32-.54.64-.81.94a.24.24,0,0,1-.2,0,2.16,2.16,0,0,0-1.28-.33,1.52,1.52,0,0,0-.5.15c-.07,0-.17.15-.16.22s.11.18.19.2c.3.09.62.15.92.23a10.23,10.23,0,0,1,1.22.4A1.41,1.41,0,0,1,19.26,40.84Zm4.49.36a2.68,2.68,0,0,1-3-.5,2,2,0,0,1-.64-1.5c0-1,0-1.89,0-2.84v-.28h1.58v.25c0,.93,0,1.87,0,2.81A.93.93,0,0,0,23.1,40a.89.89,0,0,0,.52-.91v-3H25.2v3A2.17,2.17,0,0,1,23.75,41.2ZM23,30.65a1.92,1.92,0,0,0,1.33-.2c.14-.07.23-.08.33.06.21.3.45.59.69.9a2.24,2.24,0,0,1-1,.52,3.26,3.26,0,0,1-2.93-.64,2.47,2.47,0,0,1-.84-2.61,2.52,2.52,0,0,1,2-2,2.64,2.64,0,0,1,1.91.24,2.54,2.54,0,0,1,1.28,2c0,.35,0,.7.07,1.07H22.11A1.46,1.46,0,0,0,23,30.65ZM33.41,41.22H32V38.38a4.07,4.07,0,0,0,0-.5c0-.52-.37-.72-.88-.58a.84.84,0,0,0-.68.9V41c0,.06,0,.13,0,.21H28.85V41c0-.85,0-1.7,0-2.55a5.44,5.44,0,0,0,0-.57A.58.58,0,0,0,28,37.3a.88.88,0,0,0-.68.91v3H25.84V36.07h1.45v.5l0,0A1.53,1.53,0,0,1,28.67,36a2,2,0,0,1,1.37.59l.1-.08a2,2,0,0,1,3.24.94,1.55,1.55,0,0,1,0,.21v3.43S33.41,41.16,33.41,41.22ZM36.29,40a1.87,1.87,0,0,0,1.33-.21.22.22,0,0,1,.33.08c.19.25.38.5.58.74s.08.19,0,.27a2.88,2.88,0,0,1-1.7.49,3,3,0,0,1-2.27-.88,2.66,2.66,0,1,1,4-3.55,3.09,3.09,0,0,1,.59,1.78c0,.21,0,.42,0,.65H35.36A1.44,1.44,0,0,0,36.29,40Z"/><path class="cls-2" d="M7,35.13c-.23,0-.46,0-.69-.06v0a3.53,3.53,0,0,0-.46,0c-.06,0-.15.1-.15.15,0,.51,0,1,0,1.54,0,0,.09.15.14.15a9.31,9.31,0,0,0,1.18,0A.87.87,0,0,0,7.81,36,.9.9,0,0,0,7,35.13Z"/><path class="cls-3" d="M12.47,30.59a1.26,1.26,0,0,0,1.27-1.25,1.28,1.28,0,0,0-1.27-1.28,1.24,1.24,0,0,0-1.25,1.28A1.23,1.23,0,0,0,12.47,30.59Z"/><path class="cls-4" d="M36.41,37.24a1.19,1.19,0,0,0-1.13.95h2.34A1.11,1.11,0,0,0,36.41,37.24Z"/><path class="cls-5" d="M12.09,37.24a1.2,1.2,0,0,0-1.05,1h2.21c.15,0,.15-.07.11-.18A1.15,1.15,0,0,0,12.09,37.24Z"/><path class="cls-6" d="M23.08,27.93a1.17,1.17,0,0,0-1.06.95l.06,0h2.15c.14,0,.15-.06.11-.18A1.13,1.13,0,0,0,23.08,27.93Z"/></svg>