<svg id="圖層_1" data-name="圖層 1" xmlns="http://www.w3.org/2000/svg" xmlns:xlink="http://www.w3.org/1999/xlink" viewBox="0 0 45 45"><defs><style>.cls-1{fill:url(#未命名漸層_28);}</style><linearGradient id="未命名漸層_28" x1="2.2" y1="22.5" x2="61.71" y2="22.5" gradientUnits="userSpaceOnUse"><stop offset="0" stop-color="#93d1e7"/><stop offset="0.14" stop-color="#8bc2e5"/><stop offset="0.43" stop-color="#7da7e2"/><stop offset="0.69" stop-color="#7497e1"/><stop offset="0.89" stop-color="#7191e0"/></linearGradient></defs><path class="cls-1" d="M39.37,39.37h-7.5V28.93c0-2.49-.05-5.69-3.48-5.69s-4,2.71-4,5.51V39.37L18.75,37.5V16.87h5.62v3.75h.09A7.38,7.38,0,0,1,31,17.12c7,0,8.33,4.49,8.33,10.34V39.37ZM10,13.94a3.87,3.87,0,1,1,3.87-3.88A3.87,3.87,0,0,1,10,13.94ZM13.12,37.5H5.62V16.87h7.5ZM41.67,0H3.32A3.28,3.28,0,0,0,0,3.24V41.76A3.28,3.28,0,0,0,3.32,45H41.67A3.29,3.29,0,0,0,45,41.76V3.24A3.29,3.29,0,0,0,41.67,0Z"/></svg>