<svg id="圖層_1" data-name="圖層 1" xmlns="http://www.w3.org/2000/svg" viewBox="0 0 52 52"><defs><style>.cls-1{fill:gray;}</style></defs><path class="cls-1" d="M26,51.54A4,4,0,0,1,24,51l-6.24-3.7c-.94-.52-.48-.71-.17-.82a12.59,12.59,0,0,0,2.82-1.28.49.49,0,0,1,.47,0l4.8,2.85a.6.6,0,0,0,.58,0L45,37.3a.6.6,0,0,0,.28-.51V15.19a.61.61,0,0,0-.29-.52L26.29,3.88a.6.6,0,0,0-.58,0L7,14.68a.6.6,0,0,0-.29.51v21.6a.56.56,0,0,0,.29.5l5.13,3c2.78,1.39,4.49-.25,4.49-1.9V17a.54.54,0,0,1,.54-.54h2.38a.54.54,0,0,1,.54.54V38.36c0,3.72-2,5.84-5.54,5.84A8,8,0,0,1,10.23,43L5.31,40.21a4,4,0,0,1-2-3.42V15.19a4,4,0,0,1,2-3.41L24,1A4.11,4.11,0,0,1,28,1L46.68,11.78a3.94,3.94,0,0,1,2,3.41v21.6a4,4,0,0,1-2,3.42L28,51A4,4,0,0,1,26,51.54Zm15.11-21.3c0-4-2.73-5.12-8.49-5.88s-6.4-1.16-6.4-2.53c0-1.12.5-2.62,4.81-2.62,3.84,0,5.26.83,5.84,3.42a.54.54,0,0,0,.53.42h2.43a.52.52,0,0,0,.39-.17.53.53,0,0,0,.15-.42C40,18,37,15.92,31,15.92c-5.34,0-8.53,2.25-8.53,6,0,4.09,3.17,5.23,8.29,5.73,6.13.6,6.61,1.5,6.61,2.7,0,2.1-1.68,3-5.62,3-5,0-6.05-1.24-6.41-3.71a.56.56,0,0,0-.54-.46H22.41a.54.54,0,0,0-.54.54c0,3.16,1.71,6.92,9.91,6.92C37.71,36.66,41.11,34.32,41.11,30.24Z"/></svg>