<svg id="圖層_1" data-name="圖層 1" xmlns="http://www.w3.org/2000/svg" viewBox="0 0 52 52"><defs><style>.cls-1{fill:gray;}</style></defs><path class="cls-1" d="M6.68,29.5c.12-.39.25-.77.38-1.15L9.49,21c0-.09.06-.12.16-.12h2.21c.47,3.9.81,7.81.91,11.74h-2c-.06-3.12-.25-6.23-.6-9.34l0,.1q-1.47,4.56-2.91,9.1c0,.12-.08.16-.21.16H5.82a.14.14,0,0,1-.15-.11Q4.23,28,2.78,23.42a.42.42,0,0,0-.06-.14q-.36,4.66-.42,9.34H.5q.15-5.88.87-11.74H3.82L6.65,29.5Z"/><path class="cls-1" d="M38.3,31.86l2.15,1.06-.76,1.32-.12-.07L37,32.66a.28.28,0,0,0-.22,0,5.86,5.86,0,0,1-3.19-.08,3.5,3.5,0,0,1-2.24-2.09,7.32,7.32,0,0,1-.51-2.06,13.36,13.36,0,0,1-.05-2.28,7.5,7.5,0,0,1,.76-3.05,4.11,4.11,0,0,1,3.29-2.31,5.88,5.88,0,0,1,2.21.1,3.7,3.7,0,0,1,2.51,2.08,6.81,6.81,0,0,1,.61,2.34,12.55,12.55,0,0,1,0,2.21,7.76,7.76,0,0,1-.67,2.8,4.6,4.6,0,0,1-1.13,1.49l0,0Zm0-5c0-.46,0-.92-.1-1.37a6,6,0,0,0-.36-1.67,2.46,2.46,0,0,0-1-1.32,2.61,2.61,0,0,0-1.42-.32,2.33,2.33,0,0,0-1.1.28,2.54,2.54,0,0,0-1.07,1.3,6.53,6.53,0,0,0-.41,2,13.47,13.47,0,0,0,0,2.2,7,7,0,0,0,.36,1.77,2.37,2.37,0,0,0,1.16,1.43,2.77,2.77,0,0,0,1.58.24,2.11,2.11,0,0,0,1.42-.77,3.28,3.28,0,0,0,.63-1.25A10.34,10.34,0,0,0,38.25,26.83Z"/><path class="cls-1" d="M49.87,16.91a1,1,0,0,0-.12-.17,2,2,0,0,0-.27-.23l-1.92-1.27a2.1,2.1,0,0,0-.42-.22l-1.38-.48-.06,0a1.32,1.32,0,0,1-.89-.67c-.16-.32-.34-.62-.49-.94C43.87,12,43.39,11,43,10.05a11.32,11.32,0,0,0-2.25-3.56,11.5,11.5,0,0,0-4-2.92,3.7,3.7,0,0,0-1.43-.3,5.54,5.54,0,0,1-.81-.07A.9.9,0,0,1,34.13,3a3.76,3.76,0,0,0-.85-.58c-.42-.19-.85-.36-1.29-.53a.57.57,0,0,0-.48,0,.44.44,0,0,0-.24.48,2.19,2.19,0,0,0,.44.84l.49.63a6.28,6.28,0,0,1,1.12,2.29,6.91,6.91,0,0,0,.8,1.9,3.25,3.25,0,0,0,.4.5.75.75,0,0,1,.26.81,6.56,6.56,0,0,1-.21.67,5.36,5.36,0,0,0-.38,1.9,5.67,5.67,0,0,0,.42,2.44A1.74,1.74,0,0,0,35,15a2.4,2.4,0,0,0,.27.16c.08,0,.12,0,.13-.08,0-.37.08-.74.13-1.11a2.77,2.77,0,0,1,.67-1.59,3.57,3.57,0,0,0,.28-.35,1.3,1.3,0,0,1,.11.19,12.73,12.73,0,0,0,1,2.26,14.32,14.32,0,0,0,1.57,2.37c.24.28.54.53.81.79a.13.13,0,0,0,0,.05c-.1-.06-.19-.1-.27-.16a1.73,1.73,0,0,1-.21-.17c-.33-.3-.67-.59-1-.9s-.51-.46-.75-.71a4,4,0,0,1-.83-1.21c-.12-.27-.26-.53-.41-.83,0,.09,0,.14-.05.18-.08.44-.14.88-.22,1.32a.81.81,0,0,1-.78.74,1,1,0,0,1-.76-.33A3.51,3.51,0,0,1,33.81,14a6.64,6.64,0,0,1,0-3.67c.06-.19.09-.39.14-.58a2,2,0,0,1,.16-.43.23.23,0,0,0,0-.24,1,1,0,0,0-.08-.11,3,3,0,0,1-.68-1,13.39,13.39,0,0,1-.92-2.45A2.78,2.78,0,0,0,32,4.65l-.79-1a2.87,2.87,0,0,1-.56-1A1.17,1.17,0,0,1,32,1.09a3.75,3.75,0,0,1,1,.23,5.85,5.85,0,0,1,1.47.81c.12.1.23.19.36.28a.43.43,0,0,0,.2.06A6.69,6.69,0,0,1,37.44,3c.08,0,.17.07.25.12a15.56,15.56,0,0,1,3.8,3,15.3,15.3,0,0,1,1.79,2.44,6.13,6.13,0,0,1,.35.73c.43,1.1.93,2.17,1.46,3.23.11.21.2.43.31.64s.09.18.14.27a.93.93,0,0,0,.56.47,11.06,11.06,0,0,1,3,1.71c.25.2.52.39.75.61s.44.46.65.69a3.61,3.61,0,0,1,.25.3c.09.11.08.17-.06.21a6.6,6.6,0,0,1-1.59.32l-.45.09-.92.23a1.48,1.48,0,0,0,.21.3,5.66,5.66,0,0,0,.54.43c.38.25.79.48,1.17.75a6.34,6.34,0,0,1,1.05,1,5.33,5.33,0,0,0,.46.49.91.91,0,0,1,.24.37,1.84,1.84,0,0,1,.09.25l-.19-.13-.49-.4a7.6,7.6,0,0,0-1.74-1,6.47,6.47,0,0,1-1.69-1.1,2.63,2.63,0,0,1-.75-1.05.41.41,0,0,0,0-.09.18.18,0,0,1,.06-.28l.11-.06A7,7,0,0,1,48.83,17c.34,0,.68,0,1,0Z"/><path class="cls-1" d="M29.25,21.6l-.44,1c-.41-.11-.81-.25-1.22-.34a4,4,0,0,0-1.72,0,1.53,1.53,0,0,0-1.24,1.58,1.5,1.5,0,0,0,.41.94,3.37,3.37,0,0,0,.91.72c.85.48,1.7.93,2.53,1.43a2.73,2.73,0,0,1,1.46,2.42,3.26,3.26,0,0,1-2.23,3.21,5.3,5.3,0,0,1-2.47.26,6,6,0,0,1-2.63-1l-.07,0,.5-1c.22.1.43.2.65.28a4.8,4.8,0,0,0,2.08.4,2.79,2.79,0,0,0,1.23-.3,1.61,1.61,0,0,0,.8-1.92,1.94,1.94,0,0,0-.7-.94,7.48,7.48,0,0,0-.66-.43c-.77-.44-1.55-.85-2.3-1.31a2.78,2.78,0,0,1-1.46-2.41A3,3,0,0,1,23.33,22a3.29,3.29,0,0,1,2.15-1.19,5.33,5.33,0,0,1,3.64.72Z"/><path class="cls-1" d="M13.57,34.39c.26,0,.5,0,.74,0a2,2,0,0,0,.85-.12,1.8,1.8,0,0,0,1.22-1.45,2.08,2.08,0,0,0-.11-.89c-.32-1.07-.65-2.15-1-3.22-.49-1.55-1-3.09-1.49-4.64a1,1,0,0,0,0-.14h1.93c.08.27.17.56.26.84.48,1.55,1,3.11,1.42,4.67a14,14,0,0,1,.3,1.46c0,.1,0,.21,0,.31A31.41,31.41,0,0,0,19.43,24h1.88l-.21,1a38.08,38.08,0,0,1-1.31,4.93,15.41,15.41,0,0,1-1.63,3.46,6.43,6.43,0,0,1-1.6,1.73,3.14,3.14,0,0,1-1.69.59,3.11,3.11,0,0,1-1.24-.27.1.1,0,0,1-.06-.07Z"/><path class="cls-1" d="M43.79,31.18H47.5v1.45H41.92V20.89h1.87Z"/><path class="cls-1" d="M35.59,6a3.58,3.58,0,0,0-.81-1.28c.56-.16.77-.08,1,.33A.66.66,0,0,1,35.59,6Z"/></svg>