<svg id="圖層_1" data-name="圖層 1" xmlns="http://www.w3.org/2000/svg" viewBox="0 0 52 52"><defs><style>.cls-1{fill:gray;}</style></defs><path class="cls-1" d="M26,.13A25.87,25.87,0,1,1,.13,26,25.87,25.87,0,0,1,26,.13ZM20.86,34.62a6.73,6.73,0,0,1-.05,3.86l-.14.39-.17.38A7.27,7.27,0,0,1,19.3,41c-1.5,1.63-3.6,2.26-4.51,1.73s-.48-2.87,1.26-4.72a17.56,17.56,0,0,1,4.57-3.25h0ZM42.23,11.2c-1.17-4.6-8.79-6.11-16-3.54A36.3,36.3,0,0,0,14,14.7C10,18.41,9.34,21.64,9.6,23c.93,4.76,7.46,7.88,10.15,10.19v0c-.8.39-6.59,3.29-7.95,6.3-1.46,3.17.22,5.44,1.32,5.73a8.18,8.18,0,0,0,8.77-3.56,8.94,8.94,0,0,0,.87-7.92,10.21,10.21,0,0,1,3.95-.23c4.53.52,5.43,3.37,5.23,4.53a3.11,3.11,0,0,1-1.45,2c-.32.19-.42.26-.39.39s.2.19.45.16A3.58,3.58,0,0,0,33,37.48c.1-2.78-2.55-5.89-7.27-5.82a11.55,11.55,0,0,0-4,.55.8.8,0,0,0-.22-.23c-2.91-3.14-8.31-5.34-8.09-9.51.07-1.52.62-5.53,10.35-10.38,8-4,14.36-2.88,15.46-.45,1.58,3.46-3.39,9.9-11.71,10.83-3.17.36-4.82-.87-5.24-1.32s-.51-.52-.68-.42-.09.55,0,.81a5,5,0,0,0,3,2.36c1.52.48,5.24.77,9.71-1,5-1.94,8.92-7.34,7.79-11.87Z"/></svg>