<svg id="圖層_1" data-name="圖層 1" xmlns="http://www.w3.org/2000/svg" viewBox="0 0 52 52"><defs><style>.cls-1{fill:gray;}</style></defs><path class="cls-1" d="M.13.13H51.87V51.87H.13ZM46.74,38.48c-.38-2.36-1.91-4.34-6.47-6.19-1.59-.74-3.35-1.26-3.88-2.46a2.66,2.66,0,0,1-.1-1.52c.33-1.39,2-1.81,3.27-1.42a3.47,3.47,0,0,1,2.1,1.94c2.23-1.46,2.23-1.46,3.79-2.43a8.75,8.75,0,0,0-1.27-1.68c-1.35-1.52-3.16-2.29-6.11-2.23l-1.52.19a7,7,0,0,0-3.68,2.17,6.77,6.77,0,0,0,1.22,9.64c2.95,2.2,7.25,2.68,7.8,4.76.52,2.52-1.88,3.33-4.24,3a5.68,5.68,0,0,1-3.78-2.88l-3.95,2.26a8.44,8.44,0,0,0,1.75,2.39c3.75,3.79,13.13,3.59,14.81-2.16a7.18,7.18,0,0,0,.16-3.56ZM26.53,23.84H21.69c0,4.18,0,8.34,0,12.52,0,2.66.13,5.1-.3,5.85-.71,1.48-2.54,1.29-3.38,1A4.19,4.19,0,0,1,16.2,41.4c-.13-.23-.23-.43-.27-.43L12,43.4a7.52,7.52,0,0,0,2.85,3.27,9.46,9.46,0,0,0,6.92.87,6,6,0,0,0,3.9-3c1.1-2,.87-4.46.86-7.21,0-4.43,0-8.86,0-13.33Z"/></svg>