<svg id="圖層_1" data-name="圖層 1" xmlns="http://www.w3.org/2000/svg" viewBox="0 0 52 52"><defs><style>.cls-1{fill:gray;}</style></defs><path class="cls-1" d="M51.87,19H46.55V35.35H43.48V19H38.17V16.36h13.7ZM37.1,35.35H26.71v-19h10V19H29.78v5.37h6.36v2.66H29.78v5.62H37.1Zm-14.46,0H19.28l-8.85-14a5.65,5.65,0,0,1-.55-1.1H9.8a20.15,20.15,0,0,1,.1,2.61V35.35h-3v-19h3.58L19.06,30c.36.56.59,1,.7,1.16h0a16.62,16.62,0,0,1-.13-2.55V16.36h3ZM3.87,33.85A1.83,1.83,0,0,1,2,35.64H2A1.83,1.83,0,0,1,.13,33.85h0A1.82,1.82,0,0,1,2,32.07a1.82,1.82,0,0,1,1.87,1.78Z"/></svg>