<svg id="圖層_1" data-name="圖層 1" xmlns="http://www.w3.org/2000/svg" viewBox="0 0 52 52"><defs><style>.cls-1{fill:gray;}</style></defs><path class="cls-1" d="M46.13,30.74a2,2,0,0,0-.1-.21c-.24-.45-.83-.59-1.75-.4-2.88.59-4,.23-4.4,0a41.5,41.5,0,0,0,5.29-11.9c.48-1.83,1.39-6.13.22-8.24a2.8,2.8,0,0,0-.27-.4,11.77,11.77,0,0,0-9.53-4.45,16.77,16.77,0,0,0-5.42.83c-.3-.06-.6-.1-.9-.14A13.44,13.44,0,0,0,27,5.58,8.92,8.92,0,0,0,21.68,7c-1.5-.56-8.34-2.86-12.58.14-2.37,1.67-3.46,4.67-3.25,8.9A56.76,56.76,0,0,0,8,26.08a32.15,32.15,0,0,0,2.49,6.24c1,1.73,2,2.78,3,3.12.78.26,2,.25,3.23-1.27,1.4-1.68,2.77-3.18,3.39-3.84a5.34,5.34,0,0,0,2.42.65h0l-.43.53c-.59.75-.71.91-2.61,1.3-.54.11-2,.41-2,1.41a1.11,1.11,0,0,0,.16.57,3.06,3.06,0,0,0,1.77,1.1,6.22,6.22,0,0,0,5.87-1.18c0,3.89.13,7.69.6,8.86a4.51,4.51,0,0,0,4.3,3.32,7.19,7.19,0,0,0,1.45-.17c3.1-.66,4.45-2,5-5.06.26-1.51.7-5,.93-7.14a.62.62,0,0,1,.1-.24s.13-.08.75.06h.08l.44,0h0a10.7,10.7,0,0,0,4.41-.75C44.47,33.13,46.49,31.85,46.13,30.74Zm-36.9-5a55.7,55.7,0,0,1-2.11-9.7c-.19-3.78.73-6.41,2.72-7.82C13,6,18.27,7.32,20.48,8l0,0c-3.52,3.56-3.44,9.64-3.43,10q0,.21,0,.63a25.34,25.34,0,0,1-.13,5.08,6.45,6.45,0,0,0,1.69,5.38l.44.41c-.6.65-1.91,2.08-3.31,3.76-1,1.19-1.67,1-1.9.88a4.81,4.81,0,0,1-2.15-2.3A30.86,30.86,0,0,1,9.23,25.78Zm10.46,8.86a2.49,2.49,0,0,1-.75-.31,5.32,5.32,0,0,1,.84-.24c2.24-.46,2.58-.79,3.34-1.74a9.9,9.9,0,0,1,.64-.77.72.72,0,0,0,.12-.23.59.59,0,0,1,.76-.07,1.28,1.28,0,0,1,.65.83.9.9,0,0,1-.08.77A4.9,4.9,0,0,1,19.69,34.64Zm3.65-6.94-.09.24a16.22,16.22,0,0,0-.58,1.75,4.35,4.35,0,0,1-3.15-1.4,5.19,5.19,0,0,1-1.37-4.35,26.49,26.49,0,0,0,.14-5.33c0-.15,0-.28,0-.38.51-.46,2.9-1.73,4.6-1.34a1.86,1.86,0,0,1,1.45,1.61c1,4.71.13,6.67-.58,8.25C23.6,27.07,23.46,27.38,23.34,27.7Zm12.82,8c0,.31-.06.66-.11,1l-.25.76a.63.63,0,0,0,0,.19,5,5,0,0,1-.2,1.51A8,8,0,0,0,35.26,41c-.2,2.47-1.53,3.88-4.21,4.46s-3.11-.87-3.52-2.13c0-.13-.09-.27-.14-.4a13.31,13.31,0,0,1-.27-4.45,13.68,13.68,0,0,0-.58-4.6c0-.51,0-1,0-1.56a.63.63,0,0,0,0-.19,2.09,2.09,0,0,0-.08-.36,2.49,2.49,0,0,0-1.35-1.63A1.88,1.88,0,0,0,23.87,30a15,15,0,0,1,.53-1.61l.1-.25c.1-.28.23-.57.37-.87.74-1.65,1.76-3.91.65-9-.41-1.91-1.79-2.84-3.88-2.63a8.94,8.94,0,0,0-3,.93l-.34.18c.16-1.93.76-5.53,3-7.81l.53-.48a.47.47,0,0,0,.25-.11A7.69,7.69,0,0,1,27,6.87,19,19,0,0,1,29.05,7a12,12,0,0,1,7,4.15,14,14,0,0,1,2.5,4.28c-2.31-.24-3.88.22-4.67,1.35-1.73,2.47,1,7.27,2.23,9.57.24.43.44.79.5.95A8.42,8.42,0,0,0,38,29.49c.12.15.24.3.33.43-.7.2-2,.66-1.84,3,0,.27-.07.78-.14,1.42A9.55,9.55,0,0,0,36.16,35.66Zm1.55-2.82c-.07-1.45.47-1.6,1-1.76L39,31l.23.18c1,.65,2.76.73,5.24.23a7.26,7.26,0,0,1-1.66,1,9,9,0,0,1-3,.63A3.84,3.84,0,0,1,37.71,32.84Zm1-16.15a12.34,12.34,0,0,1-.18,1.75,16.32,16.32,0,0,0-.22,2,16.31,16.31,0,0,0,.16,2.31,8.21,8.21,0,0,1-.36,4.71c-.12-.22-.23-.44-.33-.67s-.29-.58-.56-1.08c-1.07-1.92-3.58-6.42-2.3-8.26C35.57,16.56,37.25,16.51,38.7,16.69Zm.4,12.22L39,28.72l-.06-.08c1.27-2.09,1-4.15.8-6a14.88,14.88,0,0,1-.16-2.13,16.45,16.45,0,0,1,.21-1.9,11.51,11.51,0,0,0,.19-2.36.7.7,0,0,0,0-.33,13.07,13.07,0,0,0-3-5.66,13.45,13.45,0,0,0-4.68-3.55,15.91,15.91,0,0,1,3.53-.33,10.44,10.44,0,0,1,8.4,4,1,1,0,0,1,.11.17C45.56,12.91,43.82,21.48,39.1,28.91ZM23.75,18.26a1.14,1.14,0,0,1-1.08.73h-.14a1.34,1.34,0,0,1-.88-.55.77.77,0,0,1-.19-.49.42.42,0,0,1,.16-.26,1.57,1.57,0,0,1,1.07-.15C23.24,17.6,23.8,17.87,23.75,18.26Zm13.81-.72a.79.79,0,0,1-.27.54,1.25,1.25,0,0,1-.71.39h-.13a1,1,0,0,1-1-.65c0-.31.46-.54,1-.61S37.52,17.23,37.56,17.54Z"/></svg>