<svg id="圖層_1" data-name="圖層 1" xmlns="http://www.w3.org/2000/svg" viewBox="0 0 52 52"><defs><style>.cls-1{fill:gray;}</style></defs><path class="cls-1" d="M26,.77a25.87,25.87,0,0,0-8.18,50.42c1.29.24,1.77-.56,1.77-1.25s0-2.24,0-4.39c-7.19,1.56-8.71-3.48-8.71-3.48C9.66,39.09,8,38.29,8,38.29c-2.34-1.6.18-1.57.18-1.57a5.41,5.41,0,0,1,4,2.66c2.31,4,6.06,2.82,7.54,2.16a5.52,5.52,0,0,1,1.64-3.47C15.53,37.43,9.49,35.2,9.49,25.29a10,10,0,0,1,2.67-6.94,9.15,9.15,0,0,1,.22-6.85s2.17-.7,7.12,2.65a24.46,24.46,0,0,1,12.93,0c4.92-3.35,7.09-2.65,7.09-2.65a9.52,9.52,0,0,1,.26,6.85,10,10,0,0,1,2.65,6.94c0,9.94-6,12.13-11.81,12.76a6.2,6.2,0,0,1,1.75,4.79c0,3.46,0,6.24,0,7.09,0,.67.45,1.48,1.78,1.22A25.84,25.84,0,0,0,26,.77"/></svg>