<svg id="圖層_1" data-name="圖層 1" xmlns="http://www.w3.org/2000/svg" viewBox="0 0 52 52"><defs><style>.cls-1{fill:gray;}</style></defs><path class="cls-1" d="M25.5,24.36H21.58V17.79h4.65c2.53,0,4,1.13,4,3.17s-1.67,3.4-4.7,3.4ZM26.2,27H21.58v7.24h4.83c3.15,0,4.82-1.27,4.82-3.65S29.51,27,26.2,27ZM52,24.68v2.64c-2.44.23-3.93,2-4.81,4.9a29.19,29.19,0,0,0-.91,9.05,5.17,5.17,0,0,1-5.06,5.41H10.83a5.17,5.17,0,0,1-5-5.41,29.19,29.19,0,0,0-.91-9.05C4,29.36,2.49,27.55.05,27.32V24.68c2.44-.23,3.93-2,4.82-4.9a28.88,28.88,0,0,0,.9-9,5.18,5.18,0,0,1,5.06-5.41H41.17a5.17,5.17,0,0,1,5.06,5.41,29.19,29.19,0,0,0,.91,9.05C48,22.64,49.51,24.45,52,24.68ZM34.81,30.77a5.35,5.35,0,0,0-5.12-5.38v-.12a4.9,4.9,0,0,0,4-4.78c0-3.33-2.62-5.49-6.62-5.49h-9V37h9C31.92,37,34.81,34.65,34.81,30.77Z"/></svg>