<svg id="圖層_1" data-name="圖層 1" xmlns="http://www.w3.org/2000/svg" viewBox="0 0 52 52"><defs><style>.cls-1{fill:gray;}</style></defs><path class="cls-1" d="M.13,2.55v46.9a2.42,2.42,0,0,0,2.42,2.42h46.9a2.42,2.42,0,0,0,2.42-2.42V2.55A2.42,2.42,0,0,0,49.45.13H2.55A2.42,2.42,0,0,0,.13,2.55Zm39.37,20a21.34,21.34,0,0,1,3.28.23,12.72,12.72,0,0,1,2.63.68v4.95a8.31,8.31,0,0,0-1.3-.73,10.67,10.67,0,0,0-4.31-.92,7,7,0,0,0-1.65.17,4.13,4.13,0,0,0-1.26.49,2.48,2.48,0,0,0-.79.75,1.81,1.81,0,0,0-.28,1,1.94,1.94,0,0,0,.31,1.06,3.62,3.62,0,0,0,.9.89,8.48,8.48,0,0,0,1.4.83q.82.4,1.86.84A20.2,20.2,0,0,1,42.84,34a9.07,9.07,0,0,1,1.94,1.52A5.92,5.92,0,0,1,46,37.43,7,7,0,0,1,46.45,40a6.89,6.89,0,0,1-.75,3.33,6.12,6.12,0,0,1-2,2.19,9,9,0,0,1-3,1.2,17.44,17.44,0,0,1-3.6.36,20.86,20.86,0,0,1-3.7-.33,11.25,11.25,0,0,1-3.05-1V40.42a10.18,10.18,0,0,0,6.52,2.42,6.94,6.94,0,0,0,1.75-.19,4.19,4.19,0,0,0,1.26-.5,2.36,2.36,0,0,0,.75-.76,2.06,2.06,0,0,0-.15-2.2,4.29,4.29,0,0,0-1.08-1,12.83,12.83,0,0,0-1.62-.9c-.67-.3-1.35-.59-2-.87a10.51,10.51,0,0,1-4.14-2.83,6.24,6.24,0,0,1-1.36-4A6.34,6.34,0,0,1,31,26.37a6.26,6.26,0,0,1,2-2.2,9,9,0,0,1,3-1.26A15.19,15.19,0,0,1,39.5,22.5ZM6.59,21.69H28.16V26H21.69V47.56H15.22V26H6.59Z"/></svg>