<svg id="圖層_1" data-name="圖層 1" xmlns="http://www.w3.org/2000/svg" viewBox="0 0 52 52"><defs><style>.cls-1{fill:gray;}</style></defs><path class="cls-1" d="M30.81,26.35a4.82,4.82,0,0,1-9.64,0h0a4.82,4.82,0,1,1,9.64,0ZM36.52,3C33.62,3,29.82,5,26,8.61,22.14,5.05,18.34,3,15.44,3a4.7,4.7,0,0,0-2.38.6c-3,1.71-3.63,7-2.1,13.72C4.4,19.35.13,22.59.13,26S4.42,32.68,11,34.69c-1.52,6.72-.84,12.05,2.13,13.76a4.67,4.67,0,0,0,2.38.59c2.9,0,6.7-2.07,10.54-5.65C29.88,47,33.68,49,36.58,49A4.84,4.84,0,0,0,39,48.41c3-1.71,3.63-7,2.1-13.73,6.53-2,10.8-5.25,10.8-8.67S47.58,19.33,41,17.31c1.52-6.7.84-12-2.13-13.75A4.62,4.62,0,0,0,36.52,3Zm-.34,2.69h0a2.46,2.46,0,0,1,1.21.28c1.43.82,2,4,1.57,8-.12,1-.31,2-.54,3.11a49.92,49.92,0,0,0-6.7-1.15,49.76,49.76,0,0,0-4.39-5.28C30.77,7.41,34,5.66,36.18,5.65Zm-21.56,0c2.18,0,5.42,1.74,8.86,4.92a49.08,49.08,0,0,0-4.35,5.26A51.09,51.09,0,0,0,12.42,17,27.89,27.89,0,0,1,11.87,14c-.5-4,.11-7.16,1.54-8a3,3,0,0,1,1.21-.29ZM26,12.27a43.76,43.76,0,0,1,2.93,3.37c-.95,0-1.92-.07-2.9-.07s-2,0-2.93.07A41.53,41.53,0,0,1,26,12.27Zm-.57,5.66c1.6,0,3.19.07,4.75.2.88,1.26,1.73,2.59,2.55,4s1.53,2.78,2.2,4.2c-.67,1.41-1.4,2.82-2.19,4.2s-1.67,2.78-2.54,4q-2.36.21-4.77.21c-1.59,0-3.18-.07-4.75-.2-.87-1.25-1.73-2.59-2.55-4s-1.53-2.78-2.19-4.19c.65-1.42,1.39-2.83,2.18-4.22s1.67-2.77,2.55-4c1.57-.14,3.16-.21,4.76-.21Zm-7.24.55c-.52.81-1,1.64-1.52,2.5s-.93,1.68-1.36,2.53a41.17,41.17,0,0,1-1.46-4.2c1.38-.32,2.83-.61,4.34-.83Zm15.66-.43c1.49.22,2.94.5,4.32.83-.39,1.37-.87,2.77-1.42,4.17-.43-.84-.89-1.69-1.38-2.53s-1-1.67-1.52-2.47Zm6.68,1.88c1,.33,2,.69,3,1.08,3.73,1.59,6.15,3.68,6.15,5.34s-2.43,3.75-6.16,5.33c-.91.39-1.9.74-2.92,1.06a54.63,54.63,0,0,0-2.37-6.42,51,51,0,0,0,2.34-6.39Zm-29,0a50.82,50.82,0,0,0,2.37,6.43,49.47,49.47,0,0,0-2.34,6.39c-1-.33-2-.69-3-1.08C4.88,30.09,2.47,28,2.47,26.35S4.88,22.59,8.61,21C9.52,20.62,10.51,20.27,11.54,19.94Zm25.18,8.89c.57,1.42,1.05,2.83,1.46,4.2a43,43,0,0,1-4.35.84c.52-.81,1-1.64,1.52-2.5s.94-1.69,1.37-2.54Zm-21.44.38c.43.85.88,1.69,1.38,2.54s1,1.66,1.52,2.46c-1.5-.22-2.95-.49-4.33-.83.39-1.36.88-2.77,1.42-4.17Zm23.06,6.44c.24,1.07.43,2.09.55,3.07.49,4-.12,7.16-1.54,8a2.37,2.37,0,0,1-1.22.27c-2.18,0-5.42-1.74-8.86-4.91a51.19,51.19,0,0,0,4.36-5.26,50,50,0,0,0,6.71-1.17Zm-25.08,0A51.6,51.6,0,0,0,20,36.82a52,52,0,0,0,4.38,5.28C20.9,45.29,17.68,47,15.48,47a2.52,2.52,0,0,1-1.19-.28c-1.44-.82-2.06-3.95-1.57-8a30.49,30.49,0,0,1,.53-3.1Zm9.83,1.38c.95,0,1.92.07,2.9.07s2,0,2.93-.07A41.53,41.53,0,0,1,26,40.43,43.76,43.76,0,0,1,23.09,37.06Z"/></svg>