<svg id="圖層_1" data-name="圖層 1" xmlns="http://www.w3.org/2000/svg" viewBox="0 0 52 52"><defs><style>.cls-1{fill:gray;}</style></defs><path class="cls-1" d="M15.4,22.19h-2L12.3,27.82h1.78a4.35,4.35,0,0,0,2.64-.67,3.58,3.58,0,0,0,1.16-2.23,2.41,2.41,0,0,0-.26-2.11A2.94,2.94,0,0,0,15.4,22.19ZM26,12.59C11.92,12.59.5,18.59.5,26S11.92,39.41,26,39.41s25.5-6,25.5-13.41S40.08,12.59,26,12.59ZM19.07,28.42a5.11,5.11,0,0,1-1.95,1.17,9,9,0,0,1-2.73.35H11.88l-.69,3.57H8.26l2.61-13.44h5.64a4.67,4.67,0,0,1,3.7,1.33,4.18,4.18,0,0,1,.7,3.73,5.89,5.89,0,0,1-.65,1.8A6,6,0,0,1,19.07,28.42Zm8.55,1.52,1.16-6a1.6,1.6,0,0,0-.15-1.38,2,2,0,0,0-1.46-.37H24.85l-1.49,7.7H20.45L23.06,16.5H26l-.7,3.57h2.59a5,5,0,0,1,3.37.85,2.81,2.81,0,0,1,.56,2.76l-1.21,6.26Zm16.15-4.81a6.17,6.17,0,0,1-.65,1.8,6,6,0,0,1-1.19,1.49,5.19,5.19,0,0,1-2,1.17,9.1,9.1,0,0,1-2.73.35H34.74L34,33.51H31.11l2.62-13.44h5.63a4.65,4.65,0,0,1,3.7,1.33A4.18,4.18,0,0,1,43.77,25.13Zm-5.52-2.94h-2l-1.1,5.63h1.78a4.3,4.3,0,0,0,2.64-.67,3.54,3.54,0,0,0,1.17-2.23,2.41,2.41,0,0,0-.26-2.11A3,3,0,0,0,38.25,22.19Z"/></svg>